STARTFONT 2.1
COMMENT
COMMENT Converted from OpenType font "MFMiMeng_Noncommercial-Regular.ttf" by "otf2bdf 3.0".
COMMENT
FONT -FreeType-MF MiMeng(Noncommercial)-Medium-R-Normal--17-120-100-100-P-126-ISO10646-1
SIZE 12 100 100
FONTBOUNDINGBOX 16 22 0 -6
STARTPROPERTIES 19
FOUNDRY "FreeType"
FAMILY_NAME "MF MiMeng(Noncommercial)"
WEIGHT_NAME "Medium"
SLANT "R"
SETWIDTH_NAME "Normal"
ADD_STYLE_NAME ""
PIXEL_SIZE 17
POINT_SIZE 120
RESOLUTION_X 100
RESOLUTION_Y 100
SPACING "P"
AVERAGE_WIDTH 126
CHARSET_REGISTRY "ISO10646"
CHARSET_ENCODING "1"
FONT_ASCENT 14
FONT_DESCENT 2
COPYRIGHT "© 2018 SN. All rights reserved."
_OTF_FONTFILE "MFMiMeng_Noncommercial-Regular.ttf"
_OTF_PSNAME "MF MiMeng(Noncommercial)-Regular"
ENDPROPERTIES
CHARS 7226
STARTCHAR 0020
ENCODING 32
SWIDTH 240 0
DWIDTH 4 0
BBX 0 0 0 0
BITMAP
ENDCHAR
STARTCHAR 0021
ENCODING 33
SWIDTH 180 0
DWIDTH 3 0
BBX 1 15 1 -1
BITMAP
80
80
80
80
80
80
80
80
80
80
80
00
00
80
80
ENDCHAR
STARTCHAR 0022
ENCODING 34
SWIDTH 300 0
DWIDTH 5 0
BBX 3 2 1 13
BITMAP
A0
A0
ENDCHAR
STARTCHAR 0023
ENCODING 35
SWIDTH 660 0
DWIDTH 11 0
BBX 11 14 0 -1
BITMAP
0080
0880
0900
0900
7900
17E0
1100
1200
2200
FFC0
2200
2200
2400
0400
ENDCHAR
STARTCHAR 0024
ENCODING 36
SWIDTH 600 0
DWIDTH 10 0
BBX 8 15 1 0
BITMAP
08
08
7C
CA
88
88
C8
7E
11
11
91
53
3C
10
10
ENDCHAR
STARTCHAR 0025
ENCODING 37
SWIDTH 660 0
DWIDTH 11 0
BBX 11 14 0 1
BITMAP
0080
7100
8900
8900
8A00
7200
0400
0400
0400
08C0
0920
1120
1120
20C0
ENDCHAR
STARTCHAR 0026
ENCODING 38
SWIDTH 660 0
DWIDTH 11 0
BBX 10 14 1 0
BITMAP
3C00
6600
4200
4200
4600
2C00
7000
5100
9900
8900
8700
8100
42C0
3C00
ENDCHAR
STARTCHAR 0027
ENCODING 39
SWIDTH 120 0
DWIDTH 2 0
BBX 1 2 1 12
BITMAP
80
80
ENDCHAR
STARTCHAR 0028
ENCODING 40
SWIDTH 180 0
DWIDTH 3 0
BBX 2 15 0 -1
BITMAP
40
40
40
80
80
80
80
80
80
80
80
80
80
40
40
ENDCHAR
STARTCHAR 0029
ENCODING 41
SWIDTH 240 0
DWIDTH 4 0
BBX 2 15 1 -1
BITMAP
80
80
80
40
40
40
40
40
40
40
40
40
80
80
80
ENDCHAR
STARTCHAR 002A
ENCODING 42
SWIDTH 300 0
DWIDTH 5 0
BBX 4 5 1 9
BITMAP
40
40
E0
E0
B0
ENDCHAR
STARTCHAR 002B
ENCODING 43
SWIDTH 540 0
DWIDTH 9 0
BBX 9 10 0 2
BITMAP
0800
0800
0800
0800
0800
FF80
0800
0800
0800
0800
ENDCHAR
STARTCHAR 002C
ENCODING 44
SWIDTH 180 0
DWIDTH 3 0
BBX 1 2 1 -3
BITMAP
80
80
ENDCHAR
STARTCHAR 002D
ENCODING 45
SWIDTH 660 0
DWIDTH 11 0
BBX 9 1 1 6
BITMAP
FF80
ENDCHAR
STARTCHAR 002E
ENCODING 46
SWIDTH 60 0
DWIDTH 1 0
BBX 1 2 0 -2
BITMAP
80
80
ENDCHAR
STARTCHAR 002F
ENCODING 47
SWIDTH 420 0
DWIDTH 7 0
BBX 5 15 1 -1
BITMAP
08
08
10
10
10
20
20
20
20
40
40
40
80
80
80
ENDCHAR
STARTCHAR 0030
ENCODING 48
SWIDTH 600 0
DWIDTH 10 0
BBX 8 12 1 0
BITMAP
18
24
46
82
81
81
81
81
81
42
42
3C
ENDCHAR
STARTCHAR 0031
ENCODING 49
SWIDTH 360 0
DWIDTH 6 0
BBX 6 12 0 0
BITMAP
70
10
10
10
10
10
10
10
10
10
00
FC
ENDCHAR
STARTCHAR 0032
ENCODING 50
SWIDTH 540 0
DWIDTH 9 0
BBX 8 12 1 0
BITMAP
38
44
82
82
02
02
04
08
10
60
40
FF
ENDCHAR
STARTCHAR 0033
ENCODING 51
SWIDTH 540 0
DWIDTH 9 0
BBX 7 13 1 0
BITMAP
10
6C
82
82
02
04
78
04
02
02
82
C4
38
ENDCHAR
STARTCHAR 0034
ENCODING 52
SWIDTH 480 0
DWIDTH 8 0
BBX 8 12 0 0
BITMAP
04
44
44
44
44
84
84
FF
04
04
04
04
ENDCHAR
STARTCHAR 0035
ENCODING 53
SWIDTH 540 0
DWIDTH 9 0
BBX 7 13 1 0
BITMAP
80
82
BC
80
80
80
F8
84
02
02
82
84
78
ENDCHAR
STARTCHAR 0036
ENCODING 54
SWIDTH 600 0
DWIDTH 10 0
BBX 8 12 1 0
BITMAP
3C
42
41
80
80
9C
A2
81
81
81
42
3C
ENDCHAR
STARTCHAR 0037
ENCODING 55
SWIDTH 420 0
DWIDTH 7 0
BBX 7 11 0 1
BITMAP
FE
02
04
04
04
08
08
08
10
10
10
ENDCHAR
STARTCHAR 0038
ENCODING 56
SWIDTH 540 0
DWIDTH 9 0
BBX 7 12 1 0
BITMAP
38
46
82
80
4E
38
44
82
82
82
46
3C
ENDCHAR
STARTCHAR 0039
ENCODING 57
SWIDTH 540 0
DWIDTH 9 0
BBX 7 12 1 0
BITMAP
38
44
82
82
82
46
7A
02
02
84
44
38
ENDCHAR
STARTCHAR 003A
ENCODING 58
SWIDTH 60 0
DWIDTH 1 0
BBX 1 8 0 1
BITMAP
80
80
00
00
00
00
80
80
ENDCHAR
STARTCHAR 003B
ENCODING 59
SWIDTH 120 0
DWIDTH 2 0
BBX 1 9 0 0
BITMAP
80
80
00
00
00
00
00
00
80
ENDCHAR
STARTCHAR 003C
ENCODING 60
SWIDTH 240 0
DWIDTH 4 0
BBX 4 7 0 3
BITMAP
30
20
40
80
40
20
10
ENDCHAR
STARTCHAR 003D
ENCODING 61
SWIDTH 660 0
DWIDTH 11 0
BBX 9 5 1 4
BITMAP
FF80
0000
0000
0000
FF80
ENDCHAR
STARTCHAR 003E
ENCODING 62
SWIDTH 300 0
DWIDTH 5 0
BBX 3 7 1 3
BITMAP
80
40
20
20
20
40
80
ENDCHAR
STARTCHAR 003F
ENCODING 63
SWIDTH 420 0
DWIDTH 7 0
BBX 7 14 0 -1
BITMAP
38
46
82
82
02
04
08
10
10
10
10
00
10
10
ENDCHAR
STARTCHAR 0040
ENCODING 64
SWIDTH 900 0
DWIDTH 15 0
BBX 13 14 1 0
BITMAP
0F80
3060
6010
4050
8748
8948
9048
9048
9048
8950
4F60
6008
3030
0FC0
ENDCHAR
STARTCHAR 0041
ENCODING 65
SWIDTH 600 0
DWIDTH 10 0
BBX 10 12 0 0
BITMAP
0400
0400
1400
1200
1200
2200
2100
3D00
4080
4080
4080
8040
ENDCHAR
STARTCHAR 0042
ENCODING 66
SWIDTH 540 0
DWIDTH 9 0
BBX 8 12 1 0
BITMAP
BC
82
81
81
82
BE
82
81
81
81
82
BC
ENDCHAR
STARTCHAR 0043
ENCODING 67
SWIDTH 600 0
DWIDTH 10 0
BBX 9 12 0 0
BITMAP
1F00
2080
4000
4000
8000
8000
8000
8000
8000
4080
2180
1E00
ENDCHAR
STARTCHAR 0044
ENCODING 68
SWIDTH 600 0
DWIDTH 10 0
BBX 9 12 1 -1
BITMAP
BC00
8300
8100
8080
8080
8080
8080
8080
8080
8100
8200
BC00
ENDCHAR
STARTCHAR 0045
ENCODING 69
SWIDTH 540 0
DWIDTH 9 0
BBX 8 12 1 0
BITMAP
BF
80
80
80
80
87
98
80
80
80
80
BF
ENDCHAR
STARTCHAR 0046
ENCODING 70
SWIDTH 540 0
DWIDTH 9 0
BBX 8 12 1 0
BITMAP
BF
80
80
80
80
BE
80
80
80
80
80
80
ENDCHAR
STARTCHAR 0047
ENCODING 71
SWIDTH 600 0
DWIDTH 10 0
BBX 9 13 0 -1
BITMAP
1E00
2180
4000
8000
8000
8000
8700
8080
8180
4180
6280
1E80
0080
ENDCHAR
STARTCHAR 0048
ENCODING 72
SWIDTH 600 0
DWIDTH 10 0
BBX 8 12 1 0
BITMAP
81
81
81
81
81
BD
81
81
81
81
81
81
ENDCHAR
STARTCHAR 0049
ENCODING 73
SWIDTH 480 0
DWIDTH 8 0
BBX 7 13 0 0
BITMAP
F0
0C
10
10
10
10
10
10
10
10
10
02
7C
ENDCHAR
STARTCHAR 004A
ENCODING 74
SWIDTH 360 0
DWIDTH 6 0
BBX 5 12 0 0
BITMAP
08
08
08
08
08
08
08
08
08
88
88
70
ENDCHAR
STARTCHAR 004B
ENCODING 75
SWIDTH 540 0
DWIDTH 9 0
BBX 8 12 1 0
BITMAP
80
80
80
83
8C
90
80
88
8C
86
83
80
ENDCHAR
STARTCHAR 004C
ENCODING 76
SWIDTH 540 0
DWIDTH 9 0
BBX 7 12 1 0
BITMAP
80
80
80
80
80
80
80
80
80
80
80
FE
ENDCHAR
STARTCHAR 004D
ENCODING 77
SWIDTH 660 0
DWIDTH 11 0
BBX 10 12 1 0
BITMAP
2100
6100
6300
5280
5280
5480
8C80
8C80
8440
8040
8040
0040
ENDCHAR
STARTCHAR 004E
ENCODING 78
SWIDTH 600 0
DWIDTH 10 0
BBX 8 12 1 0
BITMAP
81
A1
A1
91
91
89
89
85
85
83
83
81
ENDCHAR
STARTCHAR 004F
ENCODING 79
SWIDTH 600 0
DWIDTH 10 0
BBX 9 12 0 0
BITMAP
1E00
2300
4100
8080
8080
8080
8080
8080
8080
4100
2100
1E00
ENDCHAR
STARTCHAR 0050
ENCODING 80
SWIDTH 540 0
DWIDTH 9 0
BBX 8 12 1 0
BITMAP
BC
82
81
81
81
82
BC
80
80
80
80
80
ENDCHAR
STARTCHAR 0051
ENCODING 81
SWIDTH 600 0
DWIDTH 10 0
BBX 9 12 0 0
BITMAP
1E00
2300
4100
8080
8080
8080
8080
8080
8080
4300
2100
1E00
ENDCHAR
STARTCHAR 0052
ENCODING 82
SWIDTH 600 0
DWIDTH 10 0
BBX 8 12 1 0
BITMAP
BC
82
81
81
81
82
BC
80
88
86
81
80
ENDCHAR
STARTCHAR 0053
ENCODING 83
SWIDTH 600 0
DWIDTH 10 0
BBX 9 12 1 0
BITMAP
3E00
4100
8080
8000
C000
3E00
0100
0080
0080
8080
C100
3E00
ENDCHAR
STARTCHAR 0054
ENCODING 84
SWIDTH 600 0
DWIDTH 10 0
BBX 8 12 1 1
BITMAP
FE
01
08
08
08
08
08
08
08
08
08
08
ENDCHAR
STARTCHAR 0055
ENCODING 85
SWIDTH 600 0
DWIDTH 10 0
BBX 8 12 1 0
BITMAP
81
81
81
81
81
81
81
81
81
81
42
3C
ENDCHAR
STARTCHAR 0056
ENCODING 86
SWIDTH 540 0
DWIDTH 9 0
BBX 9 12 0 0
BITMAP
8080
4100
4100
4100
2200
2200
2200
1400
1400
1400
0800
0800
ENDCHAR
STARTCHAR 0057
ENCODING 87
SWIDTH 660 0
DWIDTH 11 0
BBX 10 11 1 1
BITMAP
8040
8040
8840
8C80
8C80
5480
5280
5300
6300
6100
2100
ENDCHAR
STARTCHAR 0058
ENCODING 88
SWIDTH 600 0
DWIDTH 10 0
BBX 9 12 1 1
BITMAP
4080
4100
2100
1200
0A00
0C00
0C00
0A00
1200
2100
4080
8000
ENDCHAR
STARTCHAR 0059
ENCODING 89
SWIDTH 600 0
DWIDTH 10 0
BBX 9 13 1 0
BITMAP
0080
8100
4100
2200
0000
0800
0800
0800
0800
0800
0800
0800
0800
ENDCHAR
STARTCHAR 005A
ENCODING 90
SWIDTH 540 0
DWIDTH 9 0
BBX 9 12 0 0
BITMAP
FF80
0100
0200
0600
0400
0800
1800
1000
2000
4000
4000
FF80
ENDCHAR
STARTCHAR 005B
ENCODING 91
SWIDTH 300 0
DWIDTH 5 0
BBX 3 15 1 -1
BITMAP
E0
80
80
80
80
80
80
80
80
80
80
80
80
80
E0
ENDCHAR
STARTCHAR 005C
ENCODING 92
SWIDTH 300 0
DWIDTH 5 0
BBX 5 15 0 -1
BITMAP
80
80
40
40
40
40
20
20
20
10
10
10
10
08
08
ENDCHAR
STARTCHAR 005D
ENCODING 93
SWIDTH 300 0
DWIDTH 5 0
BBX 3 15 1 -1
BITMAP
E0
20
20
20
20
20
20
20
20
20
20
20
20
20
E0
ENDCHAR
STARTCHAR 005E
ENCODING 94
SWIDTH 420 0
DWIDTH 7 0
BBX 6 4 0 11
BITMAP
10
28
48
C4
ENDCHAR
STARTCHAR 005F
ENCODING 95
SWIDTH 840 0
DWIDTH 14 0
BBX 12 1 1 0
BITMAP
FFF0
ENDCHAR
STARTCHAR 0060
ENCODING 96
SWIDTH 180 0
DWIDTH 3 0
BBX 1 2 1 12
BITMAP
80
80
ENDCHAR
STARTCHAR 0061
ENCODING 97
SWIDTH 480 0
DWIDTH 8 0
BBX 7 7 0 0
BITMAP
74
CC
84
84
84
8C
76
ENDCHAR
STARTCHAR 0062
ENCODING 98
SWIDTH 420 0
DWIDTH 7 0
BBX 6 12 1 0
BITMAP
80
80
80
80
80
B8
84
84
84
84
84
B8
ENDCHAR
STARTCHAR 0063
ENCODING 99
SWIDTH 420 0
DWIDTH 7 0
BBX 6 7 0 0
BITMAP
38
44
80
80
80
44
38
ENDCHAR
STARTCHAR 0064
ENCODING 100
SWIDTH 420 0
DWIDTH 7 0
BBX 6 12 0 0
BITMAP
04
04
04
04
04
74
C4
84
84
84
84
74
ENDCHAR
STARTCHAR 0065
ENCODING 101
SWIDTH 420 0
DWIDTH 7 0
BBX 6 7 0 -1
BITMAP
78
44
84
BC
80
44
78
ENDCHAR
STARTCHAR 0066
ENCODING 102
SWIDTH 420 0
DWIDTH 7 0
BBX 7 12 0 0
BITMAP
0C
10
10
10
10
FE
10
10
10
10
10
10
ENDCHAR
STARTCHAR 0067
ENCODING 103
SWIDTH 360 0
DWIDTH 6 0
BBX 6 12 0 -6
BITMAP
74
44
84
84
84
84
74
04
04
84
4C
38
ENDCHAR
STARTCHAR 0068
ENCODING 104
SWIDTH 420 0
DWIDTH 7 0
BBX 6 12 1 0
BITMAP
80
80
80
80
80
B8
84
84
84
84
84
84
ENDCHAR
STARTCHAR 0069
ENCODING 105
SWIDTH 60 0
DWIDTH 1 0
BBX 1 11 0 0
BITMAP
80
80
00
00
80
80
80
80
80
80
80
ENDCHAR
STARTCHAR 006A
ENCODING 106
SWIDTH 240 0
DWIDTH 4 0
BBX 2 16 1 -5
BITMAP
40
40
00
00
40
40
40
40
40
40
40
40
40
40
40
80
ENDCHAR
STARTCHAR 006B
ENCODING 107
SWIDTH 480 0
DWIDTH 8 0
BBX 6 12 1 0
BITMAP
80
80
80
80
80
84
88
80
90
88
84
80
ENDCHAR
STARTCHAR 006C
ENCODING 108
SWIDTH 180 0
DWIDTH 3 0
BBX 1 12 1 0
BITMAP
80
80
80
80
80
80
80
80
80
80
80
80
ENDCHAR
STARTCHAR 006D
ENCODING 109
SWIDTH 480 0
DWIDTH 8 0
BBX 8 7 0 1
BITMAP
B6
89
89
89
89
89
89
ENDCHAR
STARTCHAR 006E
ENCODING 110
SWIDTH 420 0
DWIDTH 7 0
BBX 6 7 1 0
BITMAP
B8
84
84
84
84
84
84
ENDCHAR
STARTCHAR 006F
ENCODING 111
SWIDTH 420 0
DWIDTH 7 0
BBX 7 7 0 0
BITMAP
38
44
82
82
82
44
38
ENDCHAR
STARTCHAR 0070
ENCODING 112
SWIDTH 420 0
DWIDTH 7 0
BBX 7 12 0 -5
BITMAP
38
84
82
82
82
86
BC
80
80
80
80
80
ENDCHAR
STARTCHAR 0071
ENCODING 113
SWIDTH 480 0
DWIDTH 8 0
BBX 7 12 0 -5
BITMAP
38
42
82
82
82
C2
7A
02
02
02
02
02
ENDCHAR
STARTCHAR 0072
ENCODING 114
SWIDTH 360 0
DWIDTH 6 0
BBX 5 7 1 0
BITMAP
80
88
B0
80
80
80
80
ENDCHAR
STARTCHAR 0073
ENCODING 115
SWIDTH 480 0
DWIDTH 8 0
BBX 6 8 1 -1
BITMAP
78
84
80
78
04
84
C8
30
ENDCHAR
STARTCHAR 0074
ENCODING 116
SWIDTH 420 0
DWIDTH 7 0
BBX 6 12 0 0
BITMAP
10
10
10
10
1C
F0
10
10
10
10
10
08
ENDCHAR
STARTCHAR 0075
ENCODING 117
SWIDTH 420 0
DWIDTH 7 0
BBX 6 7 0 0
BITMAP
84
84
84
84
84
84
74
ENDCHAR
STARTCHAR 0076
ENCODING 118
SWIDTH 420 0
DWIDTH 7 0
BBX 6 7 0 1
BITMAP
80
44
44
48
28
30
10
ENDCHAR
STARTCHAR 0077
ENCODING 119
SWIDTH 540 0
DWIDTH 9 0
BBX 9 8 0 0
BITMAP
0080
8880
4900
4D00
5500
5500
3200
2200
ENDCHAR
STARTCHAR 0078
ENCODING 120
SWIDTH 420 0
DWIDTH 7 0
BBX 5 7 1 0
BITMAP
08
88
50
30
30
48
80
ENDCHAR
STARTCHAR 0079
ENCODING 121
SWIDTH 420 0
DWIDTH 7 0
BBX 7 12 0 -5
BITMAP
02
84
44
24
04
08
08
10
10
20
40
40
ENDCHAR
STARTCHAR 007A
ENCODING 122
SWIDTH 480 0
DWIDTH 8 0
BBX 6 7 1 0
BITMAP
FC
08
10
20
60
40
FC
ENDCHAR
STARTCHAR 007B
ENCODING 123
SWIDTH 360 0
DWIDTH 6 0
BBX 5 15 0 -1
BITMAP
38
20
20
20
20
20
20
C0
20
20
20
20
20
20
38
ENDCHAR
STARTCHAR 007C
ENCODING 124
SWIDTH 180 0
DWIDTH 3 0
BBX 1 15 1 -1
BITMAP
80
80
80
80
80
80
80
80
80
80
80
80
80
80
80
ENDCHAR
STARTCHAR 007D
ENCODING 125
SWIDTH 300 0
DWIDTH 5 0
BBX 5 15 0 -1
BITMAP
E0
20
20
20
20
20
20
18
20
20
20
20
20
20
E0
ENDCHAR
STARTCHAR 007E
ENCODING 126
SWIDTH 540 0
DWIDTH 9 0
BBX 7 2 1 6
BITMAP
20
DE
ENDCHAR
STARTCHAR 00A5
ENCODING 165
SWIDTH 540 0
DWIDTH 9 0
BBX 9 13 0 0
BITMAP
4300
2000
0000
FF80
0800
0800
0800
FF80
0800
0800
0800
0800
0800
ENDCHAR
STARTCHAR 00A9
ENCODING 169
SWIDTH 840 0
DWIDTH 14 0
BBX 14 14 0 0
BITMAP
0780
1860
2010
4308
8488
8804
8804
8804
8484
8704
4008
2010
1020
0FC0
ENDCHAR
STARTCHAR 00B0
ENCODING 176
SWIDTH 240 0
DWIDTH 4 0
BBX 4 4 0 11
BITMAP
60
90
90
60
ENDCHAR
STARTCHAR 00B7
ENCODING 183
SWIDTH 900 0
DWIDTH 15 0
BBX 1 2 7 6
BITMAP
80
80
ENDCHAR
STARTCHAR 2014
ENCODING 8212
SWIDTH 840 0
DWIDTH 14 0
BBX 14 1 0 7
BITMAP
FFFC
ENDCHAR
STARTCHAR 2018
ENCODING 8216
SWIDTH 900 0
DWIDTH 15 0
BBX 1 2 14 11
BITMAP
80
80
ENDCHAR
STARTCHAR 2019
ENCODING 8217
SWIDTH 900 0
DWIDTH 15 0
BBX 1 2 0 11
BITMAP
80
80
ENDCHAR
STARTCHAR 201C
ENCODING 8220
SWIDTH 960 0
DWIDTH 16 0
BBX 3 2 12 11
BITMAP
A0
A0
ENDCHAR
STARTCHAR 201D
ENCODING 8221
SWIDTH 900 0
DWIDTH 15 0
BBX 3 2 0 11
BITMAP
A0
A0
ENDCHAR
STARTCHAR 2022
ENCODING 8226
SWIDTH 900 0
DWIDTH 15 0
BBX 1 2 7 6
BITMAP
80
80
ENDCHAR
STARTCHAR 2026
ENCODING 8230
SWIDTH 900 0
DWIDTH 15 0
BBX 13 2 1 6
BITMAP
8208
8208
ENDCHAR
STARTCHAR 205D
ENCODING 8285
SWIDTH 960 0
DWIDTH 16 0
BBX 2 14 7 0
BITMAP
C0
00
00
00
00
00
00
C0
00
00
00
00
00
C0
ENDCHAR
STARTCHAR 20AC
ENCODING 8364
SWIDTH 780 0
DWIDTH 13 0
BBX 13 14 0 0
BITMAP
0380
0440
0820
0800
1000
7F00
10F0
1000
FFF8
1000
0800
0820
0460
0380
ENDCHAR
STARTCHAR 2122
ENCODING 8482
SWIDTH 900 0
DWIDTH 15 0
BBX 14 6 1 9
BITMAP
FBF8
2224
2224
2224
2224
2224
ENDCHAR
STARTCHAR 22EF
ENCODING 8943
SWIDTH 900 0
DWIDTH 15 0
BBX 13 2 1 6
BITMAP
8208
8208
ENDCHAR
STARTCHAR 2F00
ENCODING 12032
SWIDTH 900 0
DWIDTH 15 0
BBX 11 1 2 6
BITMAP
FFE0
ENDCHAR
STARTCHAR 2F01
ENCODING 12033
SWIDTH 900 0
DWIDTH 15 0
BBX 1 12 7 0
BITMAP
80
80
80
80
80
80
80
80
80
80
80
80
ENDCHAR
STARTCHAR 2F02
ENCODING 12034
SWIDTH 900 0
DWIDTH 15 0
BBX 3 3 6 5
BITMAP
80
40
20
ENDCHAR
STARTCHAR 2F03
ENCODING 12035
SWIDTH 900 0
DWIDTH 15 0
BBX 3 14 6 -2
BITMAP
20
20
20
20
20
20
40
40
40
40
40
80
80
80
ENDCHAR
STARTCHAR 2F04
ENCODING 12036
SWIDTH 900 0
DWIDTH 15 0
BBX 11 12 2 0
BITMAP
FF80
0180
0100
0200
0400
0800
1800
1000
2000
4000
8020
FFE0
ENDCHAR
STARTCHAR 2F06
ENCODING 12038
SWIDTH 900 0
DWIDTH 15 0
BBX 11 12 2 0
BITMAP
7FC0
0000
0000
0000
0000
0000
0000
0000
0000
0000
0000
FFE0
ENDCHAR
STARTCHAR 2F07
ENCODING 12039
SWIDTH 960 0
DWIDTH 16 0
BBX 12 3 2 11
BITMAP
0400
0400
FFF0
ENDCHAR
STARTCHAR 2F08
ENCODING 12040
SWIDTH 900 0
DWIDTH 15 0
BBX 9 12 3 0
BITMAP
0800
0800
0800
1000
1000
1000
2000
2000
2000
4380
4000
8000
ENDCHAR
STARTCHAR 2F09
ENCODING 12041
SWIDTH 900 0
DWIDTH 15 0
BBX 11 15 2 -1
BITMAP
1000
1000
1100
1100
1100
1100
1100
2100
2100
2100
2100
4120
41E0
4000
8000
ENDCHAR
STARTCHAR 2F0A
ENCODING 12042
SWIDTH 900 0
DWIDTH 15 0
BBX 11 13 2 1
BITMAP
0400
0400
0400
0200
0A00
1200
1100
1100
2080
2080
4040
4040
8020
ENDCHAR
STARTCHAR 2F0B
ENCODING 12043
SWIDTH 900 0
DWIDTH 15 0
BBX 11 15 2 -1
BITMAP
0200
0200
0900
1100
1100
1100
1100
1080
2080
2080
2040
4040
4040
8020
0020
ENDCHAR
STARTCHAR 2F0C
ENCODING 12044
SWIDTH 840 0
DWIDTH 14 0
BBX 10 14 2 -2
BITMAP
FFC0
8040
8040
8040
8040
8040
8040
8040
8040
8040
8040
8040
8040
80C0
ENDCHAR
STARTCHAR 2F0D
ENCODING 12045
SWIDTH 900 0
DWIDTH 15 0
BBX 11 4 2 10
BITMAP
8000
BFE0
8020
8020
ENDCHAR
STARTCHAR 2F0E
ENCODING 12046
SWIDTH 900 0
DWIDTH 15 0
BBX 2 10 3 1
BITMAP
C0
00
00
00
00
00
00
00
00
C0
ENDCHAR
STARTCHAR 2F0F
ENCODING 12047
SWIDTH 900 0
DWIDTH 15 0
BBX 11 13 2 -2
BITMAP
2F00
2100
2100
2100
2100
2100
4100
4100
4100
4100
8120
81E0
8000
ENDCHAR
STARTCHAR 2F10
ENCODING 12048
SWIDTH 900 0
DWIDTH 15 0
BBX 11 11 2 0
BITMAP
8020
8020
8020
8020
8020
8020
8020
8020
8020
8020
FFE0
ENDCHAR
STARTCHAR 2F11
ENCODING 12049
SWIDTH 900 0
DWIDTH 15 0
BBX 10 13 2 -1
BITMAP
7FC0
0040
0040
0840
1040
1040
1040
1040
2040
2040
40C0
4000
8000
ENDCHAR
STARTCHAR 2F12
ENCODING 12050
SWIDTH 900 0
DWIDTH 15 0
BBX 9 14 3 -2
BITMAP
1000
1000
1000
1000
FF80
2080
2080
2080
2080
4080
4080
4080
8180
8000
ENDCHAR
STARTCHAR 2F13
ENCODING 12051
SWIDTH 960 0
DWIDTH 16 0
BBX 10 14 3 -1
BITMAP
2000
6000
4FC0
8040
0040
0040
0040
0040
0040
0040
0040
0040
0040
00C0
ENDCHAR
STARTCHAR 2F14
ENCODING 12052
SWIDTH 900 0
DWIDTH 15 0
BBX 9 12 3 0
BITMAP
8000
8000
8000
8300
8C00
8000
8000
8000
8000
8000
8080
FF80
ENDCHAR
STARTCHAR 2F15
ENCODING 12053
SWIDTH 900 0
DWIDTH 15 0
BBX 10 14 2 -1
BITMAP
FFC0
8000
8000
8000
8000
8000
8000
8000
8000
8000
8000
8000
8000
FFC0
ENDCHAR
STARTCHAR 2F17
ENCODING 12055
SWIDTH 900 0
DWIDTH 15 0
BBX 11 14 2 -1
BITMAP
0400
0400
0400
0400
0400
FFE0
0400
0400
0400
0400
0400
0400
0400
0400
ENDCHAR
STARTCHAR 2F18
ENCODING 12056
SWIDTH 900 0
DWIDTH 15 0
BBX 6 14 5 -1
BITMAP
80
80
80
80
80
90
8C
80
80
80
80
80
80
80
ENDCHAR
STARTCHAR 2F19
ENCODING 12057
SWIDTH 900 0
DWIDTH 15 0
BBX 5 11 9 0
BITMAP
F8
08
88
88
88
88
98
80
80
80
80
ENDCHAR
STARTCHAR 2F1A
ENCODING 12058
SWIDTH 900 0
DWIDTH 15 0
BBX 11 14 2 -2
BITMAP
7FE0
0000
4000
4000
4000
4000
4000
4000
4000
4000
8000
8000
8000
8000
ENDCHAR
STARTCHAR 2F1B
ENCODING 12059
SWIDTH 900 0
DWIDTH 15 0
BBX 11 10 2 2
BITMAP
1800
1000
1000
2000
2000
4100
4080
C040
9E60
F020
ENDCHAR
STARTCHAR 2F1C
ENCODING 12060
SWIDTH 900 0
DWIDTH 15 0
BBX 11 12 2 0
BITMAP
7FC0
0040
0080
0080
1100
0F00
0600
0D00
1880
3060
4000
8000
ENDCHAR
STARTCHAR 2F1D
ENCODING 12061
SWIDTH 960 0
DWIDTH 16 0
BBX 10 11 3 1
BITMAP
FFC0
8040
8040
8040
8040
8040
8040
8040
8040
8040
FFC0
ENDCHAR
STARTCHAR 2F1E
ENCODING 12062
SWIDTH 900 0
DWIDTH 15 0
BBX 11 15 2 -1
BITMAP
FFE0
8020
8020
8020
8020
8020
8020
8020
8020
8020
8020
8020
8020
8020
FFE0
ENDCHAR
STARTCHAR 2F1F
ENCODING 12063
SWIDTH 900 0
DWIDTH 15 0
BBX 11 13 2 0
BITMAP
0200
0200
0200
0200
0200
3FC0
0200
0200
0200
0200
0200
0000
FFE0
ENDCHAR
STARTCHAR 2F20
ENCODING 12064
SWIDTH 900 0
DWIDTH 15 0
BBX 11 13 2 0
BITMAP
0400
0400
0400
0400
0400
FFE0
0400
0400
0400
0400
0400
0000
3F80
ENDCHAR
STARTCHAR 2F21
ENCODING 12065
SWIDTH 900 0
DWIDTH 15 0
BBX 11 13 2 -1
BITMAP
2000
2000
4F80
8080
0100
0100
1300
0E00
0780
0C60
1800
3000
6000
ENDCHAR
STARTCHAR 2F23
ENCODING 12067
SWIDTH 900 0
DWIDTH 15 0
BBX 9 13 3 -1
BITMAP
2000
4000
4F80
8080
0080
2100
3100
0200
0400
0C00
1800
3000
4000
ENDCHAR
STARTCHAR 2F24
ENCODING 12068
SWIDTH 840 0
DWIDTH 14 0
BBX 10 13 2 -1
BITMAP
0400
0400
0400
0400
0800
FFC0
0800
0800
1000
1180
2040
2000
4000
ENDCHAR
STARTCHAR 2F25
ENCODING 12069
SWIDTH 840 0
DWIDTH 14 0
BBX 10 15 2 -1
BITMAP
0800
0800
0800
1000
FFC0
1000
2200
2200
2400
1C00
0B00
18C0
3000
6000
8000
ENDCHAR
STARTCHAR 2F26
ENCODING 12070
SWIDTH 900 0
DWIDTH 15 0
BBX 11 13 2 -1
BITMAP
3F80
0100
0100
0200
0400
0400
FFE0
0400
0400
0400
0400
0400
0C00
ENDCHAR
STARTCHAR 2F27
ENCODING 12071
SWIDTH 900 0
DWIDTH 15 0
BBX 11 5 2 9
BITMAP
0400
0400
BFE0
8020
8020
ENDCHAR
STARTCHAR 2F28
ENCODING 12072
SWIDTH 840 0
DWIDTH 14 0
BBX 10 14 2 -1
BITMAP
0100
0100
0100
0100
FFC0
0100
0100
0100
1100
0100
0100
0100
0100
0300
ENDCHAR
STARTCHAR 2F29
ENCODING 12073
SWIDTH 900 0
DWIDTH 15 0
BBX 10 12 3 -1
BITMAP
0800
0800
0800
0800
0800
0880
8840
0800
0800
0800
0800
1800
ENDCHAR
STARTCHAR 2F2A
ENCODING 12074
SWIDTH 900 0
DWIDTH 15 0
BBX 10 14 2 0
BITMAP
0800
0800
0800
0800
FFC0
1000
1000
1200
1200
3200
2200
2200
43C0
4000
ENDCHAR
STARTCHAR 2F2B
ENCODING 12075
SWIDTH 900 0
DWIDTH 15 0
BBX 10 12 3 -1
BITMAP
5FC0
4040
4040
4040
5FC0
4000
4000
4000
8000
8000
8000
8000
ENDCHAR
STARTCHAR 2F2C
ENCODING 12076
SWIDTH 960 0
DWIDTH 16 0
BBX 10 15 3 -1
BITMAP
0800
0800
0800
0800
8840
8840
8840
8840
8840
FFC0
0800
0800
0800
0800
0800
ENDCHAR
STARTCHAR 2F2D
ENCODING 12077
SWIDTH 900 0
DWIDTH 15 0
BBX 11 13 2 0
BITMAP
0400
0400
0400
0400
8420
8420
8420
8420
8420
8420
8020
8020
FFE0
ENDCHAR
STARTCHAR 2F2E
ENCODING 12078
SWIDTH 900 0
DWIDTH 15 0
BBX 11 12 2 -1
BITMAP
2020
2220
4440
4440
4440
8880
8880
4880
4440
4440
2440
2220
ENDCHAR
STARTCHAR 2F2F
ENCODING 12079
SWIDTH 900 0
DWIDTH 15 0
BBX 11 12 2 0
BITMAP
7FC0
0000
0000
0000
0400
0400
0400
0400
0400
0400
0000
FFE0
ENDCHAR
STARTCHAR 2F30
ENCODING 12080
SWIDTH 900 0
DWIDTH 15 0
BBX 9 12 3 0
BITMAP
FF00
0100
0100
0100
0100
FF00
8000
8000
8000
8000
8080
FF80
ENDCHAR
STARTCHAR 2F31
ENCODING 12081
SWIDTH 840 0
DWIDTH 14 0
BBX 10 15 2 -1
BITMAP
0400
0400
0400
0400
FFC0
8440
8440
8440
8440
8440
84C0
0400
0400
0400
0400
ENDCHAR
STARTCHAR 2F32
ENCODING 12082
SWIDTH 900 0
DWIDTH 15 0
BBX 11 14 2 -1
BITMAP
3FC0
0000
0000
0400
0400
FFE0
0400
0400
0400
0400
0400
0400
0400
0400
ENDCHAR
STARTCHAR 2F33
ENCODING 12083
SWIDTH 900 0
DWIDTH 15 0
BBX 11 13 2 1
BITMAP
2000
2000
4000
4100
8300
F200
0400
0C00
0800
1080
2040
6320
7C00
ENDCHAR
STARTCHAR 2F34
ENCODING 12084
SWIDTH 900 0
DWIDTH 15 0
BBX 11 15 2 -2
BITMAP
0400
0400
0000
7FE0
0000
4000
4000
4000
4000
4000
4000
8000
8000
8000
8000
ENDCHAR
STARTCHAR 2F35
ENCODING 12085
SWIDTH 900 0
DWIDTH 15 0
BBX 12 12 2 -1
BITMAP
E000
2000
2000
4000
4000
7000
1000
A000
A000
6000
6000
5FF0
ENDCHAR
STARTCHAR 2F36
ENCODING 12086
SWIDTH 900 0
DWIDTH 15 0
BBX 11 13 2 -1
BITMAP
1100
1100
1100
1100
1100
FFE0
2100
2100
2100
2100
4100
4000
4000
ENDCHAR
STARTCHAR 2F37
ENCODING 12087
SWIDTH 900 0
DWIDTH 15 0
BBX 11 15 2 -1
BITMAP
0800
0880
0800
0800
0DE0
FE00
0400
0400
0600
0200
0300
0100
0180
00E0
0060
ENDCHAR
STARTCHAR 2F38
ENCODING 12088
SWIDTH 900 0
DWIDTH 15 0
BBX 9 13 3 -2
BITMAP
FF00
0100
0100
FF00
8000
8000
8000
FF80
0080
0080
0080
0080
0180
ENDCHAR
STARTCHAR 2F39
ENCODING 12089
SWIDTH 900 0
DWIDTH 15 0
BBX 10 12 2 0
BITMAP
FFC0
0040
0040
0040
0040
0040
3F40
0040
0040
0040
0040
FFC0
ENDCHAR
STARTCHAR 2F3A
ENCODING 12090
SWIDTH 900 0
DWIDTH 15 0
BBX 8 12 3 2
BITMAP
06
0C
30
40
00
07
38
00
00
03
1E
E0
ENDCHAR
STARTCHAR 2F3B
ENCODING 12091
SWIDTH 900 0
DWIDTH 15 0
BBX 4 13 2 0
BITMAP
30
20
40
00
10
60
80
20
20
20
20
20
20
ENDCHAR
STARTCHAR 2F3C
ENCODING 12092
SWIDTH 840 0
DWIDTH 14 0
BBX 12 12 1 0
BITMAP
0200
0100
0000
0800
0800
0820
4810
8800
0800
0800
0840
0FC0
ENDCHAR
STARTCHAR 2F3D
ENCODING 12093
SWIDTH 900 0
DWIDTH 15 0
BBX 11 14 2 1
BITMAP
0800
0900
0800
0800
0860
1F80
E400
0460
02C0
0300
0D00
3100
0080
0040
ENDCHAR
STARTCHAR 2F3F
ENCODING 12095
SWIDTH 900 0
DWIDTH 15 0
BBX 11 14 2 -2
BITMAP
0080
7F80
0000
0400
0400
1F00
0400
0400
FFE0
0400
0400
0400
0400
0C00
ENDCHAR
STARTCHAR 2F40
ENCODING 12096
SWIDTH 960 0
DWIDTH 16 0
BBX 10 15 3 -1
BITMAP
0800
0800
FFC0
0800
0800
0000
7E00
0200
0200
3400
0C00
1B00
3000
4000
8000
ENDCHAR
STARTCHAR 2F41
ENCODING 12097
SWIDTH 960 0
DWIDTH 16 0
BBX 10 15 3 -1
BITMAP
0800
0800
0BC0
0800
0800
0000
7F00
0100
0100
3A00
0E00
0980
1000
6000
8000
ENDCHAR
STARTCHAR 2F42
ENCODING 12098
SWIDTH 840 0
DWIDTH 14 0
BBX 10 14 2 -2
BITMAP
0400
0400
0000
FFC0
0000
0200
0200
3200
1C00
0E00
1900
3080
6000
C000
ENDCHAR
STARTCHAR 2F43
ENCODING 12099
SWIDTH 900 0
DWIDTH 15 0
BBX 10 14 2 0
BITMAP
0200
0200
1200
1200
0200
4200
0200
02C0
FF00
0200
0200
0200
0200
0200
ENDCHAR
STARTCHAR 2F44
ENCODING 12100
SWIDTH 900 0
DWIDTH 15 0
BBX 10 14 3 -1
BITMAP
0300
1C00
4000
4000
4000
4000
5FC0
4000
8200
8200
8200
0200
0200
0200
ENDCHAR
STARTCHAR 2F45
ENCODING 12101
SWIDTH 900 0
DWIDTH 15 0
BBX 11 15 2 -2
BITMAP
0400
0400
0000
FFE0
0000
1000
1000
1780
1080
2080
2080
2080
2080
4180
4000
ENDCHAR
STARTCHAR 2F46
ENCODING 12102
SWIDTH 900 0
DWIDTH 15 0
BBX 12 14 2 -2
BITMAP
3FC0
0000
0000
0800
0800
0800
FFE0
0800
1200
1200
2200
2200
43F0
4000
ENDCHAR
STARTCHAR 2F47
ENCODING 12103
SWIDTH 900 0
DWIDTH 15 0
BBX 9 12 3 0
BITMAP
FF80
8080
8080
8080
8080
BC80
8080
8080
8080
8080
8080
FF80
ENDCHAR
STARTCHAR 2F48
ENCODING 12104
SWIDTH 900 0
DWIDTH 15 0
BBX 9 12 3 0
BITMAP
FF80
8080
8080
8080
8080
8080
FC80
8080
8080
8080
8080
FF80
ENDCHAR
STARTCHAR 2F49
ENCODING 12105
SWIDTH 900 0
DWIDTH 15 0
BBX 10 14 2 -2
BITMAP
27C0
2040
2040
2E40
2040
2040
2040
2740
2040
4040
4040
40C0
4000
8000
ENDCHAR
STARTCHAR 2F4A
ENCODING 12106
SWIDTH 840 0
DWIDTH 14 0
BBX 10 14 2 -1
BITMAP
0400
0400
0400
0400
FFC0
0400
0400
0400
4480
4440
8400
0400
0400
0400
ENDCHAR
STARTCHAR 2F4B
ENCODING 12107
SWIDTH 900 0
DWIDTH 15 0
BBX 9 13 3 -1
BITMAP
4000
4000
8780
0080
0000
0000
0800
0800
1000
1000
2180
4000
8000
ENDCHAR
STARTCHAR 2F4C
ENCODING 12108
SWIDTH 960 0
DWIDTH 16 0
BBX 12 13 2 0
BITMAP
0200
0200
0200
2200
2200
2200
22E0
2200
2200
2200
2200
0000
FFF0
ENDCHAR
STARTCHAR 2F4D
ENCODING 12109
SWIDTH 900 0
DWIDTH 15 0
BBX 11 14 2 -2
BITMAP
FFE0
0000
1000
3000
2780
0080
0080
1100
0300
0600
0C00
1800
3000
4000
ENDCHAR
STARTCHAR 2F4E
ENCODING 12110
SWIDTH 900 0
DWIDTH 15 0
BBX 9 15 3 -2
BITMAP
3E00
0200
4200
4200
4380
8000
0000
7F00
0200
0200
3C00
0F00
1080
6000
8000
ENDCHAR
STARTCHAR 2F4F
ENCODING 12111
SWIDTH 960 0
DWIDTH 16 0
BBX 12 14 2 -3
BITMAP
3FC0
2040
2240
2240
2240
FFF0
2240
2440
2440
3FF0
0840
1040
10C0
2000
ENDCHAR
STARTCHAR 2F50
ENCODING 12112
SWIDTH 900 0
DWIDTH 15 0
BBX 11 12 2 -1
BITMAP
8200
8200
8200
8200
8240
BA80
8200
8200
8200
8200
8220
F3E0
ENDCHAR
STARTCHAR 2F51
ENCODING 12113
SWIDTH 900 0
DWIDTH 15 0
BBX 12 13 1 1
BITMAP
3F80
0000
0400
0400
3FC0
0400
0400
05F0
FE00
0400
0400
0410
07F0
ENDCHAR
STARTCHAR 2F52
ENCODING 12114
SWIDTH 900 0
DWIDTH 15 0
BBX 9 15 3 -1
BITMAP
7F00
0000
0000
8400
8400
8400
BF80
8400
8200
8200
8200
8200
8100
C100
0080
ENDCHAR
STARTCHAR 2F53
ENCODING 12115
SWIDTH 900 0
DWIDTH 15 0
BBX 12 14 1 0
BITMAP
2000
4FE0
8000
1F80
0000
0000
7FC0
0040
0040
0040
0040
0040
0030
0030
ENDCHAR
STARTCHAR 2F54
ENCODING 12116
SWIDTH 840 0
DWIDTH 14 0
BBX 12 12 1 0
BITMAP
0200
0200
0200
0240
7A40
0A00
1280
2260
6210
C200
0200
0600
ENDCHAR
STARTCHAR 2F55
ENCODING 12117
SWIDTH 960 0
DWIDTH 16 0
BBX 10 13 3 0
BITMAP
0800
0800
0800
8880
4900
0800
1000
1000
1000
21C0
2000
4000
4000
ENDCHAR
STARTCHAR 2F56
ENCODING 12118
SWIDTH 840 0
DWIDTH 14 0
BBX 11 13 1 -1
BITMAP
03C0
1F00
2000
2000
2080
2480
2480
2440
4440
4440
4420
4420
8000
ENDCHAR
STARTCHAR 2F57
ENCODING 12119
SWIDTH 900 0
DWIDTH 15 0
BBX 10 13 2 0
BITMAP
4180
4040
8000
0000
0200
0200
1C00
0600
0980
1040
2000
4000
8000
ENDCHAR
STARTCHAR 2F58
ENCODING 12120
SWIDTH 900 0
DWIDTH 15 0
BBX 11 15 2 -1
BITMAP
0100
3100
1A00
0600
0980
1040
2080
0080
3100
0E00
0700
0CC0
1820
3000
C000
ENDCHAR
STARTCHAR 2F59
ENCODING 12121
SWIDTH 900 0
DWIDTH 15 0
BBX 9 14 3 -2
BITMAP
0080
2080
2080
2080
3E80
0080
0080
FE80
0080
1080
2080
2080
2080
4080
ENDCHAR
STARTCHAR 2F5A
ENCODING 12122
SWIDTH 900 0
DWIDTH 15 0
BBX 10 14 3 -1
BITMAP
0200
4200
4200
4200
4000
5FC0
4000
4000
5F80
4080
8080
8080
8080
8080
ENDCHAR
STARTCHAR 2F5B
ENCODING 12123
SWIDTH 900 0
DWIDTH 15 0
BBX 11 14 2 -2
BITMAP
FFE0
0000
0100
4100
4100
4100
7FC0
0100
0100
2100
4100
C100
8100
0300
ENDCHAR
STARTCHAR 2F5C
ENCODING 12124
SWIDTH 960 0
DWIDTH 16 0
BBX 12 15 2 -1
BITMAP
0200
0200
0200
2200
2FC0
4200
0200
0200
0200
FFF0
0200
0200
0200
0200
0200
ENDCHAR
STARTCHAR 2F5D
ENCODING 12125
SWIDTH 900 0
DWIDTH 15 0
BBX 11 13 2 0
BITMAP
0400
0480
0480
0480
0800
FFE0
0800
1800
1000
11C0
2020
2000
4000
ENDCHAR
STARTCHAR 2F5E
ENCODING 12126
SWIDTH 900 0
DWIDTH 15 0
BBX 11 15 2 0
BITMAP
0400
0400
0000
FFE0
0000
1000
1000
2100
7A00
0400
0C00
0800
10C0
2340
3C00
ENDCHAR
STARTCHAR 2F5F
ENCODING 12127
SWIDTH 900 0
DWIDTH 15 0
BBX 11 12 2 0
BITMAP
FFC0
0000
0400
0400
0400
7F80
0400
0400
0500
0400
0000
FFE0
ENDCHAR
STARTCHAR 2F60
ENCODING 12128
SWIDTH 900 0
DWIDTH 15 0
BBX 10 12 3 0
BITMAP
0F80
3000
4000
4080
4880
4880
4880
4880
4840
8840
9140
9C40
ENDCHAR
STARTCHAR 2F61
ENCODING 12129
SWIDTH 900 0
DWIDTH 15 0
BBX 11 12 2 -1
BITMAP
FFE0
2000
2000
2F00
2100
2100
2100
2500
2100
2100
2120
31E0
ENDCHAR
STARTCHAR 2F62
ENCODING 12130
SWIDTH 960 0
DWIDTH 16 0
BBX 12 14 2 0
BITMAP
1080
1080
1080
FFF0
1080
1080
1080
1080
1E80
1080
1080
1080
1080
1F80
ENDCHAR
STARTCHAR 2F63
ENCODING 12131
SWIDTH 840 0
DWIDTH 14 0
BBX 10 14 2 0
BITMAP
0400
0400
4400
4400
9F80
8400
0400
0400
3F80
0400
0400
0400
0000
FFC0
ENDCHAR
STARTCHAR 2F64
ENCODING 12132
SWIDTH 900 0
DWIDTH 15 0
BBX 11 14 2 -2
BITMAP
2FE0
2020
2220
2220
2FA0
2220
2220
2FA0
4220
4220
4220
4260
4000
8000
ENDCHAR
STARTCHAR 2F65
ENCODING 12133
SWIDTH 960 0
DWIDTH 16 0
BBX 10 12 3 0
BITMAP
FFC0
8040
8040
8840
8840
8840
BE40
8840
8840
8040
8040
FFC0
ENDCHAR
STARTCHAR 2F66
ENCODING 12134
SWIDTH 900 0
DWIDTH 15 0
BBX 11 13 2 -1
BITMAP
FFE0
0020
0420
0400
0400
0400
45C0
4400
4400
A400
9000
9800
87E0
ENDCHAR
STARTCHAR 2F67
ENCODING 12135
SWIDTH 900 0
DWIDTH 15 0
BBX 13 15 1 -2
BITMAP
0080
0080
0000
1FF8
0000
1000
5000
1000
1000
1000
5000
A000
2000
2000
2000
ENDCHAR
STARTCHAR 2F69
ENCODING 12137
SWIDTH 840 0
DWIDTH 14 0
BBX 8 14 3 0
BITMAP
10
10
00
FF
81
81
81
81
9D
81
81
81
81
FF
ENDCHAR
STARTCHAR 2F6A
ENCODING 12138
SWIDTH 900 0
DWIDTH 15 0
BBX 11 15 2 -1
BITMAP
0400
0400
7FC0
0440
4440
4440
4000
5F80
4180
4100
8E00
8780
8C60
1800
2000
ENDCHAR
STARTCHAR 2F6B
ENCODING 12139
SWIDTH 840 0
DWIDTH 14 0
BBX 12 10 1 1
BITMAP
3FC0
2040
2940
2940
2940
2940
2940
2040
2040
FFF0
ENDCHAR
STARTCHAR 2F6C
ENCODING 12140
SWIDTH 840 0
DWIDTH 14 0
BBX 8 12 3 0
BITMAP
FF
81
81
81
B9
81
81
9D
81
81
81
FF
ENDCHAR
STARTCHAR 2F6D
ENCODING 12141
SWIDTH 900 0
DWIDTH 15 0
BBX 10 14 2 -2
BITMAP
3F00
0100
0200
0800
0000
FFC0
0040
0440
2400
6400
4400
8400
0400
0C00
ENDCHAR
STARTCHAR 2F6E
ENCODING 12142
SWIDTH 900 0
DWIDTH 15 0
BBX 11 14 2 -1
BITMAP
2000
6F80
4000
0400
0400
0400
FFE0
0800
0800
1300
1080
2000
4000
4000
ENDCHAR
STARTCHAR 2F6F
ENCODING 12143
SWIDTH 840 0
DWIDTH 14 0
BBX 10 12 2 0
BITMAP
FFC0
0000
1000
1000
2000
4000
9F80
1080
1080
1080
1080
1F80
ENDCHAR
STARTCHAR 2F70
ENCODING 12144
SWIDTH 900 0
DWIDTH 15 0
BBX 11 13 2 -2
BITMAP
3F80
0000
0000
0000
FFE0
0000
0400
0400
0440
4420
C400
0400
0C00
ENDCHAR
STARTCHAR 2F72
ENCODING 12146
SWIDTH 900 0
DWIDTH 15 0
BBX 11 12 2 1
BITMAP
3F00
4000
0400
0400
0400
FFE0
0400
0480
6440
8400
0400
0400
ENDCHAR
STARTCHAR 2F73
ENCODING 12147
SWIDTH 900 0
DWIDTH 15 0
BBX 11 15 2 -1
BITMAP
0400
0400
0000
BFE0
8020
8020
0000
1000
1100
1180
2080
2040
4040
4000
8000
ENDCHAR
STARTCHAR 2F74
ENCODING 12148
SWIDTH 900 0
DWIDTH 15 0
BBX 11 12 2 0
BITMAP
0400
0400
0000
7FC0
0000
0000
0100
3100
1000
0000
0000
FFE0
ENDCHAR
STARTCHAR 2F75
ENCODING 12149
SWIDTH 900 0
DWIDTH 15 0
BBX 12 14 2 0
BITMAP
4100
8300
BAF0
0000
0000
2040
2040
2040
2040
2040
2040
2040
2040
00C0
ENDCHAR
STARTCHAR 2F76
ENCODING 12150
SWIDTH 840 0
DWIDTH 14 0
BBX 10 14 2 -1
BITMAP
0400
0400
0400
4480
0400
0400
FFC0
0400
0400
2480
4440
0400
0400
0400
ENDCHAR
STARTCHAR 2F77
ENCODING 12151
SWIDTH 900 0
DWIDTH 15 0
BBX 9 14 3 -1
BITMAP
2000
4400
4C00
F800
1000
2100
4100
7E80
0800
0800
4900
8880
0800
1800
ENDCHAR
STARTCHAR 2F78
ENCODING 12152
SWIDTH 900 0
DWIDTH 15 0
BBX 11 14 2 0
BITMAP
2000
2000
4FC0
4000
0000
0400
0400
FFE0
0400
0400
4440
4440
4040
7FC0
ENDCHAR
STARTCHAR 2F79
ENCODING 12153
SWIDTH 840 0
DWIDTH 14 0
BBX 10 14 2 -2
BITMAP
FFC0
8040
8040
8140
9140
9640
B240
AB40
A440
C440
8040
8040
8040
80C0
ENDCHAR
STARTCHAR 2F7A
ENCODING 12154
SWIDTH 960 0
DWIDTH 16 0
BBX 12 14 2 0
BITMAP
1100
0000
7FE0
0400
0400
3F80
0400
0400
0400
FFF0
0400
0400
0400
0400
ENDCHAR
STARTCHAR 2F7B
ENCODING 12155
SWIDTH 900 0
DWIDTH 15 0
BBX 11 12 2 -1
BITMAP
03E0
F820
0820
0820
4920
0820
0820
2820
CB20
0820
0820
1860
ENDCHAR
STARTCHAR 2F7C
ENCODING 12156
SWIDTH 960 0
DWIDTH 16 0
BBX 12 14 2 0
BITMAP
0400
0400
3F40
0480
0500
FFF0
0C00
3000
C880
0900
0800
0800
0840
0FC0
ENDCHAR
STARTCHAR 2F7D
ENCODING 12157
SWIDTH 900 0
DWIDTH 15 0
BBX 11 12 2 -1
BITMAP
FFE0
0800
0800
BFC0
8040
9240
9240
9240
9240
9240
8040
80C0
ENDCHAR
STARTCHAR 2F7E
ENCODING 12158
SWIDTH 900 0
DWIDTH 15 0
BBX 11 15 2 -1
BITMAP
0400
0400
7FC0
0400
1F80
0400
0400
FFE0
0400
0400
2480
6440
4400
0400
0400
ENDCHAR
STARTCHAR 2F7F
ENCODING 12159
SWIDTH 960 0
DWIDTH 16 0
BBX 12 14 2 -1
BITMAP
7FF0
0000
1080
1080
1780
1080
1080
1780
1080
1080
00F0
FF80
0080
0080
ENDCHAR
STARTCHAR 2F80
ENCODING 12160
SWIDTH 900 0
DWIDTH 15 0
BBX 11 15 2 -2
BITMAP
0400
3F80
0480
FFE0
0480
0480
3F80
0400
3F80
0400
0400
FFE0
0400
0400
0400
ENDCHAR
STARTCHAR 2F81
ENCODING 12161
SWIDTH 960 0
DWIDTH 16 0
BBX 10 15 3 -1
BITMAP
0400
0400
0400
BFC0
8840
8C40
9240
A440
8840
8840
9240
A140
8040
8040
80C0
ENDCHAR
STARTCHAR 2F82
ENCODING 12162
SWIDTH 900 0
DWIDTH 15 0
BBX 10 13 3 -1
BITMAP
FFC0
8800
8800
8800
FF80
8080
8080
8080
FF80
8800
8800
8800
FFC0
ENDCHAR
STARTCHAR 2F83
ENCODING 12163
SWIDTH 900 0
DWIDTH 15 0
BBX 9 15 3 -1
BITMAP
0800
1000
0000
FF80
8080
8080
8080
9C80
8080
8080
9C80
8080
8080
8080
FF80
ENDCHAR
STARTCHAR 2F84
ENCODING 12164
SWIDTH 960 0
DWIDTH 16 0
BBX 12 12 2 0
BITMAP
7FE0
1000
2180
24C0
3C40
0400
0400
3FC0
0400
0400
0000
FFF0
ENDCHAR
STARTCHAR 2F85
ENCODING 12165
SWIDTH 960 0
DWIDTH 16 0
BBX 10 11 3 1
BITMAP
1000
A3C0
8040
8040
8040
BBC0
8040
8040
8040
8040
FFC0
ENDCHAR
STARTCHAR 2F86
ENCODING 12166
SWIDTH 900 0
DWIDTH 15 0
BBX 11 15 2 -1
BITMAP
0080
0F80
3C00
0000
0400
FFE0
0400
0400
0400
3F80
2080
2080
2080
2080
3F80
ENDCHAR
STARTCHAR 2F87
ENCODING 12167
SWIDTH 900 0
DWIDTH 15 0
BBX 12 12 1 0
BITMAP
0040
4040
4040
BBF0
0840
0A40
5240
13F0
2040
2040
4040
0040
ENDCHAR
STARTCHAR 2F88
ENCODING 12168
SWIDTH 900 0
DWIDTH 15 0
BBX 11 13 2 -2
BITMAP
0400
0C00
0000
1F80
1080
1480
1080
FFE0
3080
3480
2080
2080
2180
ENDCHAR
STARTCHAR 2F89
ENCODING 12169
SWIDTH 900 0
DWIDTH 15 0
BBX 9 14 3 -2
BITMAP
BF00
8100
8100
9D00
8100
8100
BF00
8000
8000
8080
8400
8200
E100
0080
ENDCHAR
STARTCHAR 2F8A
ENCODING 12170
SWIDTH 900 0
DWIDTH 15 0
BBX 10 14 3 0
BITMAP
2000
4000
8E00
0400
0000
BF00
8100
8900
BF00
8000
8000
8000
8040
FFC0
ENDCHAR
STARTCHAR 2F8C
ENCODING 12172
SWIDTH 900 0
DWIDTH 15 0
BBX 12 15 2 -1
BITMAP
0400
05C0
0400
0400
7FE0
0020
4020
4400
4400
47C0
9C00
8400
8400
8420
07F0
ENDCHAR
STARTCHAR 2F8D
ENCODING 12173
SWIDTH 900 0
DWIDTH 15 0
BBX 11 13 2 0
BITMAP
0400
0400
0400
7FC0
4440
4440
4440
7FC0
0400
0400
0440
0F20
F000
ENDCHAR
STARTCHAR 2F8E
ENCODING 12174
SWIDTH 960 0
DWIDTH 16 0
BBX 12 14 2 1
BITMAP
0C00
0800
0000
7FE0
4020
4020
4920
4920
4920
4920
4920
4020
0000
FFF0
ENDCHAR
STARTCHAR 2F8F
ENCODING 12175
SWIDTH 900 0
DWIDTH 15 0
BBX 12 13 2 -1
BITMAP
2000
47C0
C000
0000
0000
6FF0
C000
4080
4080
4080
4080
4080
4180
ENDCHAR
STARTCHAR 2F90
ENCODING 12176
SWIDTH 900 0
DWIDTH 15 0
BBX 11 14 2 -2
BITMAP
0400
0400
0000
FFE0
0000
1000
3040
2080
4000
9000
1100
10C0
1020
1800
ENDCHAR
STARTCHAR 2F93
ENCODING 12179
SWIDTH 900 0
DWIDTH 15 0
BBX 10 14 3 -1
BITMAP
2000
4F80
0300
0000
5FC0
4040
4440
5F40
4440
4440
9F40
8440
8440
80C0
ENDCHAR
STARTCHAR 2F94
ENCODING 12180
SWIDTH 900 0
DWIDTH 15 0
BBX 12 14 1 0
BITMAP
0200
0200
FFF0
0000
0000
3F80
0000
3F80
0000
0000
1F80
1080
1080
1F80
ENDCHAR
STARTCHAR 2F95
ENCODING 12181
SWIDTH 960 0
DWIDTH 16 0
BBX 10 13 3 1
BITMAP
0180
4000
8800
0800
1000
2180
6040
8000
1F00
1100
1100
1100
1F00
ENDCHAR
STARTCHAR 2F96
ENCODING 12182
SWIDTH 900 0
DWIDTH 15 0
BBX 10 12 2 0
BITMAP
FF80
0000
3F00
2100
2100
2100
3F00
0000
0200
1000
0000
FFC0
ENDCHAR
STARTCHAR 2F97
ENCODING 12183
SWIDTH 900 0
DWIDTH 15 0
BBX 11 13 2 -1
BITMAP
7FE0
0400
0400
7420
0240
0280
3200
0200
0240
1220
E200
0200
0600
ENDCHAR
STARTCHAR 2F98
ENCODING 12184
SWIDTH 900 0
DWIDTH 15 0
BBX 8 14 3 -2
BITMAP
04
38
04
24
20
0F
F0
04
72
02
12
62
02
04
ENDCHAR
STARTCHAR 2F9A
ENCODING 12186
SWIDTH 840 0
DWIDTH 14 0
BBX 11 15 2 -1
BITMAP
0400
0400
3F80
0400
0400
FFC0
0000
1000
1200
5260
9200
1200
2200
2200
2000
ENDCHAR
STARTCHAR 2F9B
ENCODING 12187
SWIDTH 900 0
DWIDTH 15 0
BBX 11 15 2 -1
BITMAP
0400
0400
1F80
0400
0400
FFE0
0000
0200
0200
13C0
2200
2200
2800
47E0
4000
ENDCHAR
STARTCHAR 2F9C
ENCODING 12188
SWIDTH 900 0
DWIDTH 15 0
BBX 10 13 2 -1
BITMAP
3F80
2080
2080
2080
3F80
0000
0400
0400
05C0
4400
4400
5000
8FC0
ENDCHAR
STARTCHAR 2F9D
ENCODING 12189
SWIDTH 840 0
DWIDTH 14 0
BBX 10 15 2 0
BITMAP
0C00
0000
3F00
0100
2F00
2100
2F40
2180
FF00
0300
0700
0D00
3100
C100
0100
ENDCHAR
STARTCHAR 2F9E
ENCODING 12190
SWIDTH 900 0
DWIDTH 15 0
BBX 12 15 1 -1
BITMAP
0400
0400
FFE0
0400
0400
3FC0
2440
3F40
2440
3FC0
0400
0400
FFF0
0400
0400
ENDCHAR
STARTCHAR 2F9F
ENCODING 12191
SWIDTH 840 0
DWIDTH 14 0
BBX 12 15 1 -1
BITMAP
0200
0200
3FE0
0000
0080
0000
0000
FFF0
0200
0200
0200
3FC0
0200
0200
0200
ENDCHAR
STARTCHAR 2FA0
ENCODING 12192
SWIDTH 900 0
DWIDTH 15 0
BBX 11 14 2 -1
BITMAP
7FC0
0000
4000
4F80
4000
4000
5FE0
4000
8860
8840
8880
0840
0820
0C00
ENDCHAR
STARTCHAR 2FA2
ENCODING 12194
SWIDTH 900 0
DWIDTH 15 0
BBX 11 15 2 -2
BITMAP
7F00
4100
4100
7F00
0000
0000
FF80
8880
8880
FF80
8000
8000
8000
8040
FFE0
ENDCHAR
STARTCHAR 2FA3
ENCODING 12195
SWIDTH 960 0
DWIDTH 16 0
BBX 12 13 2 0
BITMAP
FFF0
0000
0A00
0A00
7FC0
4A40
4A40
53C0
5040
4040
4F40
4040
7FC0
ENDCHAR
STARTCHAR 2FA5
ENCODING 12197
SWIDTH 840 0
DWIDTH 14 0
BBX 12 13 1 0
BITMAP
3FC0
2240
2740
2240
2240
2240
3FC0
0200
3FC0
0200
0200
0000
FFF0
ENDCHAR
STARTCHAR 2FA6
ENCODING 12198
SWIDTH 960 0
DWIDTH 16 0
BBX 12 14 2 1
BITMAP
0400
0800
1000
20C0
4020
0F00
0000
0400
3FC0
0400
0440
3480
0400
FFF0
ENDCHAR
STARTCHAR 2FA9
ENCODING 12201
SWIDTH 900 0
DWIDTH 15 0
BBX 11 15 2 0
BITMAP
0800
0000
5FC0
4040
4040
5FC0
5FC0
4040
4040
5FC0
0400
0400
FFE0
0400
0400
ENDCHAR
STARTCHAR 2FAA
ENCODING 12202
SWIDTH 840 0
DWIDTH 14 0
BBX 12 15 1 -1
BITMAP
0200
0200
3FC0
0240
0240
FFF0
0240
3FC0
0200
3240
0200
0280
6260
0200
0600
ENDCHAR
STARTCHAR 2FAB
ENCODING 12203
SWIDTH 900 0
DWIDTH 15 0
BBX 11 14 2 0
BITMAP
0100
3100
6000
8000
0FE0
4000
4100
47C0
4100
47C0
4100
4100
4000
4FE0
ENDCHAR
STARTCHAR 2FAC
ENCODING 12204
SWIDTH 840 0
DWIDTH 14 0
BBX 10 12 2 -1
BITMAP
7FC0
0400
0400
BFC0
8440
9540
8440
8440
9540
8440
8440
84C0
ENDCHAR
STARTCHAR 2FAE
ENCODING 12206
SWIDTH 840 0
DWIDTH 14 0
BBX 12 14 1 -1
BITMAP
0900
0900
0900
E970
0900
0900
0900
6960
0900
0900
E970
0900
0900
0900
ENDCHAR
STARTCHAR 2FAF
ENCODING 12207
SWIDTH 900 0
DWIDTH 15 0
BBX 11 12 2 0
BITMAP
FFE0
0400
0000
7FC0
4040
5140
5740
5140
5740
5140
5140
7FC0
ENDCHAR
STARTCHAR 2FB0
ENCODING 12208
SWIDTH 900 0
DWIDTH 15 0
BBX 11 14 2 0
BITMAP
1100
7FE0
1100
1F00
0000
0400
3F80
2480
3F80
0400
0400
FFE0
0400
0400
ENDCHAR
STARTCHAR 2FB2
ENCODING 12210
SWIDTH 900 0
DWIDTH 15 0
BBX 12 14 1 0
BITMAP
0900
0900
0900
E970
0900
0900
6960
0900
0900
E970
0900
0900
0000
FFF0
ENDCHAR
STARTCHAR 2FB3
ENCODING 12211
SWIDTH 900 0
DWIDTH 15 0
BBX 11 15 2 -1
BITMAP
0400
0400
3F80
0000
1100
0000
0000
FFE0
0000
1F00
1100
1100
1D00
1100
1F00
ENDCHAR
STARTCHAR 2FB5
ENCODING 12213
SWIDTH 840 0
DWIDTH 14 0
BBX 12 15 1 -2
BITMAP
7FE0
4320
4E20
5020
4420
4420
5F20
5520
5520
5F20
8420
80A0
9EA0
8010
0010
ENDCHAR
STARTCHAR 2FB6
ENCODING 12214
SWIDTH 900 0
DWIDTH 15 0
BBX 13 14 1 -2
BITMAP
FF00
0120
1540
6530
0500
2490
2470
FF00
2520
4500
4570
8500
8488
0478
ENDCHAR
STARTCHAR 2FB7
ENCODING 12215
SWIDTH 900 0
DWIDTH 15 0
BBX 10 15 2 -1
BITMAP
0800
1000
2100
C4C0
0000
2F00
2100
2F00
2100
2F00
2000
2080
2300
2080
3000
ENDCHAR
STARTCHAR 2FB8
ENCODING 12216
SWIDTH 960 0
DWIDTH 16 0
BBX 12 15 2 0
BITMAP
1100
0000
FFF0
0400
0800
1F80
1080
1080
1E80
1080
1080
1E80
1080
1080
1F80
ENDCHAR
STARTCHAR 2FB9
ENCODING 12217
SWIDTH 960 0
DWIDTH 16 0
BBX 12 14 2 0
BITMAP
1E00
0400
0400
FFF0
0400
25C0
4420
0000
1F00
1100
1700
1100
1100
1F00
ENDCHAR
STARTCHAR 2FBB
ENCODING 12219
SWIDTH 900 0
DWIDTH 15 0
BBX 11 15 2 -1
BITMAP
3F80
2080
3C80
2480
0000
BFE0
8020
AF20
2100
2F00
2100
2F00
2100
2100
2100
ENDCHAR
STARTCHAR 2FBC
ENCODING 12220
SWIDTH 840 0
DWIDTH 14 0
BBX 10 16 2 -2
BITMAP
0400
0400
FFC0
0000
1F00
1100
1100
1F00
0000
FFC0
8040
9E40
9240
9E40
8040
8000
ENDCHAR
STARTCHAR 2FBD
ENCODING 12221
SWIDTH 900 0
DWIDTH 15 0
BBX 13 12 1 0
BITMAP
3E10
2060
3C80
2000
2000
3C08
2070
FE00
0000
2000
2238
30E0
ENDCHAR
STARTCHAR 2FBE
ENCODING 12222
SWIDTH 960 0
DWIDTH 16 0
BBX 12 14 2 -1
BITMAP
BBD0
8010
9090
B9D0
9090
BBD0
8010
8010
8010
8010
8010
8010
8010
8030
ENDCHAR
STARTCHAR 2FBF
ENCODING 12223
SWIDTH 900 0
DWIDTH 15 0
BBX 10 15 2 0
BITMAP
0900
0200
9640
ED40
8E40
B140
8C40
FFC0
0000
4000
4600
4000
4000
4040
7FC0
ENDCHAR
STARTCHAR 2FC0
ENCODING 12224
SWIDTH 960 0
DWIDTH 16 0
BBX 12 15 2 -2
BITMAP
FFF0
0000
1F80
1080
1080
1F80
0000
BFE0
8020
8920
8020
BFA0
8420
8420
8460
ENDCHAR
STARTCHAR 2FC1
ENCODING 12225
SWIDTH 840 0
DWIDTH 14 0
BBX 10 15 2 0
BITMAP
1000
0000
0000
FF00
8100
9100
BD00
9100
FF00
2000
2000
2880
4B00
4840
8FC0
ENDCHAR
STARTCHAR 2FC5
ENCODING 12229
SWIDTH 900 0
DWIDTH 15 0
BBX 12 15 1 -1
BITMAP
0200
0200
0000
7FF0
4480
5FF0
4490
4490
5FF0
4000
5090
56A0
9080
9090
9CF0
ENDCHAR
STARTCHAR 2FC6
ENCODING 12230
SWIDTH 900 0
DWIDTH 15 0
BBX 11 16 2 -2
BITMAP
0400
7FC0
0480
4500
5540
8620
1480
6060
D000
2F00
2100
0A00
0700
0CC0
1800
2000
ENDCHAR
STARTCHAR 2FC7
ENCODING 12231
SWIDTH 840 0
DWIDTH 14 0
BBX 12 16 1 -1
BITMAP
0200
0200
0000
7FF0
0000
4000
4820
4820
5EF0
4820
4A20
58B0
8820
8820
0820
0820
ENDCHAR
STARTCHAR 2FC9
ENCODING 12233
SWIDTH 900 0
DWIDTH 15 0
BBX 11 14 2 -1
BITMAP
3F80
4400
0400
FFE0
0500
4080
0400
0800
13C0
6060
8480
3400
64C0
0C00
ENDCHAR
STARTCHAR 2FCA
ENCODING 12234
SWIDTH 900 0
DWIDTH 15 0
BBX 11 14 2 -1
BITMAP
7FC0
4040
4440
5540
4440
7FC0
0400
7FC0
0400
0400
FFE0
0000
5220
8920
ENDCHAR
STARTCHAR 2FCB
ENCODING 12235
SWIDTH 900 0
DWIDTH 15 0
BBX 11 16 2 -2
BITMAP
1100
1100
D120
1100
0000
FFE0
0400
24C0
0400
5FE0
4420
4420
54A0
4420
4420
0020
ENDCHAR
STARTCHAR 2FCD
ENCODING 12237
SWIDTH 960 0
DWIDTH 16 0
BBX 12 15 2 -1
BITMAP
1F80
1080
56A0
56A0
50A0
5FA0
4020
79E0
0900
F900
0970
4910
4910
8910
0900
ENDCHAR
STARTCHAR 2FCE
ENCODING 12238
SWIDTH 960 0
DWIDTH 16 0
BBX 14 14 1 -1
BITMAP
1000
1000
FE40
01F8
7C40
0040
0040
7DF0
7C10
00A0
04E0
4870
008C
7F00
ENDCHAR
STARTCHAR 2FCF
ENCODING 12239
SWIDTH 900 0
DWIDTH 15 0
BBX 11 15 2 0
BITMAP
33C0
8040
8040
B340
8040
FFC0
0000
8880
AA80
8880
AA80
8A80
88C0
CC40
0020
ENDCHAR
STARTCHAR 2FD0
ENCODING 12240
SWIDTH 900 0
DWIDTH 15 0
BBX 11 15 2 -1
BITMAP
0800
1F80
1C80
1680
1F80
0000
3FC0
2440
2F40
2040
3FC0
FFE0
0000
1100
3100
ENDCHAR
STARTCHAR 2FD3
ENCODING 12243
SWIDTH 900 0
DWIDTH 15 0
BBX 12 15 1 -1
BITMAP
1100
11F0
FD00
09F0
3810
0010
FDF0
0100
7DE0
4500
7570
7500
45F0
4500
4DF0
ENDCHAR
STARTCHAR 2FD5
ENCODING 12245
SWIDTH 900 0
DWIDTH 15 0
BBX 12 16 1 -1
BITMAP
0200
0600
0800
30F0
C700
7070
5750
5550
7770
0000
3FE0
2520
2FE0
2520
2520
2020
ENDCHAR
STARTCHAR 3000
ENCODING 12288
SWIDTH 1020 0
DWIDTH 17 0
BBX 0 0 0 0
BITMAP
ENDCHAR
STARTCHAR 3001
ENCODING 12289
SWIDTH 960 0
DWIDTH 16 0
BBX 1 2 1 -1
BITMAP
80
80
ENDCHAR
STARTCHAR 3002
ENCODING 12290
SWIDTH 900 0
DWIDTH 15 0
BBX 3 3 0 -2
BITMAP
40
A0
E0
ENDCHAR
STARTCHAR 3005
ENCODING 12293
SWIDTH 900 0
DWIDTH 15 0
BBX 11 14 2 -1
BITMAP
0800
1000
3000
27E0
4020
4040
8040
0080
0080
0100
1200
0800
0600
0100
ENDCHAR
STARTCHAR 3007
ENCODING 12295
SWIDTH 960 0
DWIDTH 16 0
BBX 14 14 1 -1
BITMAP
0780
1860
2010
4008
8008
8004
8004
8004
8004
8008
4008
2010
1020
0FC0
ENDCHAR
STARTCHAR 3008
ENCODING 12296
SWIDTH 900 0
DWIDTH 15 0
BBX 4 15 11 -1
BITMAP
10
20
20
40
40
40
80
80
80
40
40
40
20
20
10
ENDCHAR
STARTCHAR 3009
ENCODING 12297
SWIDTH 900 0
DWIDTH 15 0
BBX 4 15 0 -1
BITMAP
80
40
40
20
20
20
10
10
10
20
20
20
40
40
80
ENDCHAR
STARTCHAR 300A
ENCODING 12298
SWIDTH 900 0
DWIDTH 15 0
BBX 7 15 8 -1
BITMAP
22
24
24
48
48
88
90
90
90
88
48
48
24
24
22
ENDCHAR
STARTCHAR 300B
ENCODING 12299
SWIDTH 900 0
DWIDTH 15 0
BBX 7 15 0 -1
BITMAP
88
48
48
24
24
22
12
12
12
22
24
24
48
48
88
ENDCHAR
STARTCHAR 300C
ENCODING 12300
SWIDTH 900 0
DWIDTH 15 0
BBX 3 13 11 1
BITMAP
E0
80
80
80
80
80
80
80
80
80
80
80
80
ENDCHAR
STARTCHAR 300D
ENCODING 12301
SWIDTH 900 0
DWIDTH 15 0
BBX 3 13 1 -1
BITMAP
20
20
20
20
20
20
20
20
20
20
20
20
E0
ENDCHAR
STARTCHAR 300E
ENCODING 12302
SWIDTH 900 0
DWIDTH 15 0
BBX 5 13 10 1
BITMAP
F8
88
B8
A0
A0
A0
A0
A0
A0
A0
A0
A0
E0
ENDCHAR
STARTCHAR 300F
ENCODING 12303
SWIDTH 960 0
DWIDTH 16 0
BBX 5 13 1 -1
BITMAP
38
28
28
28
28
28
28
28
28
28
E8
88
F8
ENDCHAR
STARTCHAR 3010
ENCODING 12304
SWIDTH 900 0
DWIDTH 15 0
BBX 2 15 12 -1
BITMAP
C0
C0
80
80
80
80
80
80
80
80
80
80
80
C0
C0
ENDCHAR
STARTCHAR 3011
ENCODING 12305
SWIDTH 900 0
DWIDTH 15 0
BBX 2 15 1 -1
BITMAP
C0
C0
40
40
40
40
40
40
40
40
40
40
40
C0
C0
ENDCHAR
STARTCHAR 3016
ENCODING 12310
SWIDTH 900 0
DWIDTH 15 0
BBX 4 15 10 -1
BITMAP
F0
90
90
A0
A0
A0
A0
A0
A0
A0
A0
A0
90
90
F0
ENDCHAR
STARTCHAR 3017
ENCODING 12311
SWIDTH 900 0
DWIDTH 15 0
BBX 5 15 0 -1
BITMAP
F8
48
48
28
28
28
28
28
28
28
28
28
48
48
F8
ENDCHAR
STARTCHAR 306E
ENCODING 12398
SWIDTH 900 0
DWIDTH 15 0
BBX 13 12 1 1
BITMAP
0F80
3060
6010
4010
4108
8108
8108
8108
8110
4110
4230
3C60
ENDCHAR
STARTCHAR 30FB
ENCODING 12539
SWIDTH 900 0
DWIDTH 15 0
BBX 1 2 7 6
BITMAP
80
80
ENDCHAR
STARTCHAR 4E00
ENCODING 19968
SWIDTH 900 0
DWIDTH 15 0
BBX 11 1 2 6
BITMAP
FFE0
ENDCHAR
STARTCHAR 4E01
ENCODING 19969
SWIDTH 900 0
DWIDTH 15 0
BBX 11 13 2 -2
BITMAP
FFE0
0000
0000
0400
0400
0400
0400
0400
0400
0400
0400
0400
0C00
ENDCHAR
STARTCHAR 4E03
ENCODING 19971
SWIDTH 900 0
DWIDTH 15 0
BBX 11 13 2 0
BITMAP
0800
0800
0800
0800
0860
3F80
C800
0800
0800
0800
0800
0820
0FE0
ENDCHAR
STARTCHAR 4E07
ENCODING 19975
SWIDTH 900 0
DWIDTH 15 0
BBX 11 13 2 -2
BITMAP
FFE0
0000
0000
1000
2000
2780
2080
2080
2080
4080
4080
8180
8000
ENDCHAR
STARTCHAR 4E08
ENCODING 19976
SWIDTH 840 0
DWIDTH 14 0
BBX 10 13 2 0
BITMAP
0100
0100
0100
FFC0
0200
0200
2600
1C00
0E00
0980
1000
2000
4000
ENDCHAR
STARTCHAR 4E09
ENCODING 19977
SWIDTH 960 0
DWIDTH 16 0
BBX 12 12 2 0
BITMAP
7FC0
0000
0000
0000
0000
0000
1F80
0000
0000
0000
0000
FFF0
ENDCHAR
STARTCHAR 4E0A
ENCODING 19978
SWIDTH 900 0
DWIDTH 15 0
BBX 11 13 2 0
BITMAP
0400
0400
0400
0400
0400
05C0
0400
0400
0400
0400
0400
0000
FFE0
ENDCHAR
STARTCHAR 4E0B
ENCODING 19979
SWIDTH 900 0
DWIDTH 15 0
BBX 11 13 2 -1
BITMAP
FFE0
0000
0800
0800
0800
0900
0880
0840
0800
0800
0800
0800
0800
ENDCHAR
STARTCHAR 4E0C
ENCODING 19980
SWIDTH 900 0
DWIDTH 15 0
BBX 11 12 2 -2
BITMAP
FFE0
0000
2000
2100
2100
2100
2100
2100
4100
4100
4100
4100
ENDCHAR
STARTCHAR 4E0D
ENCODING 19981
SWIDTH 900 0
DWIDTH 15 0
BBX 11 12 2 0
BITMAP
FFE0
0000
0400
0480
2440
4420
8400
0400
0400
0400
0400
0400
ENDCHAR
STARTCHAR 4E0E
ENCODING 19982
SWIDTH 900 0
DWIDTH 15 0
BBX 11 15 2 -1
BITMAP
2000
2000
2FE0
2000
2000
2000
3FC0
0040
0040
0040
FF40
0040
0040
0040
0040
ENDCHAR
STARTCHAR 4E10
ENCODING 19984
SWIDTH 900 0
DWIDTH 15 0
BBX 11 14 2 -2
BITMAP
FFE0
0000
0400
2400
25C0
2400
2400
2000
3FC0
0040
0040
0040
0040
00C0
ENDCHAR
STARTCHAR 4E11
ENCODING 19985
SWIDTH 900 0
DWIDTH 15 0
BBX 11 12 2 0
BITMAP
7F80
0080
0080
1080
1080
7E80
1080
1080
1080
1080
0080
FFE0
ENDCHAR
STARTCHAR 4E13
ENCODING 19987
SWIDTH 960 0
DWIDTH 16 0
BBX 12 15 2 0
BITMAP
0400
0400
7FC0
0800
0800
FFF0
0800
1000
1F80
0080
0080
0100
0100
0E00
0100
ENDCHAR
STARTCHAR 4E14
ENCODING 19988
SWIDTH 900 0
DWIDTH 15 0
BBX 11 13 2 0
BITMAP
3F80
2080
2080
2080
2E80
2080
2080
2E80
2080
2080
2080
2080
FFE0
ENDCHAR
STARTCHAR 4E15
ENCODING 19989
SWIDTH 840 0
DWIDTH 14 0
BBX 12 13 1 0
BITMAP
7FF0
0000
0000
0400
0440
2460
4410
0400
0400
0400
0400
0000
FFF0
ENDCHAR
STARTCHAR 4E16
ENCODING 19990
SWIDTH 900 0
DWIDTH 15 0
BBX 11 14 2 0
BITMAP
0480
0480
2480
2480
FFE0
2480
2480
2480
2480
2780
2000
2000
2000
3FE0
ENDCHAR
STARTCHAR 4E18
ENCODING 19992
SWIDTH 960 0
DWIDTH 16 0
BBX 12 13 2 1
BITMAP
0F00
0000
2000
2000
2000
2FC0
2100
2100
2100
2100
2100
0000
FFF0
ENDCHAR
STARTCHAR 4E19
ENCODING 19993
SWIDTH 900 0
DWIDTH 15 0
BBX 11 15 2 -2
BITMAP
FFE0
0000
0400
0400
0800
BFC0
8840
8840
9640
9140
A040
A040
8040
8040
80C0
ENDCHAR
STARTCHAR 4E1A
ENCODING 19994
SWIDTH 900 0
DWIDTH 15 0
BBX 11 12 2 0
BITMAP
1200
1200
1200
1200
1240
5280
1200
1200
1200
1200
0000
FFE0
ENDCHAR
STARTCHAR 4E1B
ENCODING 19995
SWIDTH 960 0
DWIDTH 16 0
BBX 12 14 2 1
BITMAP
1080
1080
1080
1080
1080
2080
2D00
2100
2140
4220
4200
0200
0000
FFF0
ENDCHAR
STARTCHAR 4E1C
ENCODING 19996
SWIDTH 900 0
DWIDTH 15 0
BBX 10 14 3 -1
BITMAP
1000
1000
FFC0
2000
2400
2400
4400
7F80
0400
0400
4480
8440
0400
0C00
ENDCHAR
STARTCHAR 4E1D
ENCODING 19997
SWIDTH 960 0
DWIDTH 16 0
BBX 12 13 2 1
BITMAP
2080
2080
4100
4920
EBC0
1040
1080
2080
6100
79C0
0000
0000
FFF0
ENDCHAR
STARTCHAR 4E1E
ENCODING 19998
SWIDTH 960 0
DWIDTH 16 0
BBX 12 14 2 0
BITMAP
3FC0
00C0
0180
0300
0220
7240
1200
3200
2260
4210
0E00
0000
0000
FFF0
ENDCHAR
STARTCHAR 4E22
ENCODING 20002
SWIDTH 960 0
DWIDTH 16 0
BBX 12 13 2 1
BITMAP
3FC0
4200
0200
0200
1FC0
0200
0000
FFF0
0000
0800
1840
1060
3F20
ENDCHAR
STARTCHAR 4E24
ENCODING 20004
SWIDTH 900 0
DWIDTH 15 0
BBX 11 13 2 -1
BITMAP
FFE0
0000
0900
7FE0
4920
5220
5620
53A0
5220
4020
4020
4020
4060
ENDCHAR
STARTCHAR 4E25
ENCODING 20005
SWIDTH 900 0
DWIDTH 15 0
BBX 12 15 1 -2
BITMAP
7FF0
0500
0500
2560
0500
0000
3FF0
2000
2000
2000
4000
4000
4000
8000
8000
ENDCHAR
STARTCHAR 4E27
ENCODING 20007
SWIDTH 840 0
DWIDTH 14 0
BBX 12 15 1 -1
BITMAP
0200
0200
3FE0
0200
0200
1240
0200
FFF0
0000
0040
2000
2000
20C0
2030
1000
ENDCHAR
STARTCHAR 4E28
ENCODING 20008
SWIDTH 900 0
DWIDTH 15 0
BBX 1 12 7 0
BITMAP
80
80
80
80
80
80
80
80
80
80
80
80
ENDCHAR
STARTCHAR 4E2A
ENCODING 20010
SWIDTH 900 0
DWIDTH 15 0
BBX 10 14 3 -1
BITMAP
0800
1000
1000
2300
40C0
8000
0800
0800
0800
0800
0800
0800
0800
0800
ENDCHAR
STARTCHAR 4E2B
ENCODING 20011
SWIDTH 900 0
DWIDTH 15 0
BBX 11 14 2 -1
BITMAP
0020
8040
6080
1100
0000
0400
0400
0400
0400
0400
0400
0400
0400
0400
ENDCHAR
STARTCHAR 4E2C
ENCODING 20012
SWIDTH 900 0
DWIDTH 15 0
BBX 5 15 5 -1
BITMAP
08
08
08
08
C8
08
08
08
08
28
C8
08
08
08
08
ENDCHAR
STARTCHAR 4E2D
ENCODING 20013
SWIDTH 900 0
DWIDTH 15 0
BBX 11 15 2 -1
BITMAP
0400
0400
0400
0400
FFE0
8420
8420
8420
FFE0
0400
0400
0400
0400
0400
0400
ENDCHAR
STARTCHAR 4E30
ENCODING 20016
SWIDTH 900 0
DWIDTH 15 0
BBX 11 14 2 -1
BITMAP
0400
0400
7FC0
0400
0400
0400
3F00
0400
0400
0400
FFE0
0400
0400
0400
ENDCHAR
STARTCHAR 4E32
ENCODING 20018
SWIDTH 900 0
DWIDTH 15 0
BBX 11 15 2 -1
BITMAP
0400
0400
7F80
4480
4480
7F80
0400
FFE0
8420
8420
8420
FFE0
0400
0400
0400
ENDCHAR
STARTCHAR 4E34
ENCODING 20020
SWIDTH 960 0
DWIDTH 16 0
BBX 12 14 2 0
BITMAP
1200
1200
16F0
1400
9400
9080
9060
9000
97F0
9490
1490
1490
1410
17F0
ENDCHAR
STARTCHAR 4E36
ENCODING 20022
SWIDTH 900 0
DWIDTH 15 0
BBX 3 3 6 5
BITMAP
80
40
20
ENDCHAR
STARTCHAR 4E38
ENCODING 20024
SWIDTH 900 0
DWIDTH 15 0
BBX 11 15 2 -1
BITMAP
0800
0800
0800
7F00
0900
1900
1100
1100
7100
3900
2100
2120
41E0
4000
8000
ENDCHAR
STARTCHAR 4E39
ENCODING 20025
SWIDTH 840 0
DWIDTH 14 0
BBX 12 14 1 0
BITMAP
1F80
1080
1080
1480
1080
1080
FFF0
2080
2080
2080
2080
2180
4000
4000
ENDCHAR
STARTCHAR 4E3A
ENCODING 20026
SWIDTH 900 0
DWIDTH 15 0
BBX 10 15 2 -2
BITMAP
0800
0800
4800
2800
0800
FFC0
1040
1040
1640
1240
2040
2040
2040
40C0
4000
ENDCHAR
STARTCHAR 4E3B
ENCODING 20027
SWIDTH 840 0
DWIDTH 14 0
BBX 10 14 2 0
BITMAP
0400
0400
0000
7FC0
0000
0400
0400
0400
3F00
0400
0400
0400
0000
FFC0
ENDCHAR
STARTCHAR 4E3D
ENCODING 20029
SWIDTH 960 0
DWIDTH 16 0
BBX 12 14 2 -2
BITMAP
FFF0
0000
0000
7AE0
4A20
4A20
6AA0
6AA0
4A20
4A20
4A20
4A20
5A20
0260
ENDCHAR
STARTCHAR 4E3E
ENCODING 20030
SWIDTH 960 0
DWIDTH 16 0
BBX 12 15 2 -1
BITMAP
0040
2480
0000
FFE0
0000
1000
34C0
6400
8F80
0400
0400
FFF0
0400
0400
0400
ENDCHAR
STARTCHAR 4E3F
ENCODING 20031
SWIDTH 900 0
DWIDTH 15 0
BBX 3 14 6 -2
BITMAP
20
20
20
20
20
20
40
40
40
40
40
80
80
80
ENDCHAR
STARTCHAR 4E43
ENCODING 20035
SWIDTH 900 0
DWIDTH 15 0
BBX 11 13 2 -2
BITMAP
FF80
0100
0100
2200
23E0
2020
2020
2020
4020
4020
4020
8060
8000
ENDCHAR
STARTCHAR 4E45
ENCODING 20037
SWIDTH 900 0
DWIDTH 15 0
BBX 12 15 1 -1
BITMAP
1000
1000
2000
2000
4F80
4100
0100
0300
0200
0400
0C00
08C0
1030
6000
8000
ENDCHAR
STARTCHAR 4E47
ENCODING 20039
SWIDTH 900 0
DWIDTH 15 0
BBX 11 14 2 0
BITMAP
07C0
7C00
0400
0400
0400
0400
FFE0
0400
0400
0400
0400
0400
0400
07E0
ENDCHAR
STARTCHAR 4E48
ENCODING 20040
SWIDTH 900 0
DWIDTH 15 0
BBX 11 12 2 1
BITMAP
0800
1000
2000
2000
4400
8400
0800
0800
1000
1040
2360
3C00
ENDCHAR
STARTCHAR 4E49
ENCODING 20041
SWIDTH 900 0
DWIDTH 15 0
BBX 11 13 2 0
BITMAP
0880
0480
0100
2100
1200
0A00
0600
0B00
0880
1060
2000
4000
8000
ENDCHAR
STARTCHAR 4E4B
ENCODING 20043
SWIDTH 900 0
DWIDTH 15 0
BBX 11 14 2 1
BITMAP
0400
0400
0000
7F80
0080
0100
0300
0600
0400
0800
1000
6000
D800
8FE0
ENDCHAR
STARTCHAR 4E4C
ENCODING 20044
SWIDTH 900 0
DWIDTH 15 0
BBX 11 15 2 0
BITMAP
0400
0000
1F80
1080
1080
1080
1180
1000
1FE0
0020
0020
FE20
0020
0020
0020
ENDCHAR
STARTCHAR 4E4D
ENCODING 20045
SWIDTH 900 0
DWIDTH 15 0
BBX 11 15 2 -1
BITMAP
2000
6000
4FE0
C000
8000
0800
09C0
0800
0800
09C0
0800
0800
0800
0800
0800
ENDCHAR
STARTCHAR 4E4E
ENCODING 20046
SWIDTH 900 0
DWIDTH 15 0
BBX 11 14 2 -2
BITMAP
0380
7F00
0000
0400
0440
2480
0400
FFE0
0400
0400
0400
0400
0400
0C00
ENDCHAR
STARTCHAR 4E4F
ENCODING 20047
SWIDTH 900 0
DWIDTH 15 0
BBX 10 14 3 0
BITMAP
0180
FE00
0000
0800
0800
FF00
0100
0600
0C00
1800
3000
6000
9000
0FC0
ENDCHAR
STARTCHAR 4E50
ENCODING 20048
SWIDTH 900 0
DWIDTH 15 0
BBX 12 15 1 -2
BITMAP
01C0
1E00
0000
2000
2200
2200
2200
3FE0
0200
0200
0200
6230
8200
0200
0600
ENDCHAR
STARTCHAR 4E52
ENCODING 20050
SWIDTH 960 0
DWIDTH 16 0
BBX 12 14 2 -1
BITMAP
0F00
2000
2000
2000
2FC0
2000
2100
2100
2100
0000
FFF0
0000
1000
2000
ENDCHAR
STARTCHAR 4E53
ENCODING 20051
SWIDTH 960 0
DWIDTH 16 0
BBX 12 15 2 -1
BITMAP
0080
0F00
2000
2000
2000
2FC0
2000
2100
2100
2100
0000
FFF0
0000
0080
0060
ENDCHAR
STARTCHAR 4E54
ENCODING 20052
SWIDTH 900 0
DWIDTH 15 0
BBX 11 14 2 0
BITMAP
3F00
0400
0400
0400
FFE0
1800
31C0
4020
1100
1100
1100
3100
2100
4100
ENDCHAR
STARTCHAR 4E56
ENCODING 20054
SWIDTH 960 0
DWIDTH 16 0
BBX 12 15 2 -1
BITMAP
01C0
3E00
0400
0400
FFF0
0400
1400
14A0
D480
14A0
D4E0
1400
1400
0400
0400
ENDCHAR
STARTCHAR 4E58
ENCODING 20056
SWIDTH 960 0
DWIDTH 16 0
BBX 12 15 2 -1
BITMAP
0180
3F00
0400
0400
FFF0
1400
14B0
74E0
14A0
74E0
1400
0400
0440
6440
0400
ENDCHAR
STARTCHAR 4E59
ENCODING 20057
SWIDTH 900 0
DWIDTH 15 0
BBX 11 12 2 0
BITMAP
FF80
0180
0100
0200
0400
0800
1800
1000
2000
4000
8020
FFE0
ENDCHAR
STARTCHAR 4E5C
ENCODING 20060
SWIDTH 960 0
DWIDTH 16 0
BBX 12 14 2 0
BITMAP
2000
2000
2000
21C0
3E40
E040
2040
2040
2040
20C0
2000
2000
2010
3FF0
ENDCHAR
STARTCHAR 4E5D
ENCODING 20061
SWIDTH 900 0
DWIDTH 15 0
BBX 11 15 2 -1
BITMAP
1000
1000
1000
1000
FF00
1100
2100
2100
2100
2100
4100
4120
41E0
8000
8000
ENDCHAR
STARTCHAR 4E5E
ENCODING 20062
SWIDTH 840 0
DWIDTH 14 0
BBX 10 14 2 1
BITMAP
2000
4000
5FC0
8000
0000
0000
3F00
0100
0200
0400
0800
1000
2040
3FC0
ENDCHAR
STARTCHAR 4E5F
ENCODING 20063
SWIDTH 900 0
DWIDTH 15 0
BBX 10 14 3 0
BITMAP
0800
0800
4800
4800
4F80
F880
4880
4880
4880
4980
4800
4000
4040
7FC0
ENDCHAR
STARTCHAR 4E60
ENCODING 20064
SWIDTH 900 0
DWIDTH 15 0
BBX 9 13 3 -1
BITMAP
FF80
0080
0080
0080
6080
1080
0080
0880
7080
8080
0080
0080
0180
ENDCHAR
STARTCHAR 4E61
ENCODING 20065
SWIDTH 960 0
DWIDTH 16 0
BBX 10 14 3 0
BITMAP
2000
2000
4200
F400
0C00
0800
1040
2080
3900
0200
0400
1800
3000
C000
ENDCHAR
STARTCHAR 4E66
ENCODING 20070
SWIDTH 900 0
DWIDTH 15 0
BBX 11 15 2 -1
BITMAP
0800
0840
0820
7F00
0900
0900
0900
0800
FFE0
0820
0820
0820
0860
0800
0800
ENDCHAR
STARTCHAR 4E69
ENCODING 20073
SWIDTH 900 0
DWIDTH 15 0
BBX 13 14 1 0
BITMAP
2000
2080
2080
2E80
2080
2080
2080
0080
FC80
8480
8480
8488
84F8
FC00
ENDCHAR
STARTCHAR 4E70
ENCODING 20080
SWIDTH 960 0
DWIDTH 16 0
BBX 12 14 2 -2
BITMAP
7FE0
0020
0220
1200
0200
6200
0200
0400
FFF0
0400
0800
18C0
1000
2000
ENDCHAR
STARTCHAR 4E71
ENCODING 20081
SWIDTH 900 0
DWIDTH 15 0
BBX 13 13 1 0
BITMAP
0480
7880
1080
1080
1080
FE80
1080
0080
0080
7C80
4488
44F8
7C00
ENDCHAR
STARTCHAR 4E73
ENCODING 20083
SWIDTH 900 0
DWIDTH 15 0
BBX 13 13 1 0
BITMAP
7C80
0080
9480
5480
0080
7880
0880
1080
1C80
F080
1088
30F8
1000
ENDCHAR
STARTCHAR 4E7E
ENCODING 20094
SWIDTH 900 0
DWIDTH 15 0
BBX 13 13 1 1
BITMAP
1080
1100
FD78
1000
7C00
4400
75F0
7C20
1060
FE40
1080
1108
11F8
ENDCHAR
STARTCHAR 4E86
ENCODING 20102
SWIDTH 900 0
DWIDTH 15 0
BBX 9 14 3 -2
BITMAP
FF80
0180
0300
0600
0400
0800
0800
0800
0800
0800
0800
0800
0800
1800
ENDCHAR
STARTCHAR 4E88
ENCODING 20104
SWIDTH 900 0
DWIDTH 15 0
BBX 11 15 2 -2
BITMAP
7F80
0100
0100
1200
0C00
0200
FFE0
0020
0420
0400
0400
0400
0400
0400
0C00
ENDCHAR
STARTCHAR 4E89
ENCODING 20105
SWIDTH 840 0
DWIDTH 14 0
BBX 12 16 1 -3
BITMAP
1000
3000
6780
4100
0000
3F80
0080
0480
FFF0
0480
3F80
0400
0400
0400
0400
0C00
ENDCHAR
STARTCHAR 4E8B
ENCODING 20107
SWIDTH 960 0
DWIDTH 16 0
BBX 12 15 2 -1
BITMAP
0200
7FE0
0200
1F80
1280
1F80
0200
1FC0
0240
FFF0
0240
1FC0
0200
0200
0600
ENDCHAR
STARTCHAR 4E8C
ENCODING 20108
SWIDTH 900 0
DWIDTH 15 0
BBX 11 12 2 0
BITMAP
7FC0
0000
0000
0000
0000
0000
0000
0000
0000
0000
0000
FFE0
ENDCHAR
STARTCHAR 4E8D
ENCODING 20109
SWIDTH 960 0
DWIDTH 16 0
BBX 12 14 2 -2
BITMAP
3FC0
0000
0000
0000
0000
FFF0
0000
0200
0200
0200
0200
0200
0200
0600
ENDCHAR
STARTCHAR 4E8E
ENCODING 20110
SWIDTH 900 0
DWIDTH 15 0
BBX 11 13 2 -2
BITMAP
7F80
0000
0400
0400
0400
FFE0
0400
0400
0400
0400
0400
0400
0C00
ENDCHAR
STARTCHAR 4E8F
ENCODING 20111
SWIDTH 960 0
DWIDTH 16 0
BBX 12 14 2 -2
BITMAP
3F80
0000
0000
0000
FFF0
0000
1000
1000
1FC0
0040
0040
0040
0040
00C0
ENDCHAR
STARTCHAR 4E91
ENCODING 20113
SWIDTH 900 0
DWIDTH 15 0
BBX 11 12 2 -1
BITMAP
7F80
0000
0000
0000
0000
FFE0
0000
1000
2000
2100
4080
7800
ENDCHAR
STARTCHAR 4E92
ENCODING 20114
SWIDTH 900 0
DWIDTH 15 0
BBX 11 12 2 0
BITMAP
7FE0
0000
1000
1780
1080
2180
2100
3D00
0100
0200
0000
FFE0
ENDCHAR
STARTCHAR 4E93
ENCODING 20115
SWIDTH 900 0
DWIDTH 15 0
BBX 11 14 2 -1
BITMAP
7F80
0000
0000
0000
0000
FFE0
0100
2100
2100
2100
4100
4100
4100
0100
ENDCHAR
STARTCHAR 4E94
ENCODING 20116
SWIDTH 900 0
DWIDTH 15 0
BBX 11 12 2 0
BITMAP
7FE0
0000
0000
0800
3F80
0880
0880
1080
1080
1080
0000
FFE0
ENDCHAR
STARTCHAR 4E95
ENCODING 20117
SWIDTH 840 0
DWIDTH 14 0
BBX 12 14 1 -1
BITMAP
0100
0900
0900
0900
3FE0
0900
0900
0900
FFF0
1100
1100
1100
1100
0100
ENDCHAR
STARTCHAR 4E98
ENCODING 20120
SWIDTH 900 0
DWIDTH 15 0
BBX 12 13 1 0
BITMAP
7FE0
0000
0000
1F80
1080
1080
1E80
1080
1080
1F80
0000
0000
FFF0
ENDCHAR
STARTCHAR 4E9A
ENCODING 20122
SWIDTH 960 0
DWIDTH 16 0
BBX 12 13 2 0
BITMAP
7FE0
0000
0A00
0A00
0A00
4A60
6A80
2A00
0A00
0A00
0A00
0000
FFF0
ENDCHAR
STARTCHAR 4E9B
ENCODING 20123
SWIDTH 900 0
DWIDTH 15 0
BBX 11 14 2 -1
BITMAP
1100
1100
5120
5D00
5100
5100
5100
0DE0
F000
0000
3FC0
0000
0000
FFE0
ENDCHAR
STARTCHAR 4E9F
ENCODING 20127
SWIDTH 900 0
DWIDTH 15 0
BBX 12 15 1 -1
BITMAP
3FC0
00C0
0100
0600
0400
F4F0
9410
94E0
F470
0440
0580
0400
0C00
0000
FFF0
ENDCHAR
STARTCHAR 4EA0
ENCODING 20128
SWIDTH 960 0
DWIDTH 16 0
BBX 12 3 2 11
BITMAP
0400
0400
FFF0
ENDCHAR
STARTCHAR 4EA1
ENCODING 20129
SWIDTH 900 0
DWIDTH 15 0
BBX 11 14 2 0
BITMAP
0400
0400
0000
FFE0
0000
0000
2000
2000
2000
2000
2000
2000
2000
3FC0
ENDCHAR
STARTCHAR 4EA2
ENCODING 20130
SWIDTH 960 0
DWIDTH 16 0
BBX 12 15 2 -2
BITMAP
0400
0400
0000
FFF0
0000
0000
1780
1080
1080
2080
2080
20A0
20F0
4000
4000
ENDCHAR
STARTCHAR 4EA4
ENCODING 20132
SWIDTH 900 0
DWIDTH 15 0
BBX 11 15 2 -2
BITMAP
0400
0400
0000
FFE0
0000
0080
2040
4100
0300
0A00
0400
0B00
10C0
2000
4000
ENDCHAR
STARTCHAR 4EA5
ENCODING 20133
SWIDTH 900 0
DWIDTH 15 0
BBX 11 14 2 -2
BITMAP
0400
0400
FFE0
0000
1100
2300
3A00
0480
0900
1100
6200
0400
08E0
3000
ENDCHAR
STARTCHAR 4EA6
ENCODING 20134
SWIDTH 900 0
DWIDTH 15 0
BBX 11 14 2 -1
BITMAP
0400
0400
0000
FFE0
0000
0200
0200
1200
D200
9260
1200
2200
2200
4600
ENDCHAR
STARTCHAR 4EA7
ENCODING 20135
SWIDTH 960 0
DWIDTH 16 0
BBX 12 15 2 -2
BITMAP
0200
0200
7FF0
0000
0880
0000
3FE0
2000
2000
2000
2000
4000
4000
4000
8000
ENDCHAR
STARTCHAR 4EA8
ENCODING 20136
SWIDTH 900 0
DWIDTH 15 0
BBX 11 16 2 -2
BITMAP
0400
0400
FFE0
0000
1F00
1100
1F00
0000
0000
3F80
0100
0200
0400
0400
0400
0400
ENDCHAR
STARTCHAR 4EA9
ENCODING 20137
SWIDTH 840 0
DWIDTH 14 0
BBX 12 15 1 -1
BITMAP
0200
0200
0000
FFF0
0000
0000
3FC0
2040
2240
2240
2FC0
2240
2040
2040
3FC0
ENDCHAR
STARTCHAR 4EAB
ENCODING 20139
SWIDTH 960 0
DWIDTH 16 0
BBX 12 15 2 -1
BITMAP
0400
0400
FFE0
0000
1F00
1100
1F00
0000
1F80
0100
0200
FFF0
0400
0400
0C00
ENDCHAR
STARTCHAR 4EAC
ENCODING 20140
SWIDTH 900 0
DWIDTH 15 0
BBX 11 15 2 -2
BITMAP
0400
0400
FFE0
0000
1F00
1100
1100
1100
1F00
0000
0400
6440
C400
0400
0400
ENDCHAR
STARTCHAR 4EAD
ENCODING 20141
SWIDTH 900 0
DWIDTH 15 0
BBX 11 16 2 -3
BITMAP
0400
0400
FFC0
0000
1F00
1100
1F00
0000
BFE0
8020
9F20
0000
0400
0400
0400
0400
ENDCHAR
STARTCHAR 4EAE
ENCODING 20142
SWIDTH 840 0
DWIDTH 14 0
BBX 10 16 2 -1
BITMAP
0400
0400
0000
FFC0
1F00
1100
1F00
0000
FFC0
8040
9E40
1200
1200
1200
2380
6000
ENDCHAR
STARTCHAR 4EB2
ENCODING 20146
SWIDTH 900 0
DWIDTH 15 0
BBX 11 15 2 -2
BITMAP
0400
0400
7FC0
0000
1100
0000
FFE0
0000
0400
7FC0
0400
2480
4460
8400
0C00
ENDCHAR
STARTCHAR 4EB3
ENCODING 20147
SWIDTH 960 0
DWIDTH 16 0
BBX 12 16 2 -2
BITMAP
0400
0400
7FE0
0000
1F00
1100
1F00
BFF0
8010
8310
1C00
0400
7FE0
0400
0480
07C0
ENDCHAR
STARTCHAR 4EB5
ENCODING 20149
SWIDTH 900 0
DWIDTH 15 0
BBX 11 16 2 -2
BITMAP
0400
0400
0000
FFE0
2200
7FC0
2240
7440
6740
6400
1080
2100
4000
2100
20C0
3800
ENDCHAR
STARTCHAR 4EBA
ENCODING 20154
SWIDTH 900 0
DWIDTH 15 0
BBX 9 12 3 0
BITMAP
0800
0800
0800
1000
1000
1000
2000
2000
2000
4380
4000
8000
ENDCHAR
STARTCHAR 4EBB
ENCODING 20155
SWIDTH 900 0
DWIDTH 15 0
BBX 4 11 1 1
BITMAP
10
20
40
80
20
20
20
20
20
20
20
ENDCHAR
STARTCHAR 4EBF
ENCODING 20159
SWIDTH 900 0
DWIDTH 15 0
BBX 12 11 1 1
BITMAP
17E0
2020
4060
8040
2080
2080
2100
2100
2200
2410
27F0
ENDCHAR
STARTCHAR 4EC0
ENCODING 20160
SWIDTH 900 0
DWIDTH 15 0
BBX 12 12 1 0
BITMAP
1080
2080
4080
8080
2080
27F0
2080
2080
2080
2080
2080
2080
ENDCHAR
STARTCHAR 4EC1
ENCODING 20161
SWIDTH 900 0
DWIDTH 15 0
BBX 12 12 1 0
BITMAP
1000
63F0
8000
0000
2000
2000
2000
2000
2000
2000
27F0
2000
ENDCHAR
STARTCHAR 4EC2
ENCODING 20162
SWIDTH 900 0
DWIDTH 15 0
BBX 11 15 2 -1
BITMAP
0200
0200
2200
4200
8FE0
0220
4220
4220
4420
4420
4420
4460
4400
0800
0800
ENDCHAR
STARTCHAR 4EC3
ENCODING 20163
SWIDTH 900 0
DWIDTH 15 0
BBX 11 13 2 -1
BITMAP
07E0
2000
4080
8080
0080
4080
4080
4080
4080
4080
4080
4180
0180
ENDCHAR
STARTCHAR 4EC4
ENCODING 20164
SWIDTH 900 0
DWIDTH 15 0
BBX 12 13 2 -2
BITMAP
7FF0
0000
4000
4080
4100
4100
4100
4100
4200
8200
8460
8400
0800
ENDCHAR
STARTCHAR 4EC5
ENCODING 20165
SWIDTH 900 0
DWIDTH 15 0
BBX 13 10 1 1
BITMAP
37E0
6020
8020
2240
21C0
20C0
20B0
2108
2200
2400
ENDCHAR
STARTCHAR 4EC6
ENCODING 20166
SWIDTH 900 0
DWIDTH 15 0
BBX 13 14 1 0
BITMAP
0080
0080
1080
2080
4080
8080
20B0
2098
2080
2080
2080
2080
2080
0080
ENDCHAR
STARTCHAR 4EC7
ENCODING 20167
SWIDTH 900 0
DWIDTH 15 0
BBX 12 14 2 -1
BITMAP
0200
0200
2200
4200
8FC0
0240
4240
4440
4440
4440
4850
4870
5000
1000
ENDCHAR
STARTCHAR 4EC9
ENCODING 20169
SWIDTH 900 0
DWIDTH 15 0
BBX 12 14 2 -2
BITMAP
27C0
6440
C440
8440
0440
4440
4440
4440
4840
4840
4850
4870
1000
1000
ENDCHAR
STARTCHAR 4ECA
ENCODING 20170
SWIDTH 900 0
DWIDTH 15 0
BBX 11 14 2 1
BITMAP
0400
0800
1000
30E0
4400
8400
0000
3F80
0080
0180
0100
0300
0200
0400
ENDCHAR
STARTCHAR 4ECB
ENCODING 20171
SWIDTH 900 0
DWIDTH 15 0
BBX 11 15 2 -1
BITMAP
0400
0800
0800
1180
2060
C000
0100
1100
1100
1100
1100
2100
2100
0100
0100
ENDCHAR
STARTCHAR 4ECD
ENCODING 20173
SWIDTH 900 0
DWIDTH 15 0
BBX 12 14 2 -2
BITMAP
0FC0
2040
4040
8080
04F0
4410
4410
4410
4410
4810
4810
4830
1000
1000
ENDCHAR
STARTCHAR 4ECE
ENCODING 20174
SWIDTH 900 0
DWIDTH 15 0
BBX 11 13 2 -2
BITMAP
1080
1080
1080
1080
1080
2100
2D00
2100
2100
4240
4220
4200
8400
ENDCHAR
STARTCHAR 4ED1
ENCODING 20177
SWIDTH 900 0
DWIDTH 15 0
BBX 11 14 2 1
BITMAP
0400
0C00
1800
30E0
6000
8000
1000
1080
1300
1000
1000
1000
1040
1FC0
ENDCHAR
STARTCHAR 4ED3
ENCODING 20179
SWIDTH 900 0
DWIDTH 15 0
BBX 11 14 2 0
BITMAP
0400
0400
0800
10E0
6000
8000
1780
1080
1080
1180
1000
1000
1020
1FE0
ENDCHAR
STARTCHAR 4ED4
ENCODING 20180
SWIDTH 900 0
DWIDTH 15 0
BBX 13 12 1 0
BITMAP
03F0
3020
6040
8080
2080
27F8
2080
2080
2080
2080
2080
0080
ENDCHAR
STARTCHAR 4ED5
ENCODING 20181
SWIDTH 900 0
DWIDTH 15 0
BBX 13 12 1 0
BITMAP
1040
2040
4040
8040
03F8
2040
2040
2040
2040
2040
2000
23F0
ENDCHAR
STARTCHAR 4ED6
ENCODING 20182
SWIDTH 900 0
DWIDTH 15 0
BBX 13 12 1 0
BITMAP
0080
1280
2280
42F0
8F90
2290
2290
22B0
2280
2200
2208
23F8
ENDCHAR
STARTCHAR 4ED7
ENCODING 20183
SWIDTH 900 0
DWIDTH 15 0
BBX 13 13 1 0
BITMAP
0020
1020
2060
47F8
8040
2040
2040
2380
20C0
21A0
2100
2200
0200
ENDCHAR
STARTCHAR 4ED8
ENCODING 20184
SWIDTH 900 0
DWIDTH 15 0
BBX 13 11 1 0
BITMAP
1020
2020
4020
87F8
2020
2020
2120
20A0
2020
2020
2060
ENDCHAR
STARTCHAR 4ED9
ENCODING 20185
SWIDTH 900 0
DWIDTH 15 0
BBX 12 12 2 0
BITMAP
0080
2080
4080
8080
0080
4890
4890
4890
4890
4810
4810
4FF0
ENDCHAR
STARTCHAR 4EDD
ENCODING 20189
SWIDTH 900 0
DWIDTH 15 0
BBX 11 13 2 1
BITMAP
0400
0C00
0800
10E0
6000
8000
1F80
0400
0400
0400
0400
0000
7FE0
ENDCHAR
STARTCHAR 4EDE
ENCODING 20190
SWIDTH 840 0
DWIDTH 14 0
BBX 11 13 2 -1
BITMAP
0FE0
2020
4020
8220
0220
4A20
5220
4420
4420
4420
4820
4860
0800
ENDCHAR
STARTCHAR 4EDF
ENCODING 20191
SWIDTH 900 0
DWIDTH 15 0
BBX 12 12 1 0
BITMAP
11E0
3200
6000
8080
2080
27F0
2080
2080
2080
2080
2080
0080
ENDCHAR
STARTCHAR 4EE1
ENCODING 20193
SWIDTH 900 0
DWIDTH 15 0
BBX 13 14 1 1
BITMAP
0100
0200
1200
34F8
6000
8000
2000
23F0
2030
2060
20C0
2080
2108
03F8
ENDCHAR
STARTCHAR 4EE3
ENCODING 20195
SWIDTH 900 0
DWIDTH 15 0
BBX 12 13 1 1
BITMAP
0200
1240
2240
4100
8100
01F0
2F00
2080
2080
2040
2040
2020
2010
ENDCHAR
STARTCHAR 4EE4
ENCODING 20196
SWIDTH 900 0
DWIDTH 15 0
BBX 11 15 2 -1
BITMAP
0400
0800
0800
1180
2060
C400
0400
0000
3F80
0080
0100
0200
1000
0C00
0200
ENDCHAR
STARTCHAR 4EE5
ENCODING 20197
SWIDTH 900 0
DWIDTH 15 0
BBX 11 13 2 -1
BITMAP
0100
0100
8100
8100
9100
8A00
8200
8200
8200
8480
C460
0400
0800
ENDCHAR
STARTCHAR 4EE8
ENCODING 20200
SWIDTH 900 0
DWIDTH 15 0
BBX 12 11 1 1
BITMAP
17E0
2000
4000
8000
2000
23E0
2000
2000
2000
2000
27F0
ENDCHAR
STARTCHAR 4EEA
ENCODING 20202
SWIDTH 840 0
DWIDTH 14 0
BBX 12 11 1 0
BITMAP
1100
2120
4020
8040
2040
2340
2180
20E0
2110
2100
2200
ENDCHAR
STARTCHAR 4EEB
ENCODING 20203
SWIDTH 900 0
DWIDTH 15 0
BBX 13 11 1 2
BITMAP
1200
2240
4440
8880
2080
2100
2120
2210
23C8
2700
2000
ENDCHAR
STARTCHAR 4EEC
ENCODING 20204
SWIDTH 900 0
DWIDTH 15 0
BBX 13 14 1 -1
BITMAP
0400
04F8
3008
2008
4408
8408
2408
2408
2408
2408
2408
2408
2408
0018
ENDCHAR
STARTCHAR 4EEE
ENCODING 20206
SWIDTH 900 0
DWIDTH 15 0
BBX 13 13 1 -2
BITMAP
02F0
1200
3200
6200
C200
23F0
2210
2410
24A0
2460
2458
2880
0100
ENDCHAR
STARTCHAR 4EF0
ENCODING 20208
SWIDTH 900 0
DWIDTH 15 0
BBX 14 13 0 1
BITMAP
0180
123C
3404
6404
C424
2424
2424
2424
272C
2020
2020
2020
0020
ENDCHAR
STARTCHAR 4EF2
ENCODING 20210
SWIDTH 960 0
DWIDTH 16 0
BBX 11 14 3 0
BITMAP
0100
0100
2100
4100
8FE0
0920
4920
4920
4FE0
4100
4100
4100
4100
0100
ENDCHAR
STARTCHAR 4EF3
ENCODING 20211
SWIDTH 900 0
DWIDTH 15 0
BBX 13 13 1 0
BITMAP
0440
1440
2440
4440
8448
25D0
2440
2440
2440
2440
2440
27C8
0778
ENDCHAR
STARTCHAR 4EF5
ENCODING 20213
SWIDTH 900 0
DWIDTH 15 0
BBX 13 13 1 1
BITMAP
0200
12F0
2400
4400
8040
2040
27F8
2040
2040
2040
2040
2040
0040
ENDCHAR
STARTCHAR 4EF6
ENCODING 20214
SWIDTH 900 0
DWIDTH 15 0
BBX 11 14 2 0
BITMAP
0100
0100
2500
4D00
CBE0
8900
0100
4100
5FE0
4100
4100
4100
4100
4100
ENDCHAR
STARTCHAR 4EF7
ENCODING 20215
SWIDTH 900 0
DWIDTH 15 0
BBX 12 15 1 -1
BITMAP
0080
0080
1100
2300
4200
8410
2000
2000
2220
2220
2220
2220
2420
0420
0020
ENDCHAR
STARTCHAR 4EFB
ENCODING 20219
SWIDTH 900 0
DWIDTH 15 0
BBX 13 13 1 1
BITMAP
00E0
0380
1000
2080
4080
8080
27F8
2080
2080
2080
2080
2080
27F0
ENDCHAR
STARTCHAR 4EFD
ENCODING 20221
SWIDTH 840 0
DWIDTH 14 0
BBX 11 14 2 0
BITMAP
0100
0180
20C0
4840
8820
1000
4000
4FC0
4040
4440
4440
4440
48C0
0800
ENDCHAR
STARTCHAR 4EFF
ENCODING 20223
SWIDTH 840 0
DWIDTH 14 0
BBX 12 14 1 -1
BITMAP
0080
0080
1000
27F0
4000
8100
2100
21F0
2110
2210
2210
2210
2430
0400
ENDCHAR
STARTCHAR 4F01
ENCODING 20225
SWIDTH 900 0
DWIDTH 15 0
BBX 11 14 2 1
BITMAP
0400
0C00
1800
31C0
6000
C000
0200
2200
22C0
2200
2200
2200
2200
FFE0
ENDCHAR
STARTCHAR 4F09
ENCODING 20233
SWIDTH 900 0
DWIDTH 15 0
BBX 13 13 1 -1
BITMAP
0080
0080
1000
37F0
6000
8200
22E0
2220
2220
2220
2428
2438
2400
ENDCHAR
STARTCHAR 4F0A
ENCODING 20234
SWIDTH 900 0
DWIDTH 15 0
BBX 13 13 1 -2
BITMAP
07F0
1010
2110
4FF8
8110
2110
27F0
2200
2200
2200
2200
2400
0400
ENDCHAR
STARTCHAR 4F0D
ENCODING 20237
SWIDTH 900 0
DWIDTH 15 0
BBX 12 12 2 0
BITMAP
07F0
6000
C100
8100
0200
4FE0
4220
4220
4220
4220
4000
4FF0
ENDCHAR
STARTCHAR 4F0E
ENCODING 20238
SWIDTH 900 0
DWIDTH 15 0
BBX 12 14 1 -1
BITMAP
0080
0080
1080
37F0
6080
8080
2000
23E0
2020
2160
20C0
20A0
2300
0400
ENDCHAR
STARTCHAR 4F0F
ENCODING 20239
SWIDTH 900 0
DWIDTH 15 0
BBX 13 14 1 -2
BITMAP
0080
1080
30A0
60A0
40A0
8100
27F8
2100
2100
2100
2170
2208
2200
0200
ENDCHAR
STARTCHAR 4F10
ENCODING 20240
SWIDTH 900 0
DWIDTH 15 0
BBX 13 14 1 0
BITMAP
0200
0120
0120
2100
4100
8100
2FF0
2080
2090
2060
20C0
23A0
2C38
0018
ENDCHAR
STARTCHAR 4F11
ENCODING 20241
SWIDTH 900 0
DWIDTH 15 0
BBX 13 13 1 0
BITMAP
0080
1080
2080
4080
87F0
2080
20A0
2290
2488
2080
2080
2080
0080
ENDCHAR
STARTCHAR 4F17
ENCODING 20247
SWIDTH 840 0
DWIDTH 14 0
BBX 10 15 2 0
BITMAP
0800
0800
1000
2380
40C0
8000
2100
2100
4100
4200
5A00
4280
8440
8400
0400
ENDCHAR
STARTCHAR 4F18
ENCODING 20248
SWIDTH 960 0
DWIDTH 16 0
BBX 13 12 2 0
BITMAP
0200
2220
4220
8200
0FF0
4200
4200
4440
4440
4440
4450
4478
ENDCHAR
STARTCHAR 4F19
ENCODING 20249
SWIDTH 900 0
DWIDTH 15 0
BBX 13 13 1 0
BITMAP
0080
1080
2080
4080
8490
2100
2100
2100
2100
2230
2208
2200
0400
ENDCHAR
STARTCHAR 4F1A
ENCODING 20250
SWIDTH 900 0
DWIDTH 15 0
BBX 10 14 3 0
BITMAP
0400
0800
0800
1000
61C0
8000
1E00
0000
0000
FFC0
0000
1100
2100
3C80
ENDCHAR
STARTCHAR 4F1B
ENCODING 20251
SWIDTH 900 0
DWIDTH 15 0
BBX 12 11 1 1
BITMAP
17F0
2400
4400
8420
24E0
2460
2450
2480
2500
2400
27F0
ENDCHAR
STARTCHAR 4F1E
ENCODING 20254
SWIDTH 900 0
DWIDTH 15 0
BBX 11 14 2 0
BITMAP
0800
0800
1100
20E0
C400
0400
0480
2400
0400
FFE0
0400
0400
0400
0400
ENDCHAR
STARTCHAR 4F1F
ENCODING 20255
SWIDTH 840 0
DWIDTH 14 0
BBX 12 14 1 -1
BITMAP
0080
0080
37E0
6080
83E0
2080
2080
2FF0
2090
2090
2090
2090
0080
0080
ENDCHAR
STARTCHAR 4F20
ENCODING 20256
SWIDTH 900 0
DWIDTH 15 0
BBX 13 13 1 0
BITMAP
0080
0080
13F0
6100
87F8
2100
2100
21F0
2010
2020
2040
2000
00C0
ENDCHAR
STARTCHAR 4F22
ENCODING 20258
SWIDTH 900 0
DWIDTH 15 0
BBX 12 13 2 -1
BITMAP
0FE0
2000
6040
C040
8440
0440
47F0
4040
4240
4240
4440
44C0
48C0
ENDCHAR
STARTCHAR 4F24
ENCODING 20260
SWIDTH 900 0
DWIDTH 15 0
BBX 13 15 1 -2
BITMAP
0200
0400
14F8
2000
4080
8080
2080
27F0
2110
2110
2110
2110
2210
0230
0200
ENDCHAR
STARTCHAR 4F25
ENCODING 20261
SWIDTH 900 0
DWIDTH 15 0
BBX 12 13 2 -1
BITMAP
2230
6260
C280
8200
0200
4FF0
4200
4280
4240
4230
4200
4300
0200
ENDCHAR
STARTCHAR 4F26
ENCODING 20262
SWIDTH 960 0
DWIDTH 16 0
BBX 13 14 1 0
BITMAP
0080
0080
1100
2200
4418
8000
2000
2000
2200
2270
2200
2200
2208
03F8
ENDCHAR
STARTCHAR 4F27
ENCODING 20263
SWIDTH 960 0
DWIDTH 16 0
BBX 14 14 1 1
BITMAP
0040
0080
1100
2230
440C
8000
2000
23F0
2210
2210
2230
2200
2208
03F8
ENDCHAR
STARTCHAR 4F2A
ENCODING 20266
SWIDTH 840 0
DWIDTH 14 0
BBX 12 15 1 0
BITMAP
0080
0080
1480
2080
4080
8FF0
2110
2110
2150
2210
2210
2210
2430
0800
0800
ENDCHAR
STARTCHAR 4F2B
ENCODING 20267
SWIDTH 900 0
DWIDTH 15 0
BBX 13 13 1 0
BITMAP
0040
0040
15F8
2408
4408
8000
2000
2000
2000
2000
2000
2000
27F8
ENDCHAR
STARTCHAR 4F2F
ENCODING 20271
SWIDTH 900 0
DWIDTH 15 0
BBX 11 13 2 0
BITMAP
0080
0100
2000
47E0
8420
0420
4420
4420
47A0
4420
4420
4420
47E0
ENDCHAR
STARTCHAR 4F30
ENCODING 20272
SWIDTH 900 0
DWIDTH 15 0
BBX 12 13 1 0
BITMAP
0080
1080
27F0
4080
8080
2080
2000
23E0
2220
2220
2220
2220
03E0
ENDCHAR
STARTCHAR 4F32
ENCODING 20274
SWIDTH 900 0
DWIDTH 15 0
BBX 12 13 2 -1
BITMAP
0800
2BE0
6820
C820
8BE0
4800
4900
4930
4940
5100
5100
5100
11F0
ENDCHAR
STARTCHAR 4F34
ENCODING 20276
SWIDTH 900 0
DWIDTH 15 0
BBX 13 14 1 0
BITMAP
0080
0080
1290
2080
4080
83F0
2080
2080
27F8
2080
2080
2080
2080
0080
ENDCHAR
STARTCHAR 4F36
ENCODING 20278
SWIDTH 900 0
DWIDTH 15 0
BBX 13 13 1 -1
BITMAP
0080
0080
3100
6220
C218
2480
2080
2000
23E0
2020
2040
2100
00C0
ENDCHAR
STARTCHAR 4F38
ENCODING 20280
SWIDTH 900 0
DWIDTH 15 0
BBX 12 14 1 -1
BITMAP
0080
1080
2080
47F0
8490
2490
27D0
2490
2490
27F0
2080
2080
0080
0080
ENDCHAR
STARTCHAR 4F3A
ENCODING 20282
SWIDTH 840 0
DWIDTH 14 0
BBX 12 13 1 -2
BITMAP
17F0
3010
6010
4010
87D0
2010
2010
27D0
2450
2450
27D0
2010
0030
ENDCHAR
STARTCHAR 4F3C
ENCODING 20284
SWIDTH 900 0
DWIDTH 15 0
BBX 13 14 1 -1
BITMAP
0020
0020
3420
65A0
8420
2420
2440
2440
2440
2450
2648
2080
0080
0080
ENDCHAR
STARTCHAR 4F3D
ENCODING 20285
SWIDTH 900 0
DWIDTH 15 0
BBX 13 14 1 -1
BITMAP
1400
2400
4400
8F00
0500
2538
2528
2528
2528
2928
2910
2B00
0800
1000
ENDCHAR
STARTCHAR 4F43
ENCODING 20291
SWIDTH 900 0
DWIDTH 15 0
BBX 13 11 1 1
BITMAP
17F8
2408
4448
8448
2448
25E8
2448
2448
2448
2408
27F8
ENDCHAR
STARTCHAR 4F46
ENCODING 20294
SWIDTH 900 0
DWIDTH 15 0
BBX 13 12 1 0
BITMAP
13F0
3210
6210
4210
82F0
2210
2210
23F0
2000
2000
2000
27F8
ENDCHAR
STARTCHAR 4F4D
ENCODING 20301
SWIDTH 900 0
DWIDTH 15 0
BBX 13 13 1 0
BITMAP
0040
0040
1000
33F8
6000
8000
2000
2210
2110
2000
2000
2000
27F8
ENDCHAR
STARTCHAR 4F4E
ENCODING 20302
SWIDTH 960 0
DWIDTH 16 0
BBX 13 14 2 0
BITMAP
00F0
23C0
6000
C840
8840
0840
49F0
4840
4820
4820
4E20
4020
4118
0080
ENDCHAR
STARTCHAR 4F4F
ENCODING 20303
SWIDTH 900 0
DWIDTH 15 0
BBX 12 13 2 0
BITMAP
0100
2100
6FE0
C000
8100
0100
4100
47E0
4100
4100
4100
4000
4FF0
ENDCHAR
STARTCHAR 4F50
ENCODING 20304
SWIDTH 900 0
DWIDTH 15 0
BBX 13 13 1 0
BITMAP
0100
1100
3100
27F8
4300
8200
22F0
2400
2400
2840
2040
2040
27F8
ENDCHAR
STARTCHAR 4F51
ENCODING 20305
SWIDTH 900 0
DWIDTH 15 0
BBX 12 14 2 0
BITMAP
0200
0200
2200
6200
CFF0
8400
0400
4400
4800
4BE0
4220
4220
4220
43E0
ENDCHAR
STARTCHAR 4F53
ENCODING 20307
SWIDTH 900 0
DWIDTH 15 0
BBX 12 13 2 0
BITMAP
0100
0100
2100
4100
8FE0
0100
4120
4510
4910
4BC0
4100
4100
4100
ENDCHAR
STARTCHAR 4F55
ENCODING 20309
SWIDTH 900 0
DWIDTH 15 0
BBX 13 13 1 -2
BITMAP
07F8
1000
2000
4010
8010
2790
2490
2490
2490
2790
2010
2010
0030
ENDCHAR
STARTCHAR 4F57
ENCODING 20311
SWIDTH 900 0
DWIDTH 15 0
BBX 12 14 2 0
BITMAP
0080
0080
6FF0
C810
8810
0000
4000
4400
4460
4400
4400
4400
4420
07F0
ENDCHAR
STARTCHAR 4F58
ENCODING 20312
SWIDTH 840 0
DWIDTH 14 0
BBX 12 15 1 -2
BITMAP
0400
0C00
1800
30E0
6000
9F00
0000
0000
7FE0
0000
0200
2240
6230
8200
0600
ENDCHAR
STARTCHAR 4F59
ENCODING 20313
SWIDTH 900 0
DWIDTH 15 0
BBX 10 15 3 -2
BITMAP
0400
0C00
1800
3380
E000
8000
3E00
0000
0400
FFC0
0400
0400
84C0
0400
1C00
ENDCHAR
STARTCHAR 4F5A
ENCODING 20314
SWIDTH 840 0
DWIDTH 14 0
BBX 12 14 1 0
BITMAP
0080
0080
2480
47E0
8880
0180
4100
4FF0
4300
4200
4260
4410
4400
0800
ENDCHAR
STARTCHAR 4F5B
ENCODING 20315
SWIDTH 960 0
DWIDTH 16 0
BBX 13 15 2 -1
BITMAP
0040
0140
0140
2FF0
C150
0FF0
4940
4940
4A40
4FF8
4248
4248
4458
0840
0040
ENDCHAR
STARTCHAR 4F5C
ENCODING 20316
SWIDTH 960 0
DWIDTH 16 0
BBX 14 13 1 0
BITMAP
1200
32FC
6400
C400
2080
20F0
2080
2080
20F0
2080
2080
0080
0080
ENDCHAR
STARTCHAR 4F5D
ENCODING 20317
SWIDTH 840 0
DWIDTH 14 0
BBX 11 14 2 0
BITMAP
0400
0400
2800
6BE0
C020
8020
0020
4F20
4920
4920
4F20
4020
4020
4060
ENDCHAR
STARTCHAR 4F5E
ENCODING 20318
SWIDTH 900 0
DWIDTH 15 0
BBX 13 13 1 -2
BITMAP
01F0
1000
2000
47F0
8000
2080
27F8
2100
2130
21E0
2060
2090
0300
ENDCHAR
STARTCHAR 4F5F
ENCODING 20319
SWIDTH 900 0
DWIDTH 15 0
BBX 13 15 1 -1
BITMAP
0100
0100
12F0
2020
4120
80C0
20F0
2308
2400
20C0
2020
2000
2000
01C0
0020
ENDCHAR
STARTCHAR 4F60
ENCODING 20320
SWIDTH 900 0
DWIDTH 15 0
BBX 12 12 1 0
BITMAP
1200
3400
44F0
8030
2020
2080
2080
2490
2880
2080
2080
2180
ENDCHAR
STARTCHAR 4F63
ENCODING 20323
SWIDTH 900 0
DWIDTH 15 0
BBX 13 13 1 -2
BITMAP
15F8
3408
6408
4488
8488
25E8
2488
2488
25E8
2488
2488
2818
0800
ENDCHAR
STARTCHAR 4F64
ENCODING 20324
SWIDTH 900 0
DWIDTH 15 0
BBX 12 12 1 -1
BITMAP
17F0
3000
6000
8200
22E0
2220
2220
22A0
2220
2220
2220
0330
ENDCHAR
STARTCHAR 4F65
ENCODING 20325
SWIDTH 900 0
DWIDTH 15 0
BBX 11 14 2 1
BITMAP
0400
0800
0800
10E0
6000
8000
1F80
0000
0400
0440
20C0
2080
0000
7FE0
ENDCHAR
STARTCHAR 4F67
ENCODING 20327
SWIDTH 900 0
DWIDTH 15 0
BBX 12 14 2 0
BITMAP
0100
0100
21E0
4100
8100
0000
4FF0
4100
4100
4140
4130
4100
4100
0100
ENDCHAR
STARTCHAR 4F69
ENCODING 20329
SWIDTH 900 0
DWIDTH 15 0
BBX 14 13 0 -1
BITMAP
07F8
1008
3408
67E8
8488
2488
27E8
26A8
26A8
26A8
2AE8
2888
0884
ENDCHAR
STARTCHAR 4F6C
ENCODING 20332
SWIDTH 900 0
DWIDTH 15 0
BBX 13 14 1 0
BITMAP
0080
0080
03E0
2090
40B0
8FF8
20C0
2100
2610
2960
2100
2100
2100
01F8
ENDCHAR
STARTCHAR 4F6F
ENCODING 20335
SWIDTH 900 0
DWIDTH 15 0
BBX 13 14 1 0
BITMAP
0020
0140
1000
27F0
4000
8080
2080
21E0
2080
27F8
2080
2080
2080
0080
ENDCHAR
STARTCHAR 4F70
ENCODING 20336
SWIDTH 900 0
DWIDTH 15 0
BBX 13 12 1 0
BITMAP
03F8
3000
6040
8000
2000
23F0
2210
2210
22D0
2210
2210
03F0
ENDCHAR
STARTCHAR 4F73
ENCODING 20339
SWIDTH 840 0
DWIDTH 14 0
BBX 11 13 2 0
BITMAP
0100
0100
67C0
4100
8100
4FE0
4000
4100
47E0
4100
4100
4100
0FE0
ENDCHAR
STARTCHAR 4F74
ENCODING 20340
SWIDTH 900 0
DWIDTH 15 0
BBX 13 14 1 -1
BITMAP
07F8
1000
3210
62D0
8210
2210
22D0
2210
2210
2078
2790
2010
0010
0010
ENDCHAR
STARTCHAR 4F76
ENCODING 20342
SWIDTH 900 0
DWIDTH 15 0
BBX 13 13 1 0
BITMAP
0080
17F8
2080
4080
8000
23E0
2000
2000
23F0
2210
2210
2210
03F0
ENDCHAR
STARTCHAR 4F7B
ENCODING 20347
SWIDTH 900 0
DWIDTH 15 0
BBX 12 14 2 -1
BITMAP
0200
0200
2280
4280
8AB0
0280
4280
42B0
5C80
4480
4490
44F0
4400
0400
ENDCHAR
STARTCHAR 4F7C
ENCODING 20348
SWIDTH 900 0
DWIDTH 15 0
BBX 12 14 1 -1
BITMAP
0080
0080
0000
37F0
6000
8320
2410
2000
2020
2140
20C0
20E0
2110
0200
ENDCHAR
STARTCHAR 4F7E
ENCODING 20350
SWIDTH 900 0
DWIDTH 15 0
BBX 13 15 1 -2
BITMAP
0080
0040
1220
2230
6410
C408
2800
23F0
2210
23D0
2210
23D0
2210
0210
0230
ENDCHAR
STARTCHAR 4F7F
ENCODING 20351
SWIDTH 960 0
DWIDTH 16 0
BBX 13 14 1 0
BITMAP
0080
0080
17F8
3080
6080
C7F0
2490
27F0
2100
2100
2700
22E0
2218
0400
ENDCHAR
STARTCHAR 4F83
ENCODING 20355
SWIDTH 900 0
DWIDTH 15 0
BBX 13 14 1 -2
BITMAP
07E0
1420
3420
6420
4420
87E0
2000
24A0
24A0
24A0
24A0
24A8
28B8
0800
ENDCHAR
STARTCHAR 4F84
ENCODING 20356
SWIDTH 840 0
DWIDTH 14 0
BBX 12 13 1 0
BITMAP
07F0
1000
2300
4220
8230
2700
2000
2080
2080
23E0
2080
2080
07F0
ENDCHAR
STARTCHAR 4F88
ENCODING 20360
SWIDTH 900 0
DWIDTH 15 0
BBX 12 14 1 0
BITMAP
0300
12E0
3420
6340
8080
2100
2200
2100
2370
2210
20A0
2040
0080
0100
ENDCHAR
STARTCHAR 4F89
ENCODING 20361
SWIDTH 900 0
DWIDTH 15 0
BBX 13 15 1 0
BITMAP
0080
0080
17F0
2100
6330
C608
2DE0
2000
27F0
2100
21F0
2010
2010
0010
0030
ENDCHAR
STARTCHAR 4F8B
ENCODING 20363
SWIDTH 960 0
DWIDTH 16 0
BBX 13 14 2 -1
BITMAP
0008
1F08
6008
C408
8848
0E48
4148
4248
4A48
4248
4208
4408
4408
0018
ENDCHAR
STARTCHAR 4F8D
ENCODING 20365
SWIDTH 900 0
DWIDTH 15 0
BBX 13 15 1 -2
BITMAP
0040
0040
13F0
2040
4040
87F8
2000
2020
2020
27F8
2020
2120
2020
0020
0020
ENDCHAR
STARTCHAR 4F8F
ENCODING 20367
SWIDTH 900 0
DWIDTH 15 0
BBX 13 15 1 -1
BITMAP
0040
0240
1240
35F0
6440
8040
2040
27F8
2040
2140
2240
2058
2040
0040
0040
ENDCHAR
STARTCHAR 4F91
ENCODING 20369
SWIDTH 900 0
DWIDTH 15 0
BBX 13 15 1 -1
BITMAP
0080
0080
13F8
2100
6100
C200
0200
21F0
21F0
2110
21F0
2110
2110
2110
0010
ENDCHAR
STARTCHAR 4F94
ENCODING 20372
SWIDTH 900 0
DWIDTH 15 0
BBX 13 14 1 0
BITMAP
0100
1310
3388
4000
8140
2140
22F0
2040
2040
23F8
2040
2040
0040
0040
ENDCHAR
STARTCHAR 4F97
ENCODING 20375
SWIDTH 900 0
DWIDTH 15 0
BBX 13 13 1 -1
BITMAP
05F8
1408
2408
45E8
8408
2408
24E8
24A8
24A8
24E8
2408
2408
0418
ENDCHAR
STARTCHAR 4F9B
ENCODING 20379
SWIDTH 900 0
DWIDTH 15 0
BBX 12 14 2 -2
BITMAP
0040
2440
6440
CFE0
8440
0440
4440
4000
4FF0
4000
4000
4060
4400
0800
ENDCHAR
STARTCHAR 4F9D
ENCODING 20381
SWIDTH 900 0
DWIDTH 15 0
BBX 12 14 1 -2
BITMAP
0080
0080
1000
37F0
6000
8100
2210
2410
2800
2140
2120
2110
2100
0100
ENDCHAR
STARTCHAR 4FA0
ENCODING 20384
SWIDTH 900 0
DWIDTH 15 0
BBX 13 15 1 -1
BITMAP
0080
0080
1080
37F0
6080
8080
2120
2100
27F8
2100
2100
2230
2208
0400
0400
ENDCHAR
STARTCHAR 4FA3
ENCODING 20387
SWIDTH 900 0
DWIDTH 15 0
BBX 13 13 1 0
BITMAP
03F0
1210
2210
6210
83F0
2000
2000
27F8
2408
2408
2408
2408
07F8
ENDCHAR
STARTCHAR 4FA5
ENCODING 20389
SWIDTH 900 0
DWIDTH 15 0
BBX 12 15 2 -1
BITMAP
0200
01E0
2F00
60E0
C0C0
8340
0060
4000
4FF0
4000
4040
4440
4450
4470
0800
ENDCHAR
STARTCHAR 4FA6
ENCODING 20390
SWIDTH 900 0
DWIDTH 15 0
BBX 13 15 1 -1
BITMAP
0080
0080
10B8
2080
6000
87F0
2410
2410
2490
2490
2490
2100
2130
0200
0400
ENDCHAR
STARTCHAR 4FA7
ENCODING 20391
SWIDTH 960 0
DWIDTH 16 0
BBX 14 13 1 -1
BITMAP
0004
0004
37C4
6444
8554
2554
2554
2554
2554
2204
22C4
2424
000C
ENDCHAR
STARTCHAR 4FA8
ENCODING 20392
SWIDTH 900 0
DWIDTH 15 0
BBX 12 14 2 0
BITMAP
07C0
0000
2100
4100
8FF0
0200
4460
4C00
4000
4040
4440
4440
4440
0840
ENDCHAR
STARTCHAR 4FA9
ENCODING 20393
SWIDTH 900 0
DWIDTH 15 0
BBX 13 14 1 1
BITMAP
0040
0080
1120
2318
4400
80E0
2000
2000
23F8
2000
2080
2110
2118
01C0
ENDCHAR
STARTCHAR 4FAA
ENCODING 20394
SWIDTH 840 0
DWIDTH 14 0
BBX 12 14 1 0
BITMAP
0080
0080
17F0
2000
4040
81C0
21E0
2210
2020
2020
2220
2220
2220
0420
ENDCHAR
STARTCHAR 4FAC
ENCODING 20396
SWIDTH 900 0
DWIDTH 15 0
BBX 11 13 2 0
BITMAP
0100
2100
6BE0
C920
8A20
4200
4420
4C40
4A80
4240
4220
4200
0300
ENDCHAR
STARTCHAR 4FAE
ENCODING 20398
SWIDTH 900 0
DWIDTH 15 0
BBX 13 15 1 -1
BITMAP
0200
0200
04F0
3000
63F0
8210
2290
2290
27F8
2290
2290
23F8
2010
0010
0030
ENDCHAR
STARTCHAR 4FAF
ENCODING 20399
SWIDTH 900 0
DWIDTH 15 0
BBX 13 13 1 -1
BITMAP
03E0
0020
1020
67F8
C000
22F0
2200
2080
27F8
2080
2120
2118
0200
ENDCHAR
STARTCHAR 4FB5
ENCODING 20405
SWIDTH 900 0
DWIDTH 15 0
BBX 13 15 1 -1
BITMAP
03F0
0010
13D0
2010
43F0
8400
27F8
2408
23F0
2020
2120
20C0
20B0
0108
0200
ENDCHAR
STARTCHAR 4FBF
ENCODING 20415
SWIDTH 840 0
DWIDTH 14 0
BBX 12 14 1 -2
BITMAP
07F0
1080
3080
63F0
C290
23D0
2290
23F0
2100
2100
2180
2260
0200
0400
ENDCHAR
STARTCHAR 4FC3
ENCODING 20419
SWIDTH 900 0
DWIDTH 15 0
BBX 13 12 1 -1
BITMAP
13F0
3210
6210
4210
83F0
2040
2040
2270
2240
2440
2500
00F8
ENDCHAR
STARTCHAR 4FC4
ENCODING 20420
SWIDTH 900 0
DWIDTH 15 0
BBX 13 12 1 0
BITMAP
0730
3030
6220
87F0
2220
2220
2320
2630
2260
2220
2220
0018
ENDCHAR
STARTCHAR 4FC5
ENCODING 20421
SWIDTH 900 0
DWIDTH 15 0
BBX 12 14 1 -1
BITMAP
0080
0080
1090
2080
47F0
8080
2080
22A0
2080
20A0
2690
2080
2080
0180
ENDCHAR
STARTCHAR 4FCA
ENCODING 20426
SWIDTH 900 0
DWIDTH 15 0
BBX 12 15 2 0
BITMAP
0200
0240
2440
4720
8000
0640
4460
4000
4200
45C0
4440
4180
41C0
0330
0400
ENDCHAR
STARTCHAR 4FCE
ENCODING 20430
SWIDTH 900 0
DWIDTH 15 0
BBX 13 13 1 0
BITMAP
1000
21E0
2120
4920
01E0
0120
0120
2120
21E0
4120
5920
8120
07F8
ENDCHAR
STARTCHAR 4FCF
ENCODING 20431
SWIDTH 900 0
DWIDTH 15 0
BBX 13 15 1 -1
BITMAP
0040
0048
0450
3040
63F8
8208
2208
22E8
2208
2208
22E8
2208
2208
0208
0008
ENDCHAR
STARTCHAR 4FD0
ENCODING 20432
SWIDTH 900 0
DWIDTH 15 0
BBX 14 13 0 0
BITMAP
0084
1704
2004
4204
8224
2224
2FA4
2224
2224
2A04
2204
221C
0204
ENDCHAR
STARTCHAR 4FD1
ENCODING 20433
SWIDTH 900 0
DWIDTH 15 0
BBX 12 15 2 -2
BITMAP
07C0
0040
00C0
2280
C100
8BF0
4910
4910
4BD0
4910
4BD0
4910
4910
0830
0810
ENDCHAR
STARTCHAR 4FD7
ENCODING 20439
SWIDTH 960 0
DWIDTH 16 0
BBX 14 14 1 0
BITMAP
0010
0208
1200
2000
4000
8080
2110
210C
2200
2400
21F0
2110
2110
01F0
ENDCHAR
STARTCHAR 4FD8
ENCODING 20440
SWIDTH 900 0
DWIDTH 15 0
BBX 12 13 2 -1
BITMAP
2FC0
4920
C400
8000
0000
47C0
4040
4080
4080
4FF0
4080
4080
0180
ENDCHAR
STARTCHAR 4FDA
ENCODING 20442
SWIDTH 900 0
DWIDTH 15 0
BBX 13 13 1 0
BITMAP
03F0
1290
3290
63D0
8290
03F0
2080
2080
23F0
2080
2080
2000
27F8
ENDCHAR
STARTCHAR 4FDC
ENCODING 20444
SWIDTH 840 0
DWIDTH 14 0
BBX 12 14 1 -1
BITMAP
0080
0080
03F0
23D0
4290
83F0
2000
27F0
2000
2100
21F0
2010
2010
0030
ENDCHAR
STARTCHAR 4FDD
ENCODING 20445
SWIDTH 960 0
DWIDTH 16 0
BBX 13 14 1 -1
BITMAP
03F0
1210
3210
6210
C3F0
0000
2040
2040
27F8
2040
2058
2640
2040
0040
ENDCHAR
STARTCHAR 4FDE
ENCODING 20446
SWIDTH 900 0
DWIDTH 15 0
BBX 11 14 2 -1
BITMAP
0400
0400
0800
30E0
4000
8F20
5C20
44A0
44A0
5CA0
5CA0
4420
4420
4C60
ENDCHAR
STARTCHAR 4FDF
ENCODING 20447
SWIDTH 900 0
DWIDTH 15 0
BBX 12 15 1 -1
BITMAP
0100
0130
1210
2380
4000
8200
22F0
2200
2040
2040
27F0
2080
2130
0200
0400
ENDCHAR
STARTCHAR 4FE1
ENCODING 20449
SWIDTH 900 0
DWIDTH 15 0
BBX 12 14 2 0
BITMAP
0100
0100
2FF0
4000
87E0
0000
4000
47E0
4000
47E0
4420
4420
4420
07E0
ENDCHAR
STARTCHAR 4FE3
ENCODING 20451
SWIDTH 900 0
DWIDTH 15 0
BBX 12 14 2 0
BITMAP
07E0
0420
2420
47E0
8000
0000
47E0
4000
4100
4FF0
4200
4240
4430
0800
ENDCHAR
STARTCHAR 4FE6
ENCODING 20454
SWIDTH 900 0
DWIDTH 15 0
BBX 12 14 2 -1
BITMAP
0100
2FE0
6100
C100
87C0
4200
4FE0
4400
4840
4BF0
4040
4640
0040
00C0
ENDCHAR
STARTCHAR 4FE8
ENCODING 20456
SWIDTH 900 0
DWIDTH 15 0
BBX 13 15 1 -1
BITMAP
07F8
0000
10A0
24A8
40A0
8000
23F8
2400
2400
2400
2400
2400
2800
0800
0800
ENDCHAR
STARTCHAR 4FE9
ENCODING 20457
SWIDTH 960 0
DWIDTH 16 0
BBX 13 13 2 -1
BITMAP
0FF8
2140
4140
8BF8
0948
4A48
4A88
4A88
4888
4888
4808
4808
0018
ENDCHAR
STARTCHAR 4FEA
ENCODING 20458
SWIDTH 840 0
DWIDTH 14 0
BBX 14 13 0 0
BITMAP
07F8
1000
2000
402C
85A4
24A4
24BC
26A4
24A4
24A4
24A4
24AC
0580
ENDCHAR
STARTCHAR 4FED
ENCODING 20461
SWIDTH 900 0
DWIDTH 15 0
BBX 12 14 2 0
BITMAP
0080
0100
2300
4200
8470
0800
4000
43C0
4000
4100
4420
4620
4000
0FF0
ENDCHAR
STARTCHAR 4FEE
ENCODING 20462
SWIDTH 900 0
DWIDTH 15 0
BBX 12 15 2 -1
BITMAP
0100
0100
22E0
4020
C1E0
80E0
5700
5040
5180
5000
41D0
4030
4040
0180
0600
ENDCHAR
STARTCHAR 4FEF
ENCODING 20463
SWIDTH 900 0
DWIDTH 15 0
BBX 14 15 0 -1
BITMAP
0040
0040
13FC
2000
4248
82C8
2288
227C
2208
2288
24E8
2488
2488
0098
0008
ENDCHAR
STARTCHAR 4FF1
ENCODING 20465
SWIDTH 960 0
DWIDTH 16 0
BBX 13 13 2 -1
BITMAP
07E0
2420
45A0
8420
05A0
4420
4420
45A0
4000
4FF8
4000
4000
0620
ENDCHAR
STARTCHAR 4FF3
ENCODING 20467
SWIDTH 900 0
DWIDTH 15 0
BBX 12 14 2 0
BITMAP
0240
0240
2240
4E70
8240
0240
4240
4E70
4240
4270
4E40
4240
4240
0240
ENDCHAR
STARTCHAR 4FF8
ENCODING 20472
SWIDTH 900 0
DWIDTH 15 0
BBX 13 16 1 -2
BITMAP
0040
0040
07F0
3080
63E0
C080
27F0
2100
2210
2448
21E0
2040
27F0
0040
0040
0040
ENDCHAR
STARTCHAR 4FFA
ENCODING 20474
SWIDTH 900 0
DWIDTH 15 0
BBX 13 14 1 1
BITMAP
0040
00C0
17F0
2180
4350
8640
2C40
23F0
22F0
2250
23F0
2040
2040
0078
ENDCHAR
STARTCHAR 4FFE
ENCODING 20478
SWIDTH 900 0
DWIDTH 15 0
BBX 12 15 2 0
BITMAP
0080
0000
27E0
4420
84A0
05E0
44A0
47E0
4100
4640
4040
4FF0
4040
0040
0040
ENDCHAR
STARTCHAR 500C
ENCODING 20492
SWIDTH 900 0
DWIDTH 15 0
BBX 13 15 1 0
BITMAP
0040
0040
0000
15F8
3408
6200
83F0
2210
23F0
2200
23F8
2208
2208
2208
02F8
ENDCHAR
STARTCHAR 500D
ENCODING 20493
SWIDTH 900 0
DWIDTH 15 0
BBX 13 15 1 0
BITMAP
0040
0040
0000
13F0
2000
4000
8320
2000
27F8
2000
23F0
2210
2210
2210
03F0
ENDCHAR
STARTCHAR 500F
ENCODING 20495
SWIDTH 900 0
DWIDTH 15 0
BBX 13 14 1 0
BITMAP
0080
0180
1170
3210
6060
C850
0980
2A10
2840
23F8
2040
2080
2110
2008
ENDCHAR
STARTCHAR 5012
ENCODING 20498
SWIDTH 960 0
DWIDTH 16 0
BBX 13 14 2 -1
BITMAP
0008
1F88
2008
4808
8948
0CC8
4048
4448
4F48
4408
4408
4008
4338
1C18
ENDCHAR
STARTCHAR 5014
ENCODING 20500
SWIDTH 900 0
DWIDTH 15 0
BBX 13 13 1 0
BITMAP
03F8
1208
3208
63F8
8200
2220
22A8
22F8
2420
2528
2528
2128
01F8
ENDCHAR
STARTCHAR 5018
ENCODING 20504
SWIDTH 900 0
DWIDTH 15 0
BBX 13 14 1 -1
BITMAP
0040
0040
1250
3040
4000
83F8
2208
2208
22E8
22A8
22E8
2208
2208
0218
ENDCHAR
STARTCHAR 5019
ENCODING 20505
SWIDTH 900 0
DWIDTH 15 0
BBX 14 14 0 -2
BITMAP
01F0
1010
3010
63FC
4000
8900
2978
2800
2840
23FC
2080
2080
2098
0100
ENDCHAR
STARTCHAR 501A
ENCODING 20506
SWIDTH 900 0
DWIDTH 15 0
BBX 12 16 2 -3
BITMAP
0080
0180
0FF0
2200
4460
8800
0000
4FF0
4000
4020
4F20
4920
4920
4F20
0020
0060
ENDCHAR
STARTCHAR 501C
ENCODING 20508
SWIDTH 900 0
DWIDTH 15 0
BBX 12 12 2 0
BITMAP
2BF0
4890
8BD0
0810
4BD0
4810
4BD0
4A50
4BD0
4810
5030
1000
ENDCHAR
STARTCHAR 501F
ENCODING 20511
SWIDTH 900 0
DWIDTH 15 0
BBX 12 14 2 0
BITMAP
0240
0240
27F0
6240
8240
0FF0
4000
4000
47E0
4420
45E0
4420
4420
07E0
ENDCHAR
STARTCHAR 5021
ENCODING 20513
SWIDTH 900 0
DWIDTH 15 0
BBX 13 13 1 0
BITMAP
03F0
0210
13D0
6210
83F0
0000
2000
27F8
2408
25C8
2408
2408
27F8
ENDCHAR
STARTCHAR 5025
ENCODING 20517
SWIDTH 900 0
DWIDTH 15 0
BBX 13 14 1 0
BITMAP
0040
0040
15F8
3408
6408
8110
2200
2000
21F0
2040
2040
2040
2000
07F8
ENDCHAR
STARTCHAR 5026
ENCODING 20518
SWIDTH 960 0
DWIDTH 16 0
BBX 13 14 1 1
BITMAP
0280
0090
13F0
2100
4100
C7F8
0218
22E0
2020
2120
2160
2100
2108
21F8
ENDCHAR
STARTCHAR 5028
ENCODING 20520
SWIDTH 900 0
DWIDTH 15 0
BBX 14 13 0 0
BITMAP
02F8
1208
2208
42F8
8200
2220
22FC
2220
2420
24F8
2488
2888
08F8
ENDCHAR
STARTCHAR 5029
ENCODING 20521
SWIDTH 900 0
DWIDTH 15 0
BBX 12 16 2 -1
BITMAP
0080
0080
0080
27F0
43C0
8080
0FF0
4000
4000
45E0
4420
45A0
45A0
4420
0460
0400
ENDCHAR
STARTCHAR 502A
ENCODING 20522
SWIDTH 900 0
DWIDTH 15 0
BBX 13 14 1 -2
BITMAP
0180
0270
1210
2210
43F0
8210
23F0
2000
2100
2120
2120
2128
2238
0200
ENDCHAR
STARTCHAR 502C
ENCODING 20524
SWIDTH 900 0
DWIDTH 15 0
BBX 12 15 2 -2
BITMAP
0080
00F0
2080
47E0
8420
8420
45E0
4420
47E0
4080
5FF0
4080
4080
0080
0080
ENDCHAR
STARTCHAR 502D
ENCODING 20525
SWIDTH 840 0
DWIDTH 14 0
BBX 11 15 2 0
BITMAP
01C0
0700
6100
CFE0
8100
0D60
4100
4200
5FE0
4200
4440
4380
41C0
0620
0800
ENDCHAR
STARTCHAR 502E
ENCODING 20526
SWIDTH 900 0
DWIDTH 15 0
BBX 11 14 2 0
BITMAP
07E0
0420
2520
47A0
8520
07E0
4100
4100
4FE0
4100
4100
4520
4900
0100
ENDCHAR
STARTCHAR 503A
ENCODING 20538
SWIDTH 900 0
DWIDTH 15 0
BBX 12 15 2 -2
BITMAP
0100
0100
07E0
2100
43C0
8100
4FF0
4000
47E0
4420
4520
4520
4200
0260
0C00
ENDCHAR
STARTCHAR 503C
ENCODING 20540
SWIDTH 960 0
DWIDTH 16 0
BBX 13 14 2 0
BITMAP
0080
0080
07F0
6080
87E0
0420
4420
45A0
4420
45A0
4420
45A0
4000
0FF8
ENDCHAR
STARTCHAR 503E
ENCODING 20542
SWIDTH 900 0
DWIDTH 15 0
BBX 13 13 1 -1
BITMAP
20F0
6840
C800
89F0
0910
4D50
4950
4950
4840
4880
40B8
0100
0200
ENDCHAR
STARTCHAR 5043
ENCODING 20547
SWIDTH 900 0
DWIDTH 15 0
BBX 13 14 1 0
BITMAP
07F8
0000
14F8
2488
44E8
84F8
2440
25F8
2480
2450
2430
2448
2480
07F8
ENDCHAR
STARTCHAR 5047
ENCODING 20551
SWIDTH 900 0
DWIDTH 15 0
BBX 14 14 0 -1
BITMAP
003C
0584
3484
6484
C5BC
2400
2400
25BC
2404
2598
2408
241C
0434
0040
ENDCHAR
STARTCHAR 5048
ENCODING 20552
SWIDTH 900 0
DWIDTH 15 0
BBX 13 14 1 -2
BITMAP
03F0
12F0
2210
6210
43F0
8000
2200
25F8
2808
2048
23B8
2208
23C8
0018
ENDCHAR
STARTCHAR 504C
ENCODING 20556
SWIDTH 900 0
DWIDTH 15 0
BBX 12 15 2 -1
BITMAP
0240
0240
0FF0
2240
4000
8000
0200
4FF0
4400
4400
4BE0
4220
4220
4220
03E0
ENDCHAR
STARTCHAR 504E
ENCODING 20558
SWIDTH 900 0
DWIDTH 15 0
BBX 13 13 1 -2
BITMAP
03F0
1250
23D0
6210
C210
23F0
2000
27F8
2210
2200
2220
2218
0380
ENDCHAR
STARTCHAR 504F
ENCODING 20559
SWIDTH 960 0
DWIDTH 16 0
BBX 13 15 2 -2
BITMAP
0080
0080
2BF0
4810
C810
8810
0BF0
4800
4AF8
4A08
52A8
52A8
53E8
42A8
0218
ENDCHAR
STARTCHAR 5055
ENCODING 20565
SWIDTH 900 0
DWIDTH 15 0
BBX 13 14 1 1
BITMAP
0440
0458
15C0
2440
4440
8678
2080
2000
2000
21F0
2110
21D0
2110
01F0
ENDCHAR
STARTCHAR 505A
ENCODING 20570
SWIDTH 900 0
DWIDTH 15 0
BBX 13 13 1 -1
BITMAP
2440
6480
C480
9E38
0400
4400
4020
5EA0
5260
5250
5E48
4080
0100
ENDCHAR
STARTCHAR 505C
ENCODING 20572
SWIDTH 900 0
DWIDTH 15 0
BBX 13 16 1 -2
BITMAP
0080
0080
0000
17F0
21F0
6110
C110
21F0
27F8
2408
27E8
2000
2040
2040
0040
00C0
ENDCHAR
STARTCHAR 5065
ENCODING 20581
SWIDTH 900 0
DWIDTH 15 0
BBX 14 15 0 0
BITMAP
0020
0020
0020
1F38
22FC
4228
8478
2420
2378
2320
26FC
2620
2620
2D00
08FC
ENDCHAR
STARTCHAR 506C
ENCODING 20588
SWIDTH 960 0
DWIDTH 16 0
BBX 13 13 1 1
BITMAP
0200
16F8
3408
6148
83C8
22E8
2098
2000
2000
2080
2408
2910
00F0
ENDCHAR
STARTCHAR 5076
ENCODING 20598
SWIDTH 900 0
DWIDTH 15 0
BBX 13 13 1 -1
BITMAP
03F0
1290
23D0
4290
83F0
2080
2080
25F8
2488
24A8
25A8
2508
0418
ENDCHAR
STARTCHAR 5077
ENCODING 20599
SWIDTH 900 0
DWIDTH 15 0
BBX 13 14 1 0
BITMAP
0080
0080
1100
2230
6408
81C0
2000
2790
2490
26B0
24B0
2690
2490
05B0
ENDCHAR
STARTCHAR 507B
ENCODING 20603
SWIDTH 900 0
DWIDTH 15 0
BBX 13 15 1 -1
BITMAP
00A0
02A0
37F8
6080
C2B8
0480
2000
2100
27F8
2120
2340
20C0
20B8
0300
0400
ENDCHAR
STARTCHAR 507E
ENCODING 20606
SWIDTH 900 0
DWIDTH 15 0
BBX 13 15 1 -2
BITMAP
0080
03F0
11A0
3120
67F8
8120
2000
23F0
2210
2290
2290
2080
2100
0130
0200
ENDCHAR
STARTCHAR 507F
ENCODING 20607
SWIDTH 900 0
DWIDTH 15 0
BBX 13 15 1 -1
BITMAP
0040
0250
1040
27F8
4408
8408
0000
21E0
2000
27F8
2000
2100
2310
22D8
0100
ENDCHAR
STARTCHAR 5080
ENCODING 20608
SWIDTH 900 0
DWIDTH 15 0
BBX 13 14 1 1
BITMAP
0080
0100
1000
33F0
4210
83F0
2290
2290
23F0
2110
2158
2150
2248
0678
ENDCHAR
STARTCHAR 5085
ENCODING 20613
SWIDTH 960 0
DWIDTH 16 0
BBX 14 15 1 -2
BITMAP
0030
0040
07F8
1040
63F8
82E8
0248
22E8
2248
2020
27FC
2020
2020
21A0
0020
ENDCHAR
STARTCHAR 5088
ENCODING 20616
SWIDTH 900 0
DWIDTH 15 0
BBX 12 14 2 0
BITMAP
07F0
0000
2140
47F0
8550
07F0
4000
4080
47F0
4080
4090
4C80
4080
0080
ENDCHAR
STARTCHAR 508D
ENCODING 20621
SWIDTH 900 0
DWIDTH 15 0
BBX 13 15 1 -1
BITMAP
0040
0040
13F8
3200
6120
87F8
2448
2448
27F8
2100
2100
21F0
2210
0230
0400
ENDCHAR
STARTCHAR 5091
ENCODING 20625
SWIDTH 900 0
DWIDTH 15 0
BBX 13 15 1 -1
BITMAP
0210
0578
1110
2110
4750
8178
2210
2010
2080
27F8
2080
2290
2698
0080
0080
ENDCHAR
STARTCHAR 50A3
ENCODING 20643
SWIDTH 900 0
DWIDTH 15 0
BBX 13 14 1 -1
BITMAP
0040
13F0
3080
63E0
8080
27F0
2200
2218
2040
2240
2060
2258
0040
00C0
ENDCHAR
STARTCHAR 50A5
ENCODING 20645
SWIDTH 900 0
DWIDTH 15 0
BBX 14 15 1 -2
BITMAP
0080
0290
1000
35F8
6408
4408
81E0
2120
21E0
2000
2120
2120
2228
023C
0200
ENDCHAR
STARTCHAR 50A7
ENCODING 20647
SWIDTH 900 0
DWIDTH 15 0
BBX 13 15 1 -1
BITMAP
0040
0040
15F8
3408
6428
8240
2200
22F8
2220
2220
2000
27F8
2000
0318
0400
ENDCHAR
STARTCHAR 50A8
ENCODING 20648
SWIDTH 900 0
DWIDTH 15 0
BBX 13 14 1 0
BITMAP
0040
0040
29E0
4850
8020
03F8
18C0
4B00
48F0
4890
4890
48F0
4C90
4090
ENDCHAR
STARTCHAR 50A9
ENCODING 20649
SWIDTH 900 0
DWIDTH 15 0
BBX 13 12 1 0
BITMAP
0050
2190
5B78
8C00
0810
5938
4910
5D10
5138
6110
6100
4178
ENDCHAR
STARTCHAR 50AC
ENCODING 20652
SWIDTH 900 0
DWIDTH 15 0
BBX 12 14 2 0
BITMAP
0080
0490
0490
67F0
8020
0400
0C00
49F0
4440
44F0
4440
44F0
4440
45F0
ENDCHAR
STARTCHAR 50B2
ENCODING 20658
SWIDTH 900 0
DWIDTH 15 0
BBX 14 15 0 -2
BITMAP
0200
07A0
1220
2220
47DC
8240
2F80
2010
2410
25B0
2490
24A8
28A4
08C0
0800
ENDCHAR
STARTCHAR 50BA
ENCODING 20666
SWIDTH 900 0
DWIDTH 15 0
BBX 14 15 0 -2
BITMAP
0220
0220
05AC
1494
2290
4190
8508
22E8
2404
2000
23F8
2040
264C
2040
00C0
ENDCHAR
STARTCHAR 50BB
ENCODING 20667
SWIDTH 900 0
DWIDTH 15 0
BBX 13 15 1 -1
BITMAP
0080
0100
03F0
32D0
43D0
83F0
2000
2220
2000
22E0
2220
20C0
2060
0098
0300
ENDCHAR
STARTCHAR 50CF
ENCODING 20687
SWIDTH 900 0
DWIDTH 15 0
BBX 13 16 1 -3
BITMAP
0200
0600
0460
0020
3000
67F0
8450
27F0
2180
2300
2448
2240
2450
2648
0040
00C0
ENDCHAR
STARTCHAR 50D6
ENCODING 20694
SWIDTH 900 0
DWIDTH 15 0
BBX 12 15 2 -1
BITMAP
0100
0FF0
2100
67E0
C000
87E0
4420
47E0
4460
4000
4FF0
47E0
4420
0420
07E0
ENDCHAR
STARTCHAR 50DA
ENCODING 20698
SWIDTH 960 0
DWIDTH 16 0
BBX 14 14 1 -1
BITMAP
0080
17F8
3110
6200
C418
23F0
23D0
2210
23F0
2000
2080
248C
0080
0180
ENDCHAR
STARTCHAR 50E6
ENCODING 20710
SWIDTH 900 0
DWIDTH 15 0
BBX 14 14 0 0
BITMAP
0200
0200
1F90
2014
4790
84FC
24B0
27B8
2228
22A8
2A68
226C
2640
0040
ENDCHAR
STARTCHAR 50E7
ENCODING 20711
SWIDTH 900 0
DWIDTH 15 0
BBX 13 15 1 0
BITMAP
0220
0000
17F8
3408
6488
8488
0488
27F8
2000
23F0
2210
2210
23D0
2210
03F0
ENDCHAR
STARTCHAR 50EC
ENCODING 20716
SWIDTH 900 0
DWIDTH 15 0
BBX 14 13 0 -1
BITMAP
0120
1200
34FC
6220
8278
2220
2278
2220
22FC
2000
2000
20A8
04B0
ENDCHAR
STARTCHAR 50ED
ENCODING 20717
SWIDTH 840 0
DWIDTH 14 0
BBX 14 15 0 -2
BITMAP
0078
0E50
3A50
2A78
4428
8528
294C
2840
2000
23F8
2208
22E8
2208
0208
03F8
ENDCHAR
STARTCHAR 50EE
ENCODING 20718
SWIDTH 960 0
DWIDTH 16 0
BBX 14 15 1 -1
BITMAP
0040
0000
03F8
1000
20A0
47FC
83F8
2208
22E8
2248
23F8
2040
23F0
2040
07FC
ENDCHAR
STARTCHAR 50F3
ENCODING 20723
SWIDTH 900 0
DWIDTH 15 0
BBX 12 14 2 0
BITMAP
0FF0
0000
2140
4FF0
8950
0FF0
4000
44B0
4080
4FF0
4080
44B0
4C80
0080
ENDCHAR
STARTCHAR 50F5
ENCODING 20725
SWIDTH 900 0
DWIDTH 15 0
BBX 13 15 1 -1
BITMAP
07F8
0000
13F0
3250
62F0
C210
03F0
27F8
23F0
2210
22F0
2250
23F0
0000
07F8
ENDCHAR
STARTCHAR 50FB
ENCODING 20731
SWIDTH 900 0
DWIDTH 15 0
BBX 14 14 0 0
BITMAP
0010
0010
17BC
2480
4480
878C
2400
247C
2410
2790
2ABC
2A90
2A90
0390
ENDCHAR
STARTCHAR 5104
ENCODING 20740
SWIDTH 900 0
DWIDTH 15 0
BBX 12 16 2 -2
BITMAP
0100
0100
07E0
2040
4280
C000
8FF0
47C0
4440
4540
47C0
4000
4080
4E10
1240
01C0
ENDCHAR
STARTCHAR 5106
ENCODING 20742
SWIDTH 900 0
DWIDTH 15 0
BBX 14 14 1 -1
BITMAP
0500
0FA0
2540
4540
805C
0800
4B80
5090
40B0
4EB0
4A90
4EA8
40A4
01C0
ENDCHAR
STARTCHAR 5107
ENCODING 20743
SWIDTH 960 0
DWIDTH 16 0
BBX 12 15 2 -1
BITMAP
0FF0
0810
0950
6FF0
C000
87F0
0000
47E0
4420
47E0
4210
4C00
4260
4210
0300
ENDCHAR
STARTCHAR 510B
ENCODING 20747
SWIDTH 960 0
DWIDTH 16 0
BBX 14 15 1 -1
BITMAP
0100
1620
3000
31FC
6008
8260
22FC
2200
22F8
2200
2478
2400
24F8
0488
00F8
ENDCHAR
STARTCHAR 5112
ENCODING 20754
SWIDTH 900 0
DWIDTH 15 0
BBX 13 15 1 -1
BITMAP
03F0
0000
1040
25F8
6448
8160
2160
2000
27F8
2040
27F8
2408
24A8
04B8
0400
ENDCHAR
STARTCHAR 5121
ENCODING 20769
SWIDTH 900 0
DWIDTH 15 0
BBX 14 13 0 0
BITMAP
07F8
0488
15E8
2488
4408
87F8
2000
2F7C
2954
2D5C
2F54
2D44
2F7C
ENDCHAR
STARTCHAR 513F
ENCODING 20799
SWIDTH 900 0
DWIDTH 15 0
BBX 11 15 2 -1
BITMAP
1000
1000
1100
1100
1100
1100
1100
2100
2100
2100
2100
4120
41E0
4000
8000
ENDCHAR
STARTCHAR 5140
ENCODING 20800
SWIDTH 900 0
DWIDTH 15 0
BBX 11 12 2 -1
BITMAP
FFE0
0000
1000
1200
1200
1200
2200
2200
2200
4220
43E0
4000
ENDCHAR
STARTCHAR 5141
ENCODING 20801
SWIDTH 960 0
DWIDTH 16 0
BBX 12 16 2 -1
BITMAP
1000
1000
2080
2040
2060
4700
7800
0000
1000
1100
2100
2100
2110
41F0
4000
8000
ENDCHAR
STARTCHAR 5143
ENCODING 20803
SWIDTH 900 0
DWIDTH 15 0
BBX 12 13 2 -2
BITMAP
3F80
0000
0000
0000
FFE0
0000
0000
1100
1100
1100
2120
21F0
4000
ENDCHAR
STARTCHAR 5144
ENCODING 20804
SWIDTH 900 0
DWIDTH 15 0
BBX 10 14 2 -2
BITMAP
7F80
4080
4080
4080
4080
7F80
0000
2000
2200
2200
2200
4240
43C0
8000
ENDCHAR
STARTCHAR 5145
ENCODING 20805
SWIDTH 900 0
DWIDTH 15 0
BBX 11 15 2 -2
BITMAP
0400
0400
FFE0
0000
1000
2180
20C0
7800
0000
1100
1100
2100
2100
21E0
4000
ENDCHAR
STARTCHAR 5146
ENCODING 20806
SWIDTH 840 0
DWIDTH 14 0
BBX 12 16 1 -2
BITMAP
0800
0800
0900
0900
0920
4940
0900
0900
4960
D110
9100
1100
1110
21F0
2000
2000
ENDCHAR
STARTCHAR 5148
ENCODING 20808
SWIDTH 900 0
DWIDTH 15 0
BBX 11 15 2 -2
BITMAP
0400
1400
2400
2F80
4400
0400
0000
FFE0
0000
0100
1100
1100
1120
21E0
2000
ENDCHAR
STARTCHAR 5149
ENCODING 20809
SWIDTH 900 0
DWIDTH 15 0
BBX 11 14 2 -2
BITMAP
0400
0400
0440
2480
0400
0000
FFE0
0000
1200
1200
1200
2220
23E0
4000
ENDCHAR
STARTCHAR 514B
ENCODING 20811
SWIDTH 840 0
DWIDTH 14 0
BBX 10 15 2 -2
BITMAP
0400
0400
FFC0
0400
0000
3F00
2100
2100
3F00
0000
1200
1200
2240
23C0
4000
ENDCHAR
STARTCHAR 514D
ENCODING 20813
SWIDTH 960 0
DWIDTH 16 0
BBX 11 15 3 -1
BITMAP
2000
4000
CF00
0200
7F80
4080
4480
4880
7F80
0800
1200
1200
2220
43E0
8000
ENDCHAR
STARTCHAR 5150
ENCODING 20816
SWIDTH 900 0
DWIDTH 15 0
BBX 10 14 3 -2
BITMAP
9F80
9080
9080
9680
9080
9080
9F80
0000
2200
4200
4200
4200
8240
83C0
ENDCHAR
STARTCHAR 5151
ENCODING 20817
SWIDTH 960 0
DWIDTH 16 0
BBX 10 15 3 -1
BITMAP
4600
4000
FF00
8100
8100
8100
8100
FF00
0000
2000
4400
4400
4440
87C0
8000
ENDCHAR
STARTCHAR 5152
ENCODING 20818
SWIDTH 900 0
DWIDTH 15 0
BBX 11 15 2 -1
BITMAP
0800
53C0
4040
4040
5B40
4040
4040
7FC0
0000
1000
1100
2100
2120
41E0
8000
ENDCHAR
STARTCHAR 5154
ENCODING 20820
SWIDTH 900 0
DWIDTH 15 0
BBX 11 14 2 0
BITMAP
2000
4F00
0200
7FC0
4040
4440
4840
7FC0
0800
1280
1240
2220
43E0
8000
ENDCHAR
STARTCHAR 5155
ENCODING 20821
SWIDTH 900 0
DWIDTH 15 0
BBX 11 15 2 -2
BITMAP
F3C0
9240
9240
9E40
8040
8040
8040
FFC0
0000
2200
2200
2200
4200
43E0
8000
ENDCHAR
STARTCHAR 5156
ENCODING 20822
SWIDTH 900 0
DWIDTH 15 0
BBX 11 15 2 -2
BITMAP
0400
0400
FFE0
0000
1040
5120
A080
3E40
2000
1100
1100
2100
2120
21E0
4000
ENDCHAR
STARTCHAR 515A
ENCODING 20826
SWIDTH 900 0
DWIDTH 15 0
BBX 11 15 2 -2
BITMAP
0400
2440
8000
BFE0
8020
1F80
1080
1080
1F80
0000
0100
1100
1120
21E0
2000
ENDCHAR
STARTCHAR 515C
ENCODING 20828
SWIDTH 900 0
DWIDTH 15 0
BBX 11 15 2 -2
BITMAP
0400
6000
1FE0
9120
9120
9720
9120
FFE0
0000
1100
2100
2100
2120
41E0
4000
ENDCHAR
STARTCHAR 5162
ENCODING 20834
SWIDTH 900 0
DWIDTH 15 0
BBX 13 15 1 -2
BITMAP
2040
2040
F9F0
2040
0000
79E0
4920
4920
79E0
0080
50A0
5120
5130
5938
8200
ENDCHAR
STARTCHAR 5165
ENCODING 20837
SWIDTH 900 0
DWIDTH 15 0
BBX 11 13 2 1
BITMAP
0400
0400
0400
0200
0A00
1200
1100
1100
2080
2080
4040
4040
8020
ENDCHAR
STARTCHAR 5168
ENCODING 20840
SWIDTH 900 0
DWIDTH 15 0
BBX 11 13 2 1
BITMAP
0400
0800
1000
21C0
C000
0000
3F80
0400
1F00
0400
0400
0400
FFE0
ENDCHAR
STARTCHAR 516B
ENCODING 20843
SWIDTH 900 0
DWIDTH 15 0
BBX 11 15 2 -1
BITMAP
0200
0200
0900
1100
1100
1100
1100
1080
2080
2080
2040
4040
4040
8020
0020
ENDCHAR
STARTCHAR 516C
ENCODING 20844
SWIDTH 900 0
DWIDTH 15 0
BBX 11 13 2 0
BITMAP
0100
0100
1080
2040
2040
4020
8000
0800
0800
1080
1040
1620
3800
ENDCHAR
STARTCHAR 516D
ENCODING 20845
SWIDTH 900 0
DWIDTH 15 0
BBX 11 13 2 -1
BITMAP
0400
0400
0000
0000
FFE0
0000
0000
0000
1100
3080
2040
4020
4000
ENDCHAR
STARTCHAR 516E
ENCODING 20846
SWIDTH 960 0
DWIDTH 16 0
BBX 12 15 2 -1
BITMAP
0100
20C0
6060
4010
8000
3FC0
0000
1000
1000
1FC0
0040
0040
0040
0040
00C0
ENDCHAR
STARTCHAR 5170
ENCODING 20848
SWIDTH 900 0
DWIDTH 15 0
BBX 11 13 2 1
BITMAP
2080
1000
0000
7FC0
0000
0000
0000
1F80
0000
0000
0000
0000
FFE0
ENDCHAR
STARTCHAR 5171
ENCODING 20849
SWIDTH 900 0
DWIDTH 15 0
BBX 11 14 2 -2
BITMAP
1100
1100
1100
FFC0
1100
1100
1100
1100
0000
FFE0
0000
0180
20C0
4000
ENDCHAR
STARTCHAR 5172
ENCODING 20850
SWIDTH 900 0
DWIDTH 15 0
BBX 11 14 2 -1
BITMAP
7F80
0000
0400
0400
3F00
0400
0400
FFE0
0000
0300
2100
6080
4040
8000
ENDCHAR
STARTCHAR 5173
ENCODING 20851
SWIDTH 900 0
DWIDTH 15 0
BBX 11 15 2 0
BITMAP
2100
1200
0000
7F80
0000
0000
0800
0800
FFE0
1000
1000
1300
20C0
2000
4000
ENDCHAR
STARTCHAR 5174
ENCODING 20852
SWIDTH 900 0
DWIDTH 15 0
BBX 11 13 2 0
BITMAP
0400
0440
4040
6080
0000
0000
FFE0
0000
0000
1180
2040
6020
4000
ENDCHAR
STARTCHAR 5175
ENCODING 20853
SWIDTH 900 0
DWIDTH 15 0
BBX 11 15 2 -2
BITMAP
0180
0E00
0000
2000
2000
27C0
2100
2100
2100
0000
FFE0
0000
1080
2040
4000
ENDCHAR
STARTCHAR 5176
ENCODING 20854
SWIDTH 900 0
DWIDTH 15 0
BBX 11 14 2 -1
BITMAP
2100
2100
FFC0
2100
2100
2D00
2100
2D00
2100
2100
FFE0
0000
2100
6080
ENDCHAR
STARTCHAR 5177
ENCODING 20855
SWIDTH 900 0
DWIDTH 15 0
BBX 11 15 2 -1
BITMAP
3F80
2080
2080
2E80
2080
2E80
2080
2E80
2080
0000
FFE0
0000
0080
2040
4000
ENDCHAR
STARTCHAR 5178
ENCODING 20856
SWIDTH 960 0
DWIDTH 16 0
BBX 12 14 2 -2
BITMAP
0A00
0A00
7FC0
4A40
4A40
5FC0
4A40
4A40
4A40
0000
FFF0
0000
1080
3040
ENDCHAR
STARTCHAR 5179
ENCODING 20857
SWIDTH 900 0
DWIDTH 15 0
BBX 11 14 2 -1
BITMAP
0100
1100
0000
FFE0
0000
2080
2100
4200
4300
3080
1080
2140
6740
7720
ENDCHAR
STARTCHAR 517B
ENCODING 20859
SWIDTH 960 0
DWIDTH 16 0
BBX 12 15 2 -1
BITMAP
1080
0100
7FC0
0000
0400
1F80
0800
FFF0
2000
40E0
1000
1100
1100
1100
2100
ENDCHAR
STARTCHAR 517C
ENCODING 20860
SWIDTH 900 0
DWIDTH 15 0
BBX 11 15 2 0
BITMAP
3080
0100
FFC0
0A00
0A00
7F80
0A80
FFE0
0A80
7F80
0A00
0A00
CAC0
0A00
0A00
ENDCHAR
STARTCHAR 517D
ENCODING 20861
SWIDTH 960 0
DWIDTH 16 0
BBX 12 15 2 0
BITMAP
1080
0800
3FC0
2040
2F40
2440
2440
3FC0
0000
FFF0
0000
1F80
1080
1080
1F80
ENDCHAR
STARTCHAR 5180
ENCODING 20864
SWIDTH 960 0
DWIDTH 16 0
BBX 12 15 2 -1
BITMAP
0900
6940
0900
69E0
0000
3FC0
2F40
2240
3FC0
0900
7FC0
0900
FFF0
0000
30C0
ENDCHAR
STARTCHAR 5181
ENCODING 20865
SWIDTH 900 0
DWIDTH 15 0
BBX 14 14 0 0
BITMAP
4800
597C
FD04
857C
9500
F530
95F8
FD30
1100
12FC
FE44
1240
1258
1060
ENDCHAR
STARTCHAR 5182
ENCODING 20866
SWIDTH 840 0
DWIDTH 14 0
BBX 10 14 2 -2
BITMAP
FFC0
8040
8040
8040
8040
8040
8040
8040
8040
8040
8040
8040
8040
80C0
ENDCHAR
STARTCHAR 5185
ENCODING 20869
SWIDTH 960 0
DWIDTH 16 0
BBX 10 14 3 -1
BITMAP
0400
0400
0400
BFC0
8840
8840
8840
9040
9240
A140
A040
8040
8040
80C0
ENDCHAR
STARTCHAR 5188
ENCODING 20872
SWIDTH 840 0
DWIDTH 14 0
BBX 10 14 2 -2
BITMAP
BFC0
8040
8040
8240
8440
9440
8C40
8E40
9040
B040
A040
8040
8040
80C0
ENDCHAR
STARTCHAR 5189
ENCODING 20873
SWIDTH 960 0
DWIDTH 16 0
BBX 12 15 2 -2
BITMAP
0200
0200
0200
3FC0
2240
2240
2F40
2240
2240
2240
FFF0
2040
2040
2040
20C0
ENDCHAR
STARTCHAR 518C
ENCODING 20876
SWIDTH 900 0
DWIDTH 15 0
BBX 13 13 1 -2
BITMAP
3DE0
2520
2520
2520
2520
FFF8
2520
2520
2520
2520
2560
4E00
4000
ENDCHAR
STARTCHAR 518D
ENCODING 20877
SWIDTH 840 0
DWIDTH 14 0
BBX 12 15 1 -1
BITMAP
7FE0
0000
0400
0400
2FC0
2440
2440
2F40
2440
2040
FFF0
2040
2040
20C0
2040
ENDCHAR
STARTCHAR 5192
ENCODING 20882
SWIDTH 900 0
DWIDTH 15 0
BBX 9 14 3 0
BITMAP
FF80
8080
9E80
8080
9E80
0000
7F00
4100
4100
5D00
4100
5D00
4100
7F00
ENDCHAR
STARTCHAR 5195
ENCODING 20885
SWIDTH 960 0
DWIDTH 16 0
BBX 10 15 3 -2
BITMAP
BF00
8100
B900
B900
0000
4000
9E00
0400
FF00
8100
9100
FF00
1400
2440
C7C0
ENDCHAR
STARTCHAR 5196
ENCODING 20886
SWIDTH 900 0
DWIDTH 15 0
BBX 11 4 2 10
BITMAP
8000
BFE0
8020
8020
ENDCHAR
STARTCHAR 5197
ENCODING 20887
SWIDTH 900 0
DWIDTH 15 0
BBX 11 14 2 -1
BITMAP
8000
BFC0
8040
8040
0000
1F00
2100
2100
2100
2100
2100
4100
41E0
4000
ENDCHAR
STARTCHAR 5199
ENCODING 20889
SWIDTH 840 0
DWIDTH 14 0
BBX 10 14 2 -2
BITMAP
BFC0
8040
9040
1000
17C0
1000
1000
1FC0
0040
0040
FE40
0040
0040
00C0
ENDCHAR
STARTCHAR 519B
ENCODING 20891
SWIDTH 900 0
DWIDTH 15 0
BBX 11 14 2 -1
BITMAP
9FE0
8020
8020
FFC0
1000
1400
2400
1F80
0400
0400
FFE0
0400
0400
0400
ENDCHAR
STARTCHAR 519C
ENCODING 20892
SWIDTH 960 0
DWIDTH 16 0
BBX 11 14 2 -1
BITMAP
0400
0400
5FE0
4820
4820
1000
2000
20C0
D000
1100
1080
1060
1000
1800
ENDCHAR
STARTCHAR 51A0
ENCODING 20896
SWIDTH 900 0
DWIDTH 15 0
BBX 12 15 2 -1
BITMAP
8000
BFE0
8020
0000
7840
03E0
0040
FC40
0140
0040
48C0
4800
4820
8FF0
8000
ENDCHAR
STARTCHAR 51A2
ENCODING 20898
SWIDTH 900 0
DWIDTH 15 0
BBX 11 15 2 -2
BITMAP
BFE0
8020
8020
1F80
0400
3420
4240
4280
7A00
F200
2240
1A20
6200
0200
0600
ENDCHAR
STARTCHAR 51A4
ENCODING 20900
SWIDTH 900 0
DWIDTH 15 0
BBX 11 15 2 -2
BITMAP
BFC0
8040
A040
2F00
4200
0000
7F80
4880
4880
7F80
1000
1280
2200
43E0
8000
ENDCHAR
STARTCHAR 51A5
ENCODING 20901
SWIDTH 960 0
DWIDTH 16 0
BBX 12 14 2 -1
BITMAP
BFE0
8020
9FA0
1080
1680
1080
1F80
0000
0400
0400
FFF0
0000
10C0
6020
ENDCHAR
STARTCHAR 51AB
ENCODING 20907
SWIDTH 900 0
DWIDTH 15 0
BBX 2 10 3 1
BITMAP
C0
00
00
00
00
00
00
00
00
C0
ENDCHAR
STARTCHAR 51AC
ENCODING 20908
SWIDTH 900 0
DWIDTH 15 0
BBX 11 14 2 0
BITMAP
1000
3000
2F80
4180
0100
0E00
0F00
18E0
E400
0600
0000
0000
0800
0300
ENDCHAR
STARTCHAR 51AF
ENCODING 20911
SWIDTH 900 0
DWIDTH 15 0
BBX 11 13 2 0
BITMAP
0FC0
8040
8040
0840
0840
0800
0FE0
0020
0020
1FA0
8020
0020
0060
ENDCHAR
STARTCHAR 51B0
ENCODING 20912
SWIDTH 900 0
DWIDTH 15 0
BBX 14 13 0 0
BITMAP
0080
0080
0080
4080
0088
0E90
0280
0480
049C
2880
D080
0080
0180
ENDCHAR
STARTCHAR 51B1
ENCODING 20913
SWIDTH 900 0
DWIDTH 15 0
BBX 13 12 1 0
BITMAP
0FF8
C200
0200
0200
05F0
0420
0420
07A0
0040
4040
8000
1FF8
ENDCHAR
STARTCHAR 51B2
ENCODING 20914
SWIDTH 900 0
DWIDTH 15 0
BBX 12 15 2 -1
BITMAP
0080
0080
8080
0080
0FF0
0890
0890
0890
0FF0
0080
0080
C080
0080
0080
0080
ENDCHAR
STARTCHAR 51B3
ENCODING 20915
SWIDTH 900 0
DWIDTH 15 0
BBX 12 14 2 -1
BITMAP
0100
0100
8100
0FE0
0120
0220
0220
0200
1FF0
0200
0400
C460
0410
0800
ENDCHAR
STARTCHAR 51B5
ENCODING 20917
SWIDTH 960 0
DWIDTH 16 0
BBX 12 14 2 -2
BITMAP
0FE0
8820
4820
0820
0820
0FE0
0000
0440
0440
0440
0440
8850
0870
0800
ENDCHAR
STARTCHAR 51B6
ENCODING 20918
SWIDTH 900 0
DWIDTH 15 0
BBX 12 13 2 1
BITMAP
0200
8600
0420
0C20
0F10
0000
0000
07E0
0420
0420
8420
0420
07E0
ENDCHAR
STARTCHAR 51B7
ENCODING 20919
SWIDTH 900 0
DWIDTH 15 0
BBX 12 14 2 -1
BITMAP
0100
0100
8200
0440
0830
1100
0100
0000
0FE0
0040
0040
8080
0300
0080
ENDCHAR
STARTCHAR 51BB
ENCODING 20923
SWIDTH 900 0
DWIDTH 15 0
BBX 12 14 2 -1
BITMAP
0200
0400
1FF0
8400
0400
0900
0900
0FF0
0100
0100
9930
1100
0100
0300
ENDCHAR
STARTCHAR 51BC
ENCODING 20924
SWIDTH 900 0
DWIDTH 15 0
BBX 13 14 1 -2
BITMAP
0880
8880
C880
0BE0
0080
0080
1FF0
0000
0000
0040
4840
8850
0878
1000
ENDCHAR
STARTCHAR 51BD
ENCODING 20925
SWIDTH 900 0
DWIDTH 15 0
BBX 13 14 1 -1
BITMAP
0008
1F08
C008
0808
0848
1748
0148
0148
0A48
0248
0208
4408
8408
0818
ENDCHAR
STARTCHAR 51C0
ENCODING 20928
SWIDTH 900 0
DWIDTH 15 0
BBX 13 15 1 -1
BITMAP
0400
0400
08C0
4040
0000
07E0
0120
1FF8
0120
07E0
0100
4100
8100
0100
0300
ENDCHAR
STARTCHAR 51C4
ENCODING 20932
SWIDTH 960 0
DWIDTH 16 0
BBX 14 16 1 -1
BITMAP
0080
0080
0FFC
4080
43F0
0090
0FF8
0090
03F0
0080
07F8
2100
C1B0
0070
0188
0600
ENDCHAR
STARTCHAR 51C6
ENCODING 20934
SWIDTH 840 0
DWIDTH 14 0
BBX 12 13 1 0
BITMAP
0040
0440
CC00
1BF0
0040
0040
09E0
0840
0840
09E0
C840
0800
0BF0
ENDCHAR
STARTCHAR 51C7
ENCODING 20935
SWIDTH 960 0
DWIDTH 16 0
BBX 14 13 1 0
BITMAP
0800
8810
C810
3E48
0888
0900
0800
2A40
4840
4848
8888
08E4
0800
ENDCHAR
STARTCHAR 51C9
ENCODING 20937
SWIDTH 900 0
DWIDTH 15 0
BBX 12 15 1 -1
BITMAP
0080
0080
0000
CFF0
4000
07E0
0420
0420
07E0
0000
0080
0890
D080
0080
0180
ENDCHAR
STARTCHAR 51CB
ENCODING 20939
SWIDTH 900 0
DWIDTH 15 0
BBX 11 13 2 -1
BITMAP
17E0
9120
9120
17A0
1020
17E0
1020
17A0
94A0
17A0
1020
2060
2000
ENDCHAR
STARTCHAR 51CC
ENCODING 20940
SWIDTH 960 0
DWIDTH 16 0
BBX 12 15 2 -2
BITMAP
0100
0FC0
C100
0100
1FF0
0000
1840
0060
0400
0D80
0880
C180
01C0
0630
0800
ENDCHAR
STARTCHAR 51CF
ENCODING 20943
SWIDTH 960 0
DWIDTH 16 0
BBX 14 14 1 -1
BITMAP
0020
0028
0028
4FF8
0020
0820
0820
0BA0
0828
0BB0
4AB0
92D0
1390
100C
ENDCHAR
STARTCHAR 51D1
ENCODING 20945
SWIDTH 900 0
DWIDTH 15 0
BBX 12 14 1 -1
BITMAP
0080
07F0
4100
07E0
0100
0FF0
0210
05E0
0080
0080
47F0
8100
0130
0200
ENDCHAR
STARTCHAR 51DB
ENCODING 20955
SWIDTH 840 0
DWIDTH 14 0
BBX 12 16 2 -2
BITMAP
0100
0100
0000
1FE0
9FE0
13A0
12A0
13A0
1FE0
0000
1FE0
0000
9FE0
0900
1130
0700
ENDCHAR
STARTCHAR 51DD
ENCODING 20957
SWIDTH 900 0
DWIDTH 15 0
BBX 13 14 1 -1
BITMAP
1000
10F0
9C10
9220
1E40
0020
1000
1FF8
2828
0820
3EB8
C920
1740
1178
ENDCHAR
STARTCHAR 51E0
ENCODING 20960
SWIDTH 900 0
DWIDTH 15 0
BBX 11 13 2 -2
BITMAP
2F00
2100
2100
2100
2100
2100
4100
4100
4100
4100
8120
81E0
8000
ENDCHAR
STARTCHAR 51E1
ENCODING 20961
SWIDTH 900 0
DWIDTH 15 0
BBX 11 14 2 -1
BITMAP
2F00
2100
2100
2100
2100
2100
2900
4500
4100
4100
4120
81E0
8000
8000
ENDCHAR
STARTCHAR 51E4
ENCODING 20964
SWIDTH 960 0
DWIDTH 16 0
BBX 12 14 2 -1
BITMAP
7FC0
0040
4040
4040
5F40
4140
4A40
4640
4640
4940
9040
8060
8030
0030
ENDCHAR
STARTCHAR 51EB
ENCODING 20971
SWIDTH 900 0
DWIDTH 15 0
BBX 11 15 2 -1
BITMAP
1800
1000
7F00
4100
4B00
4000
7FC0
0040
2040
3E40
42C0
4200
4220
83E0
8000
ENDCHAR
STARTCHAR 51ED
ENCODING 20973
SWIDTH 960 0
DWIDTH 16 0
BBX 11 15 3 -1
BITMAP
21C0
E700
0100
4FE0
4100
4100
47C0
0000
2F00
2100
2100
4100
4120
41E0
8000
ENDCHAR
STARTCHAR 51EF
ENCODING 20975
SWIDTH 900 0
DWIDTH 15 0
BBX 13 14 1 0
BITMAP
2000
A400
A5E0
FD20
0120
F920
0920
0920
F920
8220
8220
8228
C638
0400
ENDCHAR
STARTCHAR 51F0
ENCODING 20976
SWIDTH 900 0
DWIDTH 15 0
BBX 12 15 2 -1
BITMAP
7FC0
0040
4C40
5F40
5140
5D40
5140
5F40
5F40
4040
8440
8F40
8460
BFB0
0020
ENDCHAR
STARTCHAR 51F3
ENCODING 20979
SWIDTH 900 0
DWIDTH 15 0
BBX 11 15 2 -1
BITMAP
0240
F300
1100
AFE0
20C0
5F60
9120
1F00
0100
1200
FFE0
0000
1E00
2200
23C0
ENDCHAR
STARTCHAR 51F5
ENCODING 20981
SWIDTH 900 0
DWIDTH 15 0
BBX 11 11 2 0
BITMAP
8020
8020
8020
8020
8020
8020
8020
8020
8020
8020
FFE0
ENDCHAR
STARTCHAR 51F6
ENCODING 20982
SWIDTH 900 0
DWIDTH 15 0
BBX 11 14 2 1
BITMAP
0200
0200
0200
0200
9420
8C20
8620
8920
8820
9820
9020
8020
8020
FFE0
ENDCHAR
STARTCHAR 51F8
ENCODING 20984
SWIDTH 900 0
DWIDTH 15 0
BBX 11 15 2 -1
BITMAP
1F00
1100
1100
1100
1100
1100
F1E0
8020
8020
8020
8020
8020
8020
8020
FFE0
ENDCHAR
STARTCHAR 51F9
ENCODING 20985
SWIDTH 900 0
DWIDTH 15 0
BBX 11 13 2 0
BITMAP
F3E0
9220
9220
9220
9220
9220
9E20
8020
8020
8020
8020
8020
FFE0
ENDCHAR
STARTCHAR 51FA
ENCODING 20986
SWIDTH 960 0
DWIDTH 16 0
BBX 10 14 3 0
BITMAP
0800
0800
0800
4880
4880
4880
4880
7F80
0800
8840
8840
8840
8040
FFC0
ENDCHAR
STARTCHAR 51FB
ENCODING 20987
SWIDTH 900 0
DWIDTH 15 0
BBX 11 15 2 0
BITMAP
0400
0400
0400
7FC0
0400
0400
0400
0400
FFE0
0400
4440
4440
4040
4040
7FC0
ENDCHAR
STARTCHAR 51FC
ENCODING 20988
SWIDTH 900 0
DWIDTH 15 0
BBX 11 15 2 -1
BITMAP
0400
0400
8420
84A0
F520
9420
9520
A4A0
A420
8420
8420
8420
8420
8020
FFE0
ENDCHAR
STARTCHAR 51FD
ENCODING 20989
SWIDTH 960 0
DWIDTH 16 0
BBX 12 15 2 -1
BITMAP
3FC0
0080
0180
0100
8210
A2D0
9210
8210
8A90
9250
A210
8210
8610
8010
FFF0
ENDCHAR
STARTCHAR 51FF
ENCODING 20991
SWIDTH 960 0
DWIDTH 16 0
BBX 12 16 2 -2
BITMAP
0900
0900
4930
0920
0900
FFF0
0000
4920
4020
7FA0
4420
5F20
4420
4420
4020
7FE0
ENDCHAR
STARTCHAR 5200
ENCODING 20992
SWIDTH 900 0
DWIDTH 15 0
BBX 10 13 2 -1
BITMAP
7FC0
0040
0040
0840
1040
1040
1040
1040
2040
2040
40C0
4000
8000
ENDCHAR
STARTCHAR 5201
ENCODING 20993
SWIDTH 900 0
DWIDTH 15 0
BBX 10 14 2 -2
BITMAP
FFC0
0040
0040
0040
0040
0040
0640
0840
3040
4040
0040
0040
0040
00C0
ENDCHAR
STARTCHAR 5202
ENCODING 20994
SWIDTH 900 0
DWIDTH 15 0
BBX 3 13 11 -1
BITMAP
20
20
20
20
A0
A0
A0
A0
A0
20
20
20
60
ENDCHAR
STARTCHAR 5203
ENCODING 20995
SWIDTH 960 0
DWIDTH 16 0
BBX 10 13 3 -2
BITMAP
7FC0
0040
0440
0440
0440
4840
C840
8840
0840
1040
1040
20C0
2000
ENDCHAR
STARTCHAR 5206
ENCODING 20998
SWIDTH 900 0
DWIDTH 15 0
BBX 11 15 2 -1
BITMAP
0100
2180
20C0
4040
4020
8000
3F80
0080
0880
1080
1080
2080
2180
4000
4000
ENDCHAR
STARTCHAR 5207
ENCODING 20999
SWIDTH 840 0
DWIDTH 14 0
BBX 12 11 1 0
BITMAP
07F0
2010
2010
2110
F910
2110
2210
2210
2210
2410
0430
ENDCHAR
STARTCHAR 5208
ENCODING 21000
SWIDTH 900 0
DWIDTH 15 0
BBX 11 13 2 -1
BITMAP
0020
0020
0820
0820
10A0
D0A0
30A0
2CA0
60A0
4020
8020
0020
0060
ENDCHAR
STARTCHAR 520A
ENCODING 21002
SWIDTH 840 0
DWIDTH 14 0
BBX 12 13 1 -1
BITMAP
0010
7E10
0010
1010
1050
1050
FE50
1050
1050
1010
1010
1010
1030
ENDCHAR
STARTCHAR 520D
ENCODING 21005
SWIDTH 960 0
DWIDTH 16 0
BBX 10 15 3 0
BITMAP
1000
2000
4380
0080
0100
0000
FFC0
0040
0040
0040
3E40
0040
0040
0040
FFC0
ENDCHAR
STARTCHAR 520E
ENCODING 21006
SWIDTH 900 0
DWIDTH 15 0
BBX 12 13 2 0
BITMAP
4010
8010
BE10
0210
0250
2250
4250
5250
9250
2210
2210
0610
0030
ENDCHAR
STARTCHAR 5211
ENCODING 21009
SWIDTH 840 0
DWIDTH 14 0
BBX 12 13 1 0
BITMAP
0010
FE10
0410
0410
2450
2450
FE50
2450
2450
4410
4410
8410
0030
ENDCHAR
STARTCHAR 5212
ENCODING 21010
SWIDTH 840 0
DWIDTH 14 0
BBX 12 13 1 0
BITMAP
2010
2410
2410
2010
FE50
1050
1050
1250
0C50
3810
C810
0410
0210
ENDCHAR
STARTCHAR 5216
ENCODING 21014
SWIDTH 840 0
DWIDTH 14 0
BBX 12 13 1 0
BITMAP
0010
7E10
4210
4210
7A50
4250
4250
7A50
4250
4210
4210
4E10
8010
ENDCHAR
STARTCHAR 5217
ENCODING 21015
SWIDTH 960 0
DWIDTH 16 0
BBX 12 13 2 -1
BITMAP
0010
FC10
0010
0010
4090
BC90
0C90
0C90
2890
0810
1010
1010
2030
ENDCHAR
STARTCHAR 5218
ENCODING 21016
SWIDTH 960 0
DWIDTH 16 0
BBX 12 13 2 -1
BITMAP
1010
1010
0010
FE10
0090
0090
0890
3090
1090
2C10
2010
4010
0030
ENDCHAR
STARTCHAR 5219
ENCODING 21017
SWIDTH 900 0
DWIDTH 15 0
BBX 11 13 2 -1
BITMAP
FC20
8420
8420
9420
94A0
94A0
94A0
20A0
20A0
2820
4620
4020
8060
ENDCHAR
STARTCHAR 521A
ENCODING 21018
SWIDTH 900 0
DWIDTH 15 0
BBX 13 13 1 -2
BITMAP
FE08
8208
8208
8A08
8A48
8A48
B248
9E48
A248
C208
8208
8208
0638
ENDCHAR
STARTCHAR 521B
ENCODING 21019
SWIDTH 900 0
DWIDTH 15 0
BBX 12 14 2 -1
BITMAP
1000
1010
2010
6810
4610
8050
0050
7C50
4450
4450
4C10
4010
4210
7F30
ENDCHAR
STARTCHAR 521D
ENCODING 21021
SWIDTH 900 0
DWIDTH 15 0
BBX 12 14 2 -1
BITMAP
2000
2000
03F0
0010
F010
1110
2110
2910
4110
AA10
2210
2210
2430
2400
ENDCHAR
STARTCHAR 5220
ENCODING 21024
SWIDTH 900 0
DWIDTH 15 0
BBX 13 13 1 0
BITMAP
0008
5B88
4A88
4A88
4AA8
4AA8
FFE8
4EA8
4EA8
4E88
4E88
9C88
0418
ENDCHAR
STARTCHAR 5224
ENCODING 21028
SWIDTH 960 0
DWIDTH 16 0
BBX 12 13 2 0
BITMAP
1010
5010
5210
1010
7E90
3090
3090
FE90
2090
2010
2010
2010
4030
ENDCHAR
STARTCHAR 5228
ENCODING 21032
SWIDTH 900 0
DWIDTH 15 0
BBX 13 13 1 -1
BITMAP
4008
4008
9F08
8108
0128
5928
4928
4928
5928
4308
4008
4088
7F98
ENDCHAR
STARTCHAR 5229
ENCODING 21033
SWIDTH 840 0
DWIDTH 14 0
BBX 12 13 1 -1
BITMAP
0C10
3810
0010
1010
1050
1050
FE50
1050
1250
5110
9010
1010
1030
ENDCHAR
STARTCHAR 522B
ENCODING 21035
SWIDTH 900 0
DWIDTH 15 0
BBX 11 13 2 -1
BITMAP
FC20
8420
8420
8420
FC20
0020
4120
4120
FD20
4420
8420
8420
8C60
ENDCHAR
STARTCHAR 522D
ENCODING 21037
SWIDTH 900 0
DWIDTH 15 0
BBX 12 13 2 0
BITMAP
0010
7C10
0410
0810
3250
C050
0050
3E50
0850
0810
0810
1C10
7000
ENDCHAR
STARTCHAR 522E
ENCODING 21038
SWIDTH 840 0
DWIDTH 14 0
BBX 12 13 1 -1
BITMAP
0010
F010
0010
1010
1050
FF50
1050
0050
0050
7C10
4410
4410
7C30
ENDCHAR
STARTCHAR 5230
ENCODING 21040
SWIDTH 900 0
DWIDTH 15 0
BBX 11 13 2 -1
BITMAP
0020
FE20
0020
4020
72A0
F0A0
40A0
10A0
7CA0
1020
1020
1C20
F060
ENDCHAR
STARTCHAR 5233
ENCODING 21043
SWIDTH 900 0
DWIDTH 15 0
BBX 13 14 1 1
BITMAP
0C00
0808
7F08
1008
3208
6128
DE28
0028
7F28
1028
1F08
0108
0108
0308
ENDCHAR
STARTCHAR 5236
ENCODING 21046
SWIDTH 840 0
DWIDTH 14 0
BBX 12 14 1 -1
BITMAP
0800
0810
4810
7E10
8810
FF50
0850
0850
7E50
4A50
4A10
4A10
4E10
0830
ENDCHAR
STARTCHAR 5237
ENCODING 21047
SWIDTH 900 0
DWIDTH 15 0
BBX 13 14 1 -1
BITMAP
5F08
4108
4108
5F08
4028
4428
4428
5FA8
54A8
9488
9588
8408
8418
0400
ENDCHAR
STARTCHAR 5238
ENCODING 21048
SWIDTH 900 0
DWIDTH 15 0
BBX 11 15 2 -2
BITMAP
0040
2440
0400
3FC0
0800
0800
FFE0
2000
60E0
DF80
0080
0880
0880
1180
2000
ENDCHAR
STARTCHAR 5239
ENCODING 21049
SWIDTH 900 0
DWIDTH 15 0
BBX 12 13 2 -1
BITMAP
0010
6810
3010
3810
4490
9090
1090
FC90
1090
1410
9010
1010
3030
ENDCHAR
STARTCHAR 523A
ENCODING 21050
SWIDTH 900 0
DWIDTH 15 0
BBX 12 14 2 -1
BITMAP
0810
0810
FF10
0810
0850
7E50
4A50
4A50
4A50
0810
4E10
8910
0830
0800
ENDCHAR
STARTCHAR 523B
ENCODING 21051
SWIDTH 960 0
DWIDTH 16 0
BBX 12 14 2 -2
BITMAP
1000
1010
FF10
0010
4010
4890
E890
1490
2490
6890
8810
1010
2310
4030
ENDCHAR
STARTCHAR 523D
ENCODING 21053
SWIDTH 960 0
DWIDTH 16 0
BBX 12 14 2 -1
BITMAP
1000
1010
2010
4C10
8210
0090
3890
0090
FE90
0090
2010
4410
4610
6230
ENDCHAR
STARTCHAR 523F
ENCODING 21055
SWIDTH 900 0
DWIDTH 15 0
BBX 12 15 2 -2
BITMAP
1000
9210
9210
FE10
0010
0050
4050
DE50
8450
2450
1810
0810
1010
2030
4000
ENDCHAR
STARTCHAR 5240
ENCODING 21056
SWIDTH 960 0
DWIDTH 16 0
BBX 12 14 2 -1
BITMAP
1000
1010
9210
8210
FE10
0090
FC90
0490
0490
7C90
4010
4010
4010
7030
ENDCHAR
STARTCHAR 5241
ENCODING 21057
SWIDTH 900 0
DWIDTH 15 0
BBX 12 14 2 -1
BITMAP
3C10
0410
4410
4410
8750
8050
1050
1050
FE50
1010
5210
D010
1030
1000
ENDCHAR
STARTCHAR 5242
ENCODING 21058
SWIDTH 960 0
DWIDTH 16 0
BBX 12 13 2 -1
BITMAP
1010
1010
FE10
0010
6C90
1890
3690
4090
0490
2410
4410
4410
8430
ENDCHAR
STARTCHAR 5243
ENCODING 21059
SWIDTH 900 0
DWIDTH 15 0
BBX 12 14 2 0
BITMAP
3410
0010
FE10
0210
0A50
7E50
4850
7F50
0950
0910
6910
8B10
0830
0800
ENDCHAR
STARTCHAR 524A
ENCODING 21066
SWIDTH 900 0
DWIDTH 15 0
BBX 13 15 1 -1
BITMAP
0800
0908
C808
0808
5F08
4148
4148
5D48
4148
4148
5D08
4108
4108
4118
0300
ENDCHAR
STARTCHAR 524B
ENCODING 21067
SWIDTH 840 0
DWIDTH 14 0
BBX 12 14 1 -1
BITMAP
1020
1020
FC20
10A0
7CA0
44A0
44A0
44A0
7C20
0020
2820
2800
4800
4FF0
ENDCHAR
STARTCHAR 524C
ENCODING 21068
SWIDTH 900 0
DWIDTH 15 0
BBX 13 14 1 -1
BITMAP
0808
0808
7F08
0808
0848
7E48
4A48
4A48
7E48
0808
4B08
8808
0818
0800
ENDCHAR
STARTCHAR 524D
ENCODING 21069
SWIDTH 900 0
DWIDTH 15 0
BBX 11 13 2 0
BITMAP
2080
0000
FFE0
0000
0020
B820
8920
B920
8920
B920
8820
8820
8860
ENDCHAR
STARTCHAR 5250
ENCODING 21072
SWIDTH 840 0
DWIDTH 14 0
BBX 12 14 1 -1
BITMAP
7E00
4210
4210
4210
7E10
0050
0850
FF50
9150
9150
A510
8110
8110
8330
ENDCHAR
STARTCHAR 5251
ENCODING 21073
SWIDTH 900 0
DWIDTH 15 0
BBX 13 13 1 -1
BITMAP
0408
0808
1208
2188
4028
9E28
0028
0928
0128
2008
0008
0708
1818
ENDCHAR
STARTCHAR 5254
ENCODING 21076
SWIDTH 900 0
DWIDTH 15 0
BBX 12 13 2 -1
BITMAP
7C10
4410
5C10
4410
7C50
4050
BE50
8250
2250
6A10
4A10
1210
1610
ENDCHAR
STARTCHAR 5256
ENCODING 21078
SWIDTH 840 0
DWIDTH 14 0
BBX 12 14 1 -1
BITMAP
1000
1010
0010
FE10
0010
4050
0850
FF50
0050
0050
7C10
4410
4410
7C30
ENDCHAR
STARTCHAR 525C
ENCODING 21084
SWIDTH 900 0
DWIDTH 15 0
BBX 13 14 1 -1
BITMAP
0800
0808
BF08
8108
8128
0028
8728
B528
1528
D508
2408
2408
4608
8418
ENDCHAR
STARTCHAR 525E
ENCODING 21086
SWIDTH 900 0
DWIDTH 15 0
BBX 13 15 1 -2
BITMAP
0800
0808
FF08
2008
2608
4028
0028
FFA8
0028
7228
5208
5208
7208
0218
0600
ENDCHAR
STARTCHAR 5261
ENCODING 21089
SWIDTH 900 0
DWIDTH 15 0
BBX 11 13 2 -1
BITMAP
1020
1020
A420
2020
48A0
80A0
10A0
10A0
A4A0
2020
2820
4420
8060
ENDCHAR
STARTCHAR 5265
ENCODING 21093
SWIDTH 900 0
DWIDTH 15 0
BBX 12 13 2 -1
BITMAP
7C10
0410
0410
3410
04D0
FFD0
00D0
10D0
D6D0
1010
5610
9110
3030
ENDCHAR
STARTCHAR 5267
ENCODING 21095
SWIDTH 900 0
DWIDTH 15 0
BBX 12 13 2 -1
BITMAP
5F10
4110
4110
5F10
4050
4450
5F50
4450
8450
9F10
9110
9110
1F30
ENDCHAR
STARTCHAR 5269
ENCODING 21097
SWIDTH 900 0
DWIDTH 15 0
BBX 13 14 1 0
BITMAP
1E08
2008
0808
0808
FF28
2A28
EB28
2A28
EA28
2B88
0808
4988
0818
0800
ENDCHAR
STARTCHAR 526A
ENCODING 21098
SWIDTH 960 0
DWIDTH 16 0
BBX 12 15 2 -1
BITMAP
2100
1000
FFF0
0000
7C40
7540
4540
7540
5CC0
4000
7FC0
0040
1040
2040
60C0
ENDCHAR
STARTCHAR 526F
ENCODING 21103
SWIDTH 840 0
DWIDTH 14 0
BBX 12 14 1 -1
BITMAP
FF10
0010
0010
7C10
4410
4450
7C50
0050
FF50
9150
BD10
9110
9110
FF30
ENDCHAR
STARTCHAR 5272
ENCODING 21106
SWIDTH 960 0
DWIDTH 16 0
BBX 12 14 2 0
BITMAP
1000
1010
BE10
8210
1010
7E90
1090
3C90
FE90
1090
0010
7C10
4410
7C30
ENDCHAR
STARTCHAR 527D
ENCODING 21117
SWIDTH 840 0
DWIDTH 14 0
BBX 12 15 1 -2
BITMAP
FE00
0010
2810
FE10
AA10
AA50
FE50
0050
7C50
0050
FE10
1010
1210
9030
3000
ENDCHAR
STARTCHAR 527F
ENCODING 21119
SWIDTH 900 0
DWIDTH 15 0
BBX 13 15 1 -1
BITMAP
2800
4908
6908
0008
7F08
4928
5F28
4928
7F28
0828
FF88
0808
0908
C898
0800
ENDCHAR
STARTCHAR 5281
ENCODING 21121
SWIDTH 900 0
DWIDTH 15 0
BBX 13 12 1 -1
BITMAP
2408
DF88
0408
4428
5F28
4428
5F28
4428
5F88
0008
0088
8418
ENDCHAR
STARTCHAR 5282
ENCODING 21122
SWIDTH 960 0
DWIDTH 16 0
BBX 14 13 1 -1
BITMAP
7FC4
0004
5404
4114
7D14
42D4
6C14
6D14
BD04
9104
9104
3244
240C
ENDCHAR
STARTCHAR 5288
ENCODING 21128
SWIDTH 900 0
DWIDTH 15 0
BBX 12 16 1 -2
BITMAP
0040
7800
49E0
4800
7880
43F0
BC40
A5E0
3C40
0040
7FC0
0840
0840
1040
2040
4000
ENDCHAR
STARTCHAR 5290
ENCODING 21136
SWIDTH 900 0
DWIDTH 15 0
BBX 13 15 1 -2
BITMAP
1200
7F88
1208
2408
4008
9FA8
4F28
4228
4F28
5FA8
0008
3F08
0208
0E18
7180
ENDCHAR
STARTCHAR 5293
ENCODING 21139
SWIDTH 840 0
DWIDTH 14 0
BBX 12 15 1 0
BITMAP
0800
0010
3E10
3A10
3A10
3E50
0050
7F50
4950
5D50
4150
7F10
FF10
2430
4400
ENDCHAR
STARTCHAR 529B
ENCODING 21147
SWIDTH 900 0
DWIDTH 15 0
BBX 9 14 3 -2
BITMAP
1000
1000
1000
1000
FF80
2080
2080
2080
2080
4080
4080
4080
8180
8000
ENDCHAR
STARTCHAR 529D
ENCODING 21149
SWIDTH 900 0
DWIDTH 15 0
BBX 11 14 2 -1
BITMAP
0100
0100
0100
F100
37E0
2120
2120
E220
7220
CA20
8220
0260
0420
0400
ENDCHAR
STARTCHAR 529E
ENCODING 21150
SWIDTH 900 0
DWIDTH 15 0
BBX 12 15 1 0
BITMAP
0800
0800
0800
0800
7F80
0880
1080
5080
50B0
9080
1080
2080
2180
2000
4000
ENDCHAR
STARTCHAR 529F
ENCODING 21151
SWIDTH 900 0
DWIDTH 15 0
BBX 12 14 2 -1
BITMAP
0100
0100
0100
F100
07F0
2110
2110
2110
2210
0210
7210
0230
0400
0400
ENDCHAR
STARTCHAR 52A0
ENCODING 21152
SWIDTH 900 0
DWIDTH 15 0
BBX 13 14 1 -1
BITMAP
2000
2000
2000
2000
FDF8
2508
2508
2508
4508
4508
4508
45F8
8400
8000
ENDCHAR
STARTCHAR 52A1
ENCODING 21153
SWIDTH 900 0
DWIDTH 15 0
BBX 11 16 2 -2
BITMAP
1000
3000
2FC0
4080
0100
1E00
0F00
F0E0
0400
0400
3FC0
0840
1040
30C0
2000
4000
ENDCHAR
STARTCHAR 52A2
ENCODING 21154
SWIDTH 960 0
DWIDTH 16 0
BBX 14 14 1 0
BITMAP
0020
FC20
0020
4020
41FC
5C2C
442C
442C
844C
844C
8C4C
008C
0180
0100
ENDCHAR
STARTCHAR 52A3
ENCODING 21155
SWIDTH 840 0
DWIDTH 14 0
BBX 10 16 2 -2
BITMAP
0400
0400
24C0
4400
04C0
0180
0E00
F000
0800
1800
FFC0
1040
2040
2040
40C0
8000
ENDCHAR
STARTCHAR 52A8
ENCODING 21160
SWIDTH 900 0
DWIDTH 15 0
BBX 13 14 1 -1
BITMAP
0080
0080
7C80
0080
01F8
0088
FC88
0088
2108
4108
4508
FB08
0118
0100
ENDCHAR
STARTCHAR 52A9
ENCODING 21161
SWIDTH 900 0
DWIDTH 15 0
BBX 13 13 1 0
BITMAP
0040
7C40
4440
4440
77F8
45D8
75D8
45D8
4598
4198
1D18
E318
0200
ENDCHAR
STARTCHAR 52AA
ENCODING 21162
SWIDTH 900 0
DWIDTH 15 0
BBX 11 15 2 -1
BITMAP
2000
FBE0
4840
4940
70E0
1D00
2200
4400
0800
7FC0
0840
1040
1040
20C0
4000
ENDCHAR
STARTCHAR 52AB
ENCODING 21163
SWIDTH 900 0
DWIDTH 15 0
BBX 13 15 1 0
BITMAP
0040
1040
1040
FC40
11F8
1048
0048
FE48
0088
6088
4488
4688
F318
0100
0100
ENDCHAR
STARTCHAR 52AC
ENCODING 21164
SWIDTH 960 0
DWIDTH 16 0
BBX 14 14 1 -1
BITMAP
0040
0040
4040
4040
9E40
82FC
0244
7244
5244
5284
7284
0284
068C
0080
ENDCHAR
STARTCHAR 52AD
ENCODING 21165
SWIDTH 900 0
DWIDTH 15 0
BBX 13 15 1 -2
BITMAP
0040
0040
7C40
0440
2440
4DF8
4448
8048
0088
7C88
4488
4488
4518
7D00
0100
ENDCHAR
STARTCHAR 52B1
ENCODING 21169
SWIDTH 900 0
DWIDTH 15 0
BBX 13 15 1 -1
BITMAP
0040
3F40
0040
4040
5FF8
4048
4848
4E48
4A88
4A88
9288
9298
9288
2100
0100
ENDCHAR
STARTCHAR 52B2
ENCODING 21170
SWIDTH 900 0
DWIDTH 15 0
BBX 13 14 1 -1
BITMAP
0040
0040
7840
0840
11F8
2648
C048
0048
7C88
1088
1088
1098
1908
6100
ENDCHAR
STARTCHAR 52B3
ENCODING 21171
SWIDTH 900 0
DWIDTH 15 0
BBX 11 15 2 -2
BITMAP
1100
1100
FFE0
1100
0000
BFC0
8040
8840
0800
7F80
1080
1080
2080
2080
4000
ENDCHAR
STARTCHAR 52BE
ENCODING 21182
SWIDTH 900 0
DWIDTH 15 0
BBX 13 15 1 -2
BITMAP
1040
1040
FE40
0040
49F8
4848
F048
1448
2488
4888
9088
1088
6698
8100
0100
ENDCHAR
STARTCHAR 52BF
ENCODING 21183
SWIDTH 900 0
DWIDTH 15 0
BBX 10 14 3 -1
BITMAP
2200
F780
2280
7280
AE80
2580
6440
1000
1000
FF80
2080
2080
2180
4000
ENDCHAR
STARTCHAR 52C3
ENCODING 21187
SWIDTH 900 0
DWIDTH 15 0
BBX 13 15 1 -2
BITMAP
1040
1040
7C40
1040
0040
FDF8
8448
FC48
0888
1088
3C88
D088
1098
1100
3100
ENDCHAR
STARTCHAR 52C7
ENCODING 21191
SWIDTH 900 0
DWIDTH 15 0
BBX 9 16 3 -2
BITMAP
7F00
0200
1400
0C00
BF80
8880
BE80
8880
BE80
8880
1000
FF80
2080
4080
4180
8000
ENDCHAR
STARTCHAR 52C9
ENCODING 21193
SWIDTH 900 0
DWIDTH 15 0
BBX 13 15 1 -1
BITMAP
4080
4080
B880
09F0
1090
FD10
A510
A510
FD10
2130
4900
4800
4810
8FF8
8000
ENDCHAR
STARTCHAR 52CB
ENCODING 21195
SWIDTH 900 0
DWIDTH 15 0
BBX 12 14 2 -1
BITMAP
0080
7880
4880
7880
03F0
0090
FC90
8510
8510
A510
2110
4910
8600
0200
ENDCHAR
STARTCHAR 52D0
ENCODING 21200
SWIDTH 900 0
DWIDTH 15 0
BBX 13 15 1 -2
BITMAP
0040
7C40
0840
FE40
11F8
1048
3048
0048
FE88
AA88
AA88
8298
0F08
F900
0100
ENDCHAR
STARTCHAR 52D2
ENCODING 21202
SWIDTH 840 0
DWIDTH 14 0
BBX 12 14 1 0
BITMAP
2880
FC80
2880
3880
11F0
FC90
9490
9490
FC90
1090
FF10
1130
1100
0200
ENDCHAR
STARTCHAR 52D6
ENCODING 21206
SWIDTH 900 0
DWIDTH 15 0
BBX 13 15 1 -1
BITMAP
0040
BE40
8240
B240
8240
B3F8
0048
FC48
8488
B488
8488
B488
8518
FD00
0100
ENDCHAR
STARTCHAR 52D8
ENCODING 21208
SWIDTH 900 0
DWIDTH 15 0
BBX 13 15 1 -2
BITMAP
4400
4440
FE40
4440
4440
55F8
4488
5488
4488
0088
FE88
0108
5518
4100
7E00
ENDCHAR
STARTCHAR 52DF
ENCODING 21215
SWIDTH 900 0
DWIDTH 15 0
BBX 11 16 2 -1
BITMAP
1200
FFC0
1200
0000
3F00
2D00
2100
3F00
0000
FFE0
6080
C8C0
3F00
1100
1300
2000
ENDCHAR
STARTCHAR 52E4
ENCODING 21220
SWIDTH 900 0
DWIDTH 15 0
BBX 13 15 1 -1
BITMAP
2440
FF40
2440
3C40
1040
7EF8
5248
5248
7E48
7F88
1088
7E88
1098
0E80
7000
ENDCHAR
STARTCHAR 52F0
ENCODING 21232
SWIDTH 960 0
DWIDTH 16 0
BBX 14 16 1 -2
BITMAP
1000
3000
7DF8
2528
2528
4578
4D28
0108
49F8
4800
EE20
6A00
6B44
AB40
B650
8078
ENDCHAR
STARTCHAR 52F9
ENCODING 21241
SWIDTH 960 0
DWIDTH 16 0
BBX 10 14 3 -1
BITMAP
2000
6000
4FC0
8040
0040
0040
0040
0040
0040
0040
0040
0040
0040
00C0
ENDCHAR
STARTCHAR 52FA
ENCODING 21242
SWIDTH 960 0
DWIDTH 16 0
BBX 10 14 3 -1
BITMAP
2000
6000
4FC0
8040
0040
0040
1040
1840
0C40
0040
0040
0040
0040
00C0
ENDCHAR
STARTCHAR 52FE
ENCODING 21246
SWIDTH 960 0
DWIDTH 16 0
BBX 10 14 3 -1
BITMAP
2000
6000
4FC0
8040
0040
1040
2040
2440
4240
7940
0040
0040
0040
00C0
ENDCHAR
STARTCHAR 52FF
ENCODING 21247
SWIDTH 900 0
DWIDTH 15 0
BBX 11 14 2 0
BITMAP
1000
2000
47E0
4020
0020
0820
1120
1220
2220
4620
8420
0820
1020
0060
ENDCHAR
STARTCHAR 5300
ENCODING 21248
SWIDTH 900 0
DWIDTH 15 0
BBX 10 14 3 -1
BITMAP
2000
4000
4FC0
8040
0040
0040
1840
0040
0040
0C40
3040
C040
0040
00C0
ENDCHAR
STARTCHAR 5305
ENCODING 21253
SWIDTH 900 0
DWIDTH 15 0
BBX 12 14 1 1
BITMAP
1000
2000
67E0
4020
8020
2E20
2220
2220
2220
2E20
2060
2000
2010
3FF0
ENDCHAR
STARTCHAR 5306
ENCODING 21254
SWIDTH 900 0
DWIDTH 15 0
BBX 10 14 3 0
BITMAP
2000
6000
4FC0
8040
0040
1240
5240
3440
2C40
4A40
8940
1040
2040
00C0
ENDCHAR
STARTCHAR 5308
ENCODING 21256
SWIDTH 960 0
DWIDTH 16 0
BBX 10 14 3 -1
BITMAP
2000
4000
CFC0
8040
0840
2840
BA40
9A40
9A40
A240
A240
FE40
0040
00C0
ENDCHAR
STARTCHAR 530D
ENCODING 21261
SWIDTH 900 0
DWIDTH 15 0
BBX 11 16 2 -2
BITMAP
2000
4000
4FE0
8020
0B20
0820
FFA0
0820
BF20
8920
BD20
8920
BD20
8920
8B20
8120
ENDCHAR
STARTCHAR 530F
ENCODING 21263
SWIDTH 900 0
DWIDTH 15 0
BBX 13 13 1 0
BITMAP
3000
2100
7D78
4A08
8408
F9E8
0128
FD28
41F8
7D00
0500
0508
0DF8
ENDCHAR
STARTCHAR 5310
ENCODING 21264
SWIDTH 900 0
DWIDTH 15 0
BBX 11 16 2 -2
BITMAP
2000
4000
9FE0
8020
7F20
0020
3E20
2220
3E20
0020
7F20
4920
7D20
4920
7F20
0060
ENDCHAR
STARTCHAR 5315
ENCODING 21269
SWIDTH 900 0
DWIDTH 15 0
BBX 9 12 3 0
BITMAP
8000
8000
8000
8300
8C00
8000
8000
8000
8000
8000
8080
FF80
ENDCHAR
STARTCHAR 5316
ENCODING 21270
SWIDTH 900 0
DWIDTH 15 0
BBX 12 12 1 0
BITMAP
0100
1100
2100
4110
8160
2180
2700
2100
2100
2100
2110
21F0
ENDCHAR
STARTCHAR 5317
ENCODING 21271
SWIDTH 900 0
DWIDTH 15 0
BBX 11 14 2 -1
BITMAP
1000
1200
1200
1200
1200
F2C0
1280
1200
1200
D200
1220
13E0
1000
1000
ENDCHAR
STARTCHAR 5319
ENCODING 21273
SWIDTH 840 0
DWIDTH 14 0
BBX 12 15 1 -2
BITMAP
7C00
4480
5C80
4490
44A0
7C80
0080
FE80
0080
4890
4EF0
4800
A800
9000
8FF0
ENDCHAR
STARTCHAR 531A
ENCODING 21274
SWIDTH 900 0
DWIDTH 15 0
BBX 10 14 2 -1
BITMAP
FFC0
8000
8000
8000
8000
8000
8000
8000
8000
8000
8000
8000
8000
FFC0
ENDCHAR
STARTCHAR 531D
ENCODING 21277
SWIDTH 900 0
DWIDTH 15 0
BBX 10 14 2 -1
BITMAP
FFC0
8000
8400
8400
AF80
A480
A480
A480
A580
8400
8400
8400
8000
FFC0
ENDCHAR
STARTCHAR 5320
ENCODING 21280
SWIDTH 900 0
DWIDTH 15 0
BBX 10 14 2 -1
BITMAP
FFC0
8000
8000
9780
9000
9000
97C0
9000
9100
A100
A100
A100
8000
FFC0
ENDCHAR
STARTCHAR 5321
ENCODING 21281
SWIDTH 900 0
DWIDTH 15 0
BBX 10 14 2 -1
BITMAP
FFC0
8000
9F80
8000
8400
8400
9F00
8400
8400
8000
BF80
8000
8000
FFC0
ENDCHAR
STARTCHAR 5323
ENCODING 21283
SWIDTH 900 0
DWIDTH 15 0
BBX 10 15 2 -2
BITMAP
FFC0
8000
8000
BFC0
A440
A440
AF40
A440
BFC0
8400
8400
8400
8400
8000
FFC0
ENDCHAR
STARTCHAR 5326
ENCODING 21286
SWIDTH 900 0
DWIDTH 15 0
BBX 11 14 2 -1
BITMAP
FFC0
8000
9100
BD00
93C0
9940
A940
BD40
8940
8E60
BA60
8A00
8000
FFC0
ENDCHAR
STARTCHAR 532A
ENCODING 21290
SWIDTH 900 0
DWIDTH 15 0
BBX 11 14 2 -1
BITMAP
FFC0
8000
8A00
BAC0
8A00
8A00
BAC0
8A00
8A00
FAE0
8A00
8A00
8000
FFC0
ENDCHAR
STARTCHAR 532E
ENCODING 21294
SWIDTH 900 0
DWIDTH 15 0
BBX 10 14 2 -1
BITMAP
FFC0
8400
9F80
9480
9F80
8400
BFC0
9F00
9100
9500
9900
99C0
A000
FFC0
ENDCHAR
STARTCHAR 5339
ENCODING 21305
SWIDTH 840 0
DWIDTH 14 0
BBX 10 14 2 -1
BITMAP
FFC0
8000
8000
8800
8A00
8A00
8A00
9200
9200
93C0
A000
8000
8000
FFC0
ENDCHAR
STARTCHAR 533A
ENCODING 21306
SWIDTH 900 0
DWIDTH 15 0
BBX 10 13 2 -1
BITMAP
FFC0
8000
8000
8100
9100
8E00
8600
8500
8880
9000
A000
8000
FFC0
ENDCHAR
STARTCHAR 533B
ENCODING 21307
SWIDTH 900 0
DWIDTH 15 0
BBX 11 14 2 -1
BITMAP
FFC0
8000
8000
8800
8380
8200
8200
BFC0
8400
8400
88C0
9800
8000
FFE0
ENDCHAR
STARTCHAR 533E
ENCODING 21310
SWIDTH 900 0
DWIDTH 15 0
BBX 11 14 2 0
BITMAP
FFE0
8000
8200
97C0
9040
9040
97C0
9BE0
9820
ABA0
AB20
AB20
8060
FFE0
ENDCHAR
STARTCHAR 533F
ENCODING 21311
SWIDTH 900 0
DWIDTH 15 0
BBX 11 13 2 0
BITMAP
FFE0
8900
BFC0
8900
8900
8400
BFC0
8800
9F80
B480
8480
8780
FFE0
ENDCHAR
STARTCHAR 5341
ENCODING 21313
SWIDTH 900 0
DWIDTH 15 0
BBX 11 14 2 -1
BITMAP
0400
0400
0400
0400
0400
FFE0
0400
0400
0400
0400
0400
0400
0400
0400
ENDCHAR
STARTCHAR 5343
ENCODING 21315
SWIDTH 900 0
DWIDTH 15 0
BBX 11 14 2 0
BITMAP
3F00
0000
0400
0400
0400
0400
FFE0
0400
0400
0400
0400
0400
0400
0400
ENDCHAR
STARTCHAR 5345
ENCODING 21317
SWIDTH 960 0
DWIDTH 16 0
BBX 12 14 2 -2
BITMAP
2040
2440
2440
2440
2440
2440
FFF0
2440
2440
2440
2440
4440
4040
4040
ENDCHAR
STARTCHAR 5347
ENCODING 21319
SWIDTH 960 0
DWIDTH 16 0
BBX 12 15 2 -1
BITMAP
0100
1900
7100
0100
1100
1100
1100
FFF0
2100
2100
2100
6100
4100
4100
0100
ENDCHAR
STARTCHAR 5348
ENCODING 21320
SWIDTH 960 0
DWIDTH 16 0
BBX 12 15 2 -1
BITMAP
2000
2000
4FC0
4000
0200
0200
0200
FFF0
0200
0200
0200
0200
0200
0200
0200
ENDCHAR
STARTCHAR 5349
ENCODING 21321
SWIDTH 960 0
DWIDTH 16 0
BBX 12 15 2 -2
BITMAP
0400
0400
0400
7FC0
0400
0400
1400
1080
1080
FFF0
2080
2080
2080
2080
4080
ENDCHAR
STARTCHAR 534A
ENCODING 21322
SWIDTH 900 0
DWIDTH 15 0
BBX 11 15 2 -1
BITMAP
0400
0400
4480
0400
0400
7F80
0400
0400
0400
FFE0
0400
0400
0400
0400
0400
ENDCHAR
STARTCHAR 534D
ENCODING 21325
SWIDTH 900 0
DWIDTH 15 0
BBX 11 15 2 -1
BITMAP
0040
0040
FC40
0440
0440
0440
0440
FFC0
8400
8400
8400
8400
8400
87E0
8000
ENDCHAR
STARTCHAR 534E
ENCODING 21326
SWIDTH 960 0
DWIDTH 16 0
BBX 12 14 2 0
BITMAP
2100
4100
81C0
2700
2100
2120
21E0
0400
0400
0400
FFF0
0400
0400
0400
ENDCHAR
STARTCHAR 534F
ENCODING 21327
SWIDTH 900 0
DWIDTH 15 0
BBX 13 14 1 -2
BITMAP
0100
2100
2100
2100
27E0
F120
2120
2528
2920
2220
2220
2260
0400
0400
ENDCHAR
STARTCHAR 5351
ENCODING 21329
SWIDTH 900 0
DWIDTH 15 0
BBX 11 15 2 -1
BITMAP
0800
1000
3F80
2080
2480
3E80
2880
2880
3F80
2200
0200
FFE0
0200
0200
0200
ENDCHAR
STARTCHAR 5352
ENCODING 21330
SWIDTH 900 0
DWIDTH 15 0
BBX 11 16 2 -2
BITMAP
0400
0400
FFC0
0000
2100
2100
2100
4280
4240
8000
0400
FFE0
0400
0400
0400
0400
ENDCHAR
STARTCHAR 5353
ENCODING 21331
SWIDTH 900 0
DWIDTH 15 0
BBX 11 15 2 -1
BITMAP
0400
0400
05C0
0400
3F80
2080
2E80
2080
2080
3F80
0400
0400
FFE0
0400
0400
ENDCHAR
STARTCHAR 5355
ENCODING 21333
SWIDTH 960 0
DWIDTH 16 0
BBX 12 15 2 0
BITMAP
1100
0100
3F80
2080
2480
2F80
2480
3F80
0400
0400
FFF0
0400
0400
0400
0400
ENDCHAR
STARTCHAR 5356
ENCODING 21334
SWIDTH 960 0
DWIDTH 16 0
BBX 12 15 2 -2
BITMAP
0400
0400
7F80
0400
FFE0
0020
1400
0400
E400
0400
FFF0
0800
0900
11E0
2000
ENDCHAR
STARTCHAR 5357
ENCODING 21335
SWIDTH 900 0
DWIDTH 15 0
BBX 11 15 2 -1
BITMAP
0400
0400
FFE0
0400
7FC0
4040
5A40
4040
5F40
4040
5FC0
4440
4440
4440
4040
ENDCHAR
STARTCHAR 535A
ENCODING 21338
SWIDTH 960 0
DWIDTH 16 0
BBX 14 14 1 -1
BITMAP
0058
27F8
2040
23F8
2248
FAE8
22E8
2248
2010
27FC
2010
2090
0010
0030
ENDCHAR
STARTCHAR 535C
ENCODING 21340
SWIDTH 900 0
DWIDTH 15 0
BBX 6 14 5 -1
BITMAP
80
80
80
80
80
90
8C
80
80
80
80
80
80
80
ENDCHAR
STARTCHAR 535E
ENCODING 21342
SWIDTH 900 0
DWIDTH 15 0
BBX 11 16 2 -1
BITMAP
0400
0400
0000
FFE0
0000
0400
0400
0400
0480
0440
0400
0400
0400
0400
0400
0400
ENDCHAR
STARTCHAR 535F
ENCODING 21343
SWIDTH 840 0
DWIDTH 14 0
BBX 12 14 1 -1
BITMAP
0100
0100
0100
F900
8900
8900
8970
8900
8900
F900
0100
0100
0100
0100
ENDCHAR
STARTCHAR 5360
ENCODING 21344
SWIDTH 900 0
DWIDTH 15 0
BBX 9 15 3 -1
BITMAP
0800
0800
0800
0F80
0800
0800
0800
FF00
8100
8100
8100
8100
8100
8100
FF00
ENDCHAR
STARTCHAR 5361
ENCODING 21345
SWIDTH 900 0
DWIDTH 15 0
BBX 11 14 2 -1
BITMAP
0400
0400
07C0
0400
0400
FFE0
0000
0400
0400
04C0
0400
0400
0400
0400
ENDCHAR
STARTCHAR 5362
ENCODING 21346
SWIDTH 900 0
DWIDTH 15 0
BBX 11 14 2 -2
BITMAP
0400
05E0
0400
0400
5FC0
4040
4040
4040
5FC0
4000
4000
8000
8000
8000
ENDCHAR
STARTCHAR 5363
ENCODING 21347
SWIDTH 840 0
DWIDTH 14 0
BBX 10 15 2 -1
BITMAP
0800
0800
0BC0
0800
0800
0000
FFC0
8040
8040
BE40
8240
BE40
8040
8040
FFC0
ENDCHAR
STARTCHAR 5364
ENCODING 21348
SWIDTH 840 0
DWIDTH 14 0
BBX 10 15 2 -1
BITMAP
0800
0800
0BC0
0800
0800
FFC0
8040
8240
8440
8C40
8C40
9240
A040
8040
FFC0
ENDCHAR
STARTCHAR 5366
ENCODING 21350
SWIDTH 900 0
DWIDTH 15 0
BBX 13 15 1 -1
BITMAP
1080
1080
1080
7C80
1080
0080
FC80
10B8
1080
7C80
1080
1080
1C80
6080
0080
ENDCHAR
STARTCHAR 5367
ENCODING 21351
SWIDTH 900 0
DWIDTH 15 0
BBX 13 14 1 -1
BITMAP
0080
FC80
0080
9080
9080
FE80
82B8
8280
FE80
8880
8880
8880
FE80
0080
ENDCHAR
STARTCHAR 5369
ENCODING 21353
SWIDTH 900 0
DWIDTH 15 0
BBX 5 11 9 0
BITMAP
F8
08
88
88
88
88
98
80
80
80
80
ENDCHAR
STARTCHAR 536B
ENCODING 21355
SWIDTH 960 0
DWIDTH 16 0
BBX 12 13 2 -1
BITMAP
7FC0
0040
0440
0440
0440
0440
0440
0440
0400
0400
0400
0000
FFF0
ENDCHAR
STARTCHAR 536E
ENCODING 21358
SWIDTH 900 0
DWIDTH 15 0
BBX 11 15 2 -1
BITMAP
01C0
1F80
4000
4000
5FE0
4000
4000
5780
5080
9080
9080
9180
9000
1020
1FE0
ENDCHAR
STARTCHAR 536F
ENCODING 21359
SWIDTH 900 0
DWIDTH 15 0
BBX 11 12 2 0
BITMAP
3000
C3E0
8020
8120
9120
9120
9120
D160
2100
2100
4100
4100
ENDCHAR
STARTCHAR 5370
ENCODING 21360
SWIDTH 900 0
DWIDTH 15 0
BBX 11 12 2 0
BITMAP
3800
C3E0
8020
8220
BA20
8220
8220
8260
C220
0200
0200
0200
ENDCHAR
STARTCHAR 5371
ENCODING 21361
SWIDTH 900 0
DWIDTH 15 0
BBX 12 15 1 0
BITMAP
2000
6780
4100
0100
0000
5FE0
4000
4780
4880
4880
4880
8880
8800
8810
0FF0
ENDCHAR
STARTCHAR 5373
ENCODING 21363
SWIDTH 900 0
DWIDTH 15 0
BBX 11 12 2 0
BITMAP
BBE0
8820
B920
8920
8920
F920
8120
8160
8100
8900
C100
0100
ENDCHAR
STARTCHAR 5374
ENCODING 21364
SWIDTH 900 0
DWIDTH 15 0
BBX 13 13 1 0
BITMAP
1000
10F8
7E08
1008
1088
1088
FE88
0088
0098
2080
2480
4280
7080
ENDCHAR
STARTCHAR 5375
ENCODING 21365
SWIDTH 900 0
DWIDTH 15 0
BBX 11 14 2 -1
BITMAP
2000
82E0
8220
8A20
8A20
AAA0
8A20
8A20
8A20
D260
1200
1200
2200
2200
ENDCHAR
STARTCHAR 5377
ENCODING 21367
SWIDTH 900 0
DWIDTH 15 0
BBX 11 14 2 1
BITMAP
2240
0200
7F80
0400
0800
FFE0
3000
6060
1780
1080
1180
1000
1040
1FC0
ENDCHAR
STARTCHAR 5378
ENCODING 21368
SWIDTH 900 0
DWIDTH 15 0
BBX 13 13 1 0
BITMAP
4000
5E00
0878
0808
0888
FE88
0888
4E88
4898
4880
0080
0E80
7080
ENDCHAR
STARTCHAR 537A
ENCODING 21370
SWIDTH 900 0
DWIDTH 15 0
BBX 11 15 2 -1
BITMAP
3F00
0300
E640
2400
4480
CC60
0000
FFE0
0000
2F00
2100
2300
2000
2040
3FE0
ENDCHAR
STARTCHAR 537F
ENCODING 21375
SWIDTH 960 0
DWIDTH 16 0
BBX 14 13 1 -1
BITMAP
7B80
08BC
8B84
88A4
A8A4
ABA4
A824
E82C
2820
48A0
4F60
8E20
8000
ENDCHAR
STARTCHAR 5382
ENCODING 21378
SWIDTH 900 0
DWIDTH 15 0
BBX 11 14 2 -2
BITMAP
7FE0
0000
4000
4000
4000
4000
4000
4000
4000
4000
8000
8000
8000
8000
ENDCHAR
STARTCHAR 5384
ENCODING 21380
SWIDTH 900 0
DWIDTH 15 0
BBX 11 13 2 -1
BITMAP
7FE0
4000
4000
4780
4880
4880
4880
4980
8800
8800
8800
8820
0FE0
ENDCHAR
STARTCHAR 5385
ENCODING 21381
SWIDTH 900 0
DWIDTH 15 0
BBX 11 13 2 -2
BITMAP
7FE0
0000
4000
4FE0
4000
4100
4100
4100
8100
8100
8100
8100
0300
ENDCHAR
STARTCHAR 5386
ENCODING 21382
SWIDTH 900 0
DWIDTH 15 0
BBX 11 13 2 -2
BITMAP
7FE0
0000
4200
4200
4200
4FE0
4420
4420
8420
8420
8820
8860
8800
ENDCHAR
STARTCHAR 5389
ENCODING 21385
SWIDTH 900 0
DWIDTH 15 0
BBX 11 14 2 -2
BITMAP
7FE0
0000
4000
5FE0
4000
4400
4400
47C0
4840
4840
8840
8840
90C0
1000
ENDCHAR
STARTCHAR 538B
ENCODING 21387
SWIDTH 900 0
DWIDTH 15 0
BBX 11 13 2 -1
BITMAP
7FC0
0000
4000
4200
4200
4200
4FC0
4200
4200
8240
8200
8000
9FE0
ENDCHAR
STARTCHAR 538C
ENCODING 21388
SWIDTH 900 0
DWIDTH 15 0
BBX 11 14 2 -2
BITMAP
7FE0
0000
4000
4100
4140
4240
4200
5FE0
4200
8200
8400
84E0
8800
0800
ENDCHAR
STARTCHAR 538D
ENCODING 21389
SWIDTH 960 0
DWIDTH 16 0
BBX 12 15 2 -1
BITMAP
7FF0
0000
4200
4400
4FE0
4400
4400
4500
47C0
8100
8100
8FF0
8100
8100
0100
ENDCHAR
STARTCHAR 5395
ENCODING 21397
SWIDTH 900 0
DWIDTH 15 0
BBX 12 13 2 -2
BITMAP
7FF0
0000
4010
5F10
5150
5550
5550
5550
5550
8810
8B10
8810
1030
ENDCHAR
STARTCHAR 5398
ENCODING 21400
SWIDTH 900 0
DWIDTH 15 0
BBX 12 15 2 -1
BITMAP
7FE0
0000
4000
4FE0
4820
4BA0
4920
4920
4FE0
8100
8100
8FE0
8100
8100
1FF0
ENDCHAR
STARTCHAR 539A
ENCODING 21402
SWIDTH 900 0
DWIDTH 15 0
BBX 11 14 2 -1
BITMAP
7FE0
0000
4F80
4880
4B80
4880
4F80
4000
4F80
8100
BFE0
8100
0100
0300
ENDCHAR
STARTCHAR 539D
ENCODING 21405
SWIDTH 840 0
DWIDTH 14 0
BBX 12 15 1 -1
BITMAP
7FF0
0000
4280
4280
4FE0
4280
4000
5FF0
8000
87E0
8420
85A0
8420
8420
07E0
ENDCHAR
STARTCHAR 539F
ENCODING 21407
SWIDTH 900 0
DWIDTH 15 0
BBX 12 15 2 -3
BITMAP
7FE0
0000
4200
4000
4FC0
4840
4B40
4840
4FC0
4000
8100
8960
B110
0100
0300
ENDCHAR
STARTCHAR 53A2
ENCODING 21410
SWIDTH 840 0
DWIDTH 14 0
BBX 12 13 1 -1
BITMAP
7FF0
0000
4000
48F0
4890
4890
4CF0
4890
4A90
98F0
8890
8890
88F0
ENDCHAR
STARTCHAR 53A3
ENCODING 21411
SWIDTH 900 0
DWIDTH 15 0
BBX 12 15 2 -1
BITMAP
7FF0
0000
4140
4100
5FE0
4600
4860
4FE0
4820
8920
8BA0
8920
8FE0
0100
0100
ENDCHAR
STARTCHAR 53A5
ENCODING 21413
SWIDTH 900 0
DWIDTH 15 0
BBX 12 14 2 -1
BITMAP
7FF0
0000
4000
5A40
4080
5EB0
4410
5600
5640
9640
9E40
8880
88B0
1100
ENDCHAR
STARTCHAR 53A6
ENCODING 21414
SWIDTH 900 0
DWIDTH 15 0
BBX 12 15 2 -2
BITMAP
7FF0
0000
4FF0
4100
4000
4FE0
49A0
4B20
4820
4FE0
8400
8BC0
9040
0380
0E70
ENDCHAR
STARTCHAR 53A8
ENCODING 21416
SWIDTH 960 0
DWIDTH 16 0
BBX 13 13 2 -1
BITMAP
7FF0
0000
5F20
4020
4020
5EF8
5220
5EA0
4060
8220
9020
8620
1860
ENDCHAR
STARTCHAR 53A9
ENCODING 21417
SWIDTH 900 0
DWIDTH 15 0
BBX 13 15 1 -1
BITMAP
7FF0
0000
4000
56F0
5200
5240
56C0
52C0
96F0
9040
94A0
92A0
98A8
0138
0100
ENDCHAR
STARTCHAR 53AE
ENCODING 21422
SWIDTH 900 0
DWIDTH 15 0
BBX 13 15 1 -2
BITMAP
7FF0
4000
4A00
4A30
5F00
4A40
4E40
4A78
8E40
8A50
BF90
8090
8A90
8810
1010
ENDCHAR
STARTCHAR 53B6
ENCODING 21430
SWIDTH 900 0
DWIDTH 15 0
BBX 11 10 2 2
BITMAP
1800
1000
1000
2000
2000
4100
4080
C040
9E60
F020
ENDCHAR
STARTCHAR 53BB
ENCODING 21435
SWIDTH 960 0
DWIDTH 16 0
BBX 12 14 2 0
BITMAP
0400
0400
0400
3FC0
0400
0400
0000
FFF0
0000
0000
1080
10C0
1040
3E20
ENDCHAR
STARTCHAR 53BF
ENCODING 21439
SWIDTH 960 0
DWIDTH 16 0
BBX 12 14 2 -2
BITMAP
1F80
1080
1080
1680
1080
1080
1680
1080
0000
FFF0
0800
1880
1080
3F40
ENDCHAR
STARTCHAR 53C1
ENCODING 21441
SWIDTH 960 0
DWIDTH 16 0
BBX 12 14 2 0
BITMAP
1800
3180
3EC0
3800
0800
0800
FFF0
2000
4E60
8000
3F00
0000
0000
FFF0
ENDCHAR
STARTCHAR 53C2
ENCODING 21442
SWIDTH 960 0
DWIDTH 16 0
BBX 12 15 2 -1
BITMAP
1000
1180
3E40
3C00
0800
0800
FFF0
2000
6CE0
C000
0300
3C00
0040
0F80
F000
ENDCHAR
STARTCHAR 53C8
ENCODING 21448
SWIDTH 900 0
DWIDTH 15 0
BBX 11 12 2 0
BITMAP
7FC0
0040
0080
0080
1100
0F00
0600
0D00
1880
3060
4000
8000
ENDCHAR
STARTCHAR 53C9
ENCODING 21449
SWIDTH 900 0
DWIDTH 15 0
BBX 10 12 2 0
BITMAP
7FC0
0040
0480
0080
1100
0B00
0600
0700
0880
3040
4000
8000
ENDCHAR
STARTCHAR 53CA
ENCODING 21450
SWIDTH 900 0
DWIDTH 15 0
BBX 11 13 2 -2
BITMAP
FE00
0200
2400
2400
2780
2080
4100
4500
4200
4380
8460
8800
1000
ENDCHAR
STARTCHAR 53CB
ENCODING 21451
SWIDTH 900 0
DWIDTH 15 0
BBX 11 15 2 0
BITMAP
0800
1000
1000
FFE0
1000
1000
2000
2F80
2080
4180
4700
8380
0460
1800
2000
ENDCHAR
STARTCHAR 53CC
ENCODING 21452
SWIDTH 900 0
DWIDTH 15 0
BBX 11 12 2 -1
BITMAP
FBE0
0820
0840
0840
1040
D340
3980
20C0
2120
4100
4200
8200
ENDCHAR
STARTCHAR 53CD
ENCODING 21453
SWIDTH 900 0
DWIDTH 15 0
BBX 11 14 2 0
BITMAP
03C0
1E00
4000
4000
4000
4F80
4080
4180
8700
8380
8460
8800
1000
2000
ENDCHAR
STARTCHAR 53D1
ENCODING 21457
SWIDTH 840 0
DWIDTH 14 0
BBX 10 14 2 0
BITMAP
5100
5100
9000
FFC0
1000
1000
2F80
2180
2100
4600
4780
8440
0800
3000
ENDCHAR
STARTCHAR 53D4
ENCODING 21460
SWIDTH 900 0
DWIDTH 15 0
BBX 13 14 1 -1
BITMAP
1000
1000
1600
1000
10F0
FE30
0020
10A0
1060
5370
9088
1080
1100
1000
ENDCHAR
STARTCHAR 53D6
ENCODING 21462
SWIDTH 840 0
DWIDTH 14 0
BBX 12 12 1 0
BITMAP
FC00
0000
49E0
7820
4840
7940
48C0
48E0
1CB0
E900
0900
0A00
ENDCHAR
STARTCHAR 53D7
ENCODING 21463
SWIDTH 900 0
DWIDTH 15 0
BBX 11 14 2 -1
BITMAP
7F80
0480
2500
8000
BFE0
8020
1F00
0100
0200
0E00
0700
08C0
3000
4000
ENDCHAR
STARTCHAR 53D8
ENCODING 21464
SWIDTH 900 0
DWIDTH 15 0
BBX 12 14 2 -1
BITMAP
0400
0400
FFE0
0000
1100
9130
1100
3F00
0100
0300
1E00
0F00
10C0
6000
ENDCHAR
STARTCHAR 53D9
ENCODING 21465
SWIDTH 900 0
DWIDTH 15 0
BBX 13 13 1 -1
BITMAP
1000
1000
2000
4C00
81E0
3820
1020
10A0
FCC0
1070
1498
9180
3200
ENDCHAR
STARTCHAR 53DB
ENCODING 21467
SWIDTH 900 0
DWIDTH 15 0
BBX 13 13 1 -1
BITMAP
22F0
A200
2A00
2200
7A00
22F0
2210
FC20
4460
4420
4450
0088
0100
ENDCHAR
STARTCHAR 53DF
ENCODING 21471
SWIDTH 960 0
DWIDTH 16 0
BBX 10 14 3 -1
BITMAP
1400
A7C0
8440
B740
8440
8440
FFC0
0400
7F80
0180
1200
0C00
1BC0
E000
ENDCHAR
STARTCHAR 53E0
ENCODING 21472
SWIDTH 840 0
DWIDTH 14 0
BBX 12 15 1 -1
BITMAP
1F80
1180
0E00
39C0
7BE0
39C0
E720
8000
9FF0
9F90
1080
1680
1080
1680
FFF0
ENDCHAR
STARTCHAR 53E3
ENCODING 21475
SWIDTH 960 0
DWIDTH 16 0
BBX 10 11 3 1
BITMAP
FFC0
8040
8040
8040
8040
8040
8040
8040
8040
8040
FFC0
ENDCHAR
STARTCHAR 53E4
ENCODING 21476
SWIDTH 900 0
DWIDTH 15 0
BBX 11 13 2 0
BITMAP
0400
0400
FFE0
0400
0400
0400
0000
3F80
2080
2080
2080
2080
3F80
ENDCHAR
STARTCHAR 53E5
ENCODING 21477
SWIDTH 960 0
DWIDTH 16 0
BBX 10 14 3 -1
BITMAP
2000
6000
4FC0
8040
0040
0040
7C40
4440
4440
4440
7C40
0040
0040
00C0
ENDCHAR
STARTCHAR 53E6
ENCODING 21478
SWIDTH 960 0
DWIDTH 16 0
BBX 10 14 3 -2
BITMAP
7F80
4080
4080
4080
7F80
0000
0800
1800
FFC0
1040
2040
2040
40C0
8000
ENDCHAR
STARTCHAR 53E8
ENCODING 21480
SWIDTH 840 0
DWIDTH 14 0
BBX 12 12 1 -1
BITMAP
07F0
0010
F010
9010
9110
9110
9210
F210
0210
0410
0430
0400
ENDCHAR
STARTCHAR 53E9
ENCODING 21481
SWIDTH 960 0
DWIDTH 16 0
BBX 12 12 2 0
BITMAP
01F0
0010
F110
9110
9110
9110
9110
F130
0100
0100
0100
0100
ENDCHAR
STARTCHAR 53EA
ENCODING 21482
SWIDTH 840 0
DWIDTH 14 0
BBX 10 14 2 -2
BITMAP
7F80
4080
4080
4080
4080
4080
7F80
0000
0000
0200
2180
40C0
4000
8000
ENDCHAR
STARTCHAR 53EB
ENCODING 21483
SWIDTH 900 0
DWIDTH 15 0
BBX 11 13 2 0
BITMAP
0020
0020
0020
F120
9120
9120
9120
9120
F1A0
0020
0020
0020
0020
ENDCHAR
STARTCHAR 53EC
ENCODING 21484
SWIDTH 900 0
DWIDTH 15 0
BBX 9 14 3 -1
BITMAP
FF80
0080
2080
2080
4080
4080
8000
7F00
4100
4100
4100
4100
4100
7F00
ENDCHAR
STARTCHAR 53ED
ENCODING 21485
SWIDTH 900 0
DWIDTH 15 0
BBX 12 14 1 0
BITMAP
0040
0040
0240
F240
9240
9220
9220
9420
9420
F420
0410
0410
0810
0800
ENDCHAR
STARTCHAR 53EE
ENCODING 21486
SWIDTH 900 0
DWIDTH 15 0
BBX 11 12 2 -1
BITMAP
07E0
0000
F040
9040
9040
9040
9040
9040
F040
0040
0040
00C0
ENDCHAR
STARTCHAR 53EF
ENCODING 21487
SWIDTH 900 0
DWIDTH 15 0
BBX 11 13 2 -2
BITMAP
FFE0
0000
0080
7C80
4480
4480
4480
7C80
0080
0080
0080
0080
0180
ENDCHAR
STARTCHAR 53F0
ENCODING 21488
SWIDTH 900 0
DWIDTH 15 0
BBX 9 14 3 -1
BITMAP
2000
2000
4200
4300
4580
F880
0000
0000
7F00
4100
4100
4100
4100
7F00
ENDCHAR
STARTCHAR 53F1
ENCODING 21489
SWIDTH 900 0
DWIDTH 15 0
BBX 13 12 1 0
BITMAP
0100
0100
F100
9110
9160
9180
9700
9100
F100
0100
0108
01F8
ENDCHAR
STARTCHAR 53F2
ENCODING 21490
SWIDTH 900 0
DWIDTH 15 0
BBX 9 15 3 -1
BITMAP
0800
0800
0800
FF80
8880
8880
9080
FF80
1000
1000
E000
3C00
4380
4000
8000
ENDCHAR
STARTCHAR 53F3
ENCODING 21491
SWIDTH 900 0
DWIDTH 15 0
BBX 11 15 2 0
BITMAP
0800
0800
0800
FFE0
1000
1000
2000
2000
4000
5F80
9080
1080
1080
1080
1F80
ENDCHAR
STARTCHAR 53F5
ENCODING 21493
SWIDTH 900 0
DWIDTH 15 0
BBX 10 13 2 0
BITMAP
FFC0
8000
8000
8000
9F80
9080
9080
9080
9F80
8000
8000
8000
FFC0
ENDCHAR
STARTCHAR 53F6
ENCODING 21494
SWIDTH 840 0
DWIDTH 14 0
BBX 12 13 1 0
BITMAP
0080
0080
0080
F080
9080
9080
97F0
9080
F080
0080
0080
0080
0080
ENDCHAR
STARTCHAR 53F7
ENCODING 21495
SWIDTH 900 0
DWIDTH 15 0
BBX 11 15 2 -2
BITMAP
3F00
2100
2100
2100
3F00
0000
FFE0
1000
1000
1F80
0080
0080
0080
0080
0180
ENDCHAR
STARTCHAR 53F8
ENCODING 21496
SWIDTH 960 0
DWIDTH 16 0
BBX 10 14 3 -1
BITMAP
7FC0
0040
0040
FE40
0040
0040
7C40
4440
4440
4440
7C40
0040
0040
00C0
ENDCHAR
STARTCHAR 53F9
ENCODING 21497
SWIDTH 900 0
DWIDTH 15 0
BBX 12 11 1 0
BITMAP
07E0
F020
9040
9040
9240
9180
90C0
F130
0200
0400
0800
ENDCHAR
STARTCHAR 53FB
ENCODING 21499
SWIDTH 960 0
DWIDTH 16 0
BBX 12 14 2 -1
BITMAP
0100
0100
0100
F100
93F0
9110
9110
9110
9210
F210
0210
0230
0200
0400
ENDCHAR
STARTCHAR 53FC
ENCODING 21500
SWIDTH 960 0
DWIDTH 16 0
BBX 12 12 2 -1
BITMAP
07F0
0010
F010
9010
9010
9090
9110
9210
F010
0010
0010
0030
ENDCHAR
STARTCHAR 53FD
ENCODING 21501
SWIDTH 840 0
DWIDTH 14 0
BBX 12 13 1 -1
BITMAP
03C0
0240
F240
9240
9240
9240
9240
F240
0440
0450
0470
0800
0800
ENDCHAR
STARTCHAR 5401
ENCODING 21505
SWIDTH 840 0
DWIDTH 14 0
BBX 12 12 1 -1
BITMAP
03F0
0000
F040
9040
9040
97F0
9040
9040
F040
0040
0040
00C0
ENDCHAR
STARTCHAR 5403
ENCODING 21507
SWIDTH 900 0
DWIDTH 15 0
BBX 12 14 1 1
BITMAP
0200
0200
0200
F4F0
9000
9000
9000
97E0
9040
F0C0
0080
0100
0210
03F0
ENDCHAR
STARTCHAR 5404
ENCODING 21508
SWIDTH 900 0
DWIDTH 15 0
BBX 10 15 2 0
BITMAP
1000
3000
27C0
4080
0100
1E00
0700
18C0
E000
1F80
1080
1080
1080
1080
1F80
ENDCHAR
STARTCHAR 5406
ENCODING 21510
SWIDTH 900 0
DWIDTH 15 0
BBX 13 12 1 0
BITMAP
0080
0100
F100
9200
9220
9740
9040
9080
F100
0210
03F0
0788
ENDCHAR
STARTCHAR 5408
ENCODING 21512
SWIDTH 900 0
DWIDTH 15 0
BBX 10 13 3 0
BITMAP
0800
0800
1000
2300
C0C0
0000
3E00
0000
3F00
2100
2100
2100
3F00
ENDCHAR
STARTCHAR 5409
ENCODING 21513
SWIDTH 900 0
DWIDTH 15 0
BBX 11 15 2 0
BITMAP
0400
0400
0400
FFE0
0400
0400
0000
3F80
0000
3F80
2080
2080
2080
2080
3F80
ENDCHAR
STARTCHAR 540A
ENCODING 21514
SWIDTH 900 0
DWIDTH 15 0
BBX 9 15 3 -1
BITMAP
7F00
4100
4100
4100
7F00
0000
0800
0800
FF80
8880
8880
8880
8880
0800
0800
ENDCHAR
STARTCHAR 540B
ENCODING 21515
SWIDTH 840 0
DWIDTH 14 0
BBX 12 12 1 -1
BITMAP
0040
0040
F040
97F0
9040
9040
9240
9040
F040
0040
0040
00C0
ENDCHAR
STARTCHAR 540C
ENCODING 21516
SWIDTH 900 0
DWIDTH 15 0
BBX 10 14 2 -1
BITMAP
BFC0
8040
8040
BE40
8040
8040
9E40
9240
9240
9240
9E40
8040
8040
80C0
ENDCHAR
STARTCHAR 540D
ENCODING 21517
SWIDTH 960 0
DWIDTH 16 0
BBX 9 15 4 0
BITMAP
2000
4000
8F80
8100
2300
0600
0C00
3000
C000
3F80
2080
2080
2080
2080
3F80
ENDCHAR
STARTCHAR 540E
ENCODING 21518
SWIDTH 900 0
DWIDTH 15 0
BBX 11 13 2 0
BITMAP
0380
5C00
4000
4000
4000
5FE0
4000
8F80
8880
8880
8880
8880
0F80
ENDCHAR
STARTCHAR 540F
ENCODING 21519
SWIDTH 900 0
DWIDTH 15 0
BBX 11 15 2 -1
BITMAP
0400
0400
FFE0
0400
0400
7FC0
4440
4440
7FC0
0800
6800
1C00
3380
6060
4000
ENDCHAR
STARTCHAR 5410
ENCODING 21520
SWIDTH 840 0
DWIDTH 14 0
BBX 12 12 1 0
BITMAP
0080
0080
0080
F080
9080
93F0
9080
9080
F080
0080
0000
0FF0
ENDCHAR
STARTCHAR 5411
ENCODING 21521
SWIDTH 840 0
DWIDTH 14 0
BBX 10 15 2 -1
BITMAP
1000
0000
0000
FFC0
8040
8040
8040
9E40
9240
9240
9E40
8040
8040
8040
80C0
ENDCHAR
STARTCHAR 5412
ENCODING 21522
SWIDTH 900 0
DWIDTH 15 0
BBX 13 12 1 1
BITMAP
01E0
0200
F080
9080
9080
90F8
9780
9080
F080
0080
0088
00F8
ENDCHAR
STARTCHAR 5413
ENCODING 21523
SWIDTH 900 0
DWIDTH 15 0
BBX 12 13 1 -1
BITMAP
07F0
0000
0100
F100
9100
9100
9130
9100
F100
0100
0100
0100
0100
ENDCHAR
STARTCHAR 5415
ENCODING 21525
SWIDTH 960 0
DWIDTH 16 0
BBX 10 14 3 0
BITMAP
3F80
2080
2080
2080
3F80
0000
0000
0000
FFC0
8040
8040
8040
8040
FFC0
ENDCHAR
STARTCHAR 5416
ENCODING 21526
SWIDTH 900 0
DWIDTH 15 0
BBX 11 13 2 0
BITMAP
0220
0040
F000
9000
9080
9080
9080
9080
F080
0080
0080
0080
0080
ENDCHAR
STARTCHAR 5417
ENCODING 21527
SWIDTH 960 0
DWIDTH 16 0
BBX 12 13 2 0
BITMAP
07E0
0020
0020
F220
9220
9200
93F0
9010
9010
FF90
0010
0010
0070
ENDCHAR
STARTCHAR 541B
ENCODING 21531
SWIDTH 960 0
DWIDTH 16 0
BBX 12 14 2 -1
BITMAP
3F80
0080
0880
FFF0
0880
0880
7F80
1000
3000
2FC0
4840
4840
0840
0FC0
ENDCHAR
STARTCHAR 541D
ENCODING 21533
SWIDTH 900 0
DWIDTH 15 0
BBX 11 15 2 -1
BITMAP
0400
0400
FFE0
0000
0180
3B00
0F00
30E0
C000
3F80
2080
2080
2080
2080
3F80
ENDCHAR
STARTCHAR 541E
ENCODING 21534
SWIDTH 960 0
DWIDTH 16 0
BBX 12 14 2 -1
BITMAP
3FC0
0000
0400
FFF0
0800
1000
20E0
C000
1F80
1080
1080
1080
1080
1F80
ENDCHAR
STARTCHAR 541F
ENCODING 21535
SWIDTH 900 0
DWIDTH 15 0
BBX 12 13 1 0
BITMAP
0080
0100
0100
F120
9210
9480
9080
9000
93E0
F020
0040
0040
0080
ENDCHAR
STARTCHAR 5420
ENCODING 21536
SWIDTH 900 0
DWIDTH 15 0
BBX 13 12 1 2
BITMAP
0080
00A0
F0A0
9080
97F8
9100
9100
9100
F170
0208
0200
0200
ENDCHAR
STARTCHAR 5421
ENCODING 21537
SWIDTH 900 0
DWIDTH 15 0
BBX 13 13 1 0
BITMAP
0440
0440
0440
F440
9440
9750
9440
9440
F440
0440
0440
0748
0678
ENDCHAR
STARTCHAR 5423
ENCODING 21539
SWIDTH 900 0
DWIDTH 15 0
BBX 13 12 1 1
BITMAP
0080
0080
F000
9100
9100
9508
9508
9508
F100
0100
0110
01F0
ENDCHAR
STARTCHAR 5426
ENCODING 21542
SWIDTH 900 0
DWIDTH 15 0
BBX 11 14 2 -1
BITMAP
FFE0
0000
0400
0480
6460
0400
0400
0000
3F80
2080
2080
2080
2080
3F80
ENDCHAR
STARTCHAR 5427
ENCODING 21543
SWIDTH 900 0
DWIDTH 15 0
BBX 13 12 1 0
BITMAP
05F0
0410
0490
F490
9490
95F0
9400
9400
F400
0400
0408
07F8
ENDCHAR
STARTCHAR 5428
ENCODING 21544
SWIDTH 900 0
DWIDTH 15 0
BBX 12 13 1 0
BITMAP
0080
0080
07F0
F080
9080
9080
9290
9290
93F0
F080
0080
0090
00F0
ENDCHAR
STARTCHAR 5429
ENCODING 21545
SWIDTH 900 0
DWIDTH 15 0
BBX 13 13 1 0
BITMAP
0040
0040
0020
0110
F210
9608
9000
93F0
9010
F110
0110
0210
0230
ENDCHAR
STARTCHAR 542B
ENCODING 21547
SWIDTH 840 0
DWIDTH 14 0
BBX 10 15 2 0
BITMAP
1000
1000
2700
48C0
8800
3F00
0300
0200
0400
0000
3F00
2100
2100
2100
3F00
ENDCHAR
STARTCHAR 542C
ENCODING 21548
SWIDTH 900 0
DWIDTH 15 0
BBX 13 12 1 0
BITMAP
02F0
0200
F200
9200
9200
92F8
9220
F420
0420
0420
0820
0020
ENDCHAR
STARTCHAR 542D
ENCODING 21549
SWIDTH 900 0
DWIDTH 15 0
BBX 13 12 1 -1
BITMAP
0080
0080
07F0
F000
9000
9200
93C0
9240
9240
F240
0448
0478
ENDCHAR
STARTCHAR 542E
ENCODING 21550
SWIDTH 900 0
DWIDTH 15 0
BBX 13 13 1 0
BITMAP
0100
0200
F220
9620
9700
9000
9040
9240
F240
0248
0478
0400
0800
ENDCHAR
STARTCHAR 542F
ENCODING 21551
SWIDTH 900 0
DWIDTH 15 0
BBX 10 15 3 -1
BITMAP
0400
0400
0000
5FC0
4040
4040
5FC0
4000
4000
4000
4FC0
8840
8840
8840
0FC0
ENDCHAR
STARTCHAR 5431
ENCODING 21553
SWIDTH 900 0
DWIDTH 15 0
BBX 12 12 1 0
BITMAP
0080
0080
07F0
F080
9080
9080
93E0
9020
F1C0
00C0
0130
0200
ENDCHAR
STARTCHAR 5432
ENCODING 21554
SWIDTH 840 0
DWIDTH 14 0
BBX 12 13 1 0
BITMAP
0010
0790
0090
F090
9790
9410
9410
9790
F090
0090
0090
0190
0010
ENDCHAR
STARTCHAR 5434
ENCODING 21556
SWIDTH 900 0
DWIDTH 15 0
BBX 11 14 2 -2
BITMAP
3F00
2100
2100
3F00
0000
0000
3F80
0000
0800
FFE0
1000
1300
21C0
4000
ENDCHAR
STARTCHAR 5435
ENCODING 21557
SWIDTH 900 0
DWIDTH 15 0
BBX 12 14 1 -1
BITMAP
0080
0080
0080
0080
F0B0
9480
94A0
9020
9020
F040
0040
0080
0100
0200
ENDCHAR
STARTCHAR 5438
ENCODING 21560
SWIDTH 900 0
DWIDTH 15 0
BBX 13 12 1 0
BITMAP
07E0
F240
9240
9270
9210
9220
9420
F4C0
0470
0888
0900
0100
ENDCHAR
STARTCHAR 5439
ENCODING 21561
SWIDTH 900 0
DWIDTH 15 0
BBX 12 13 1 0
BITMAP
0200
0200
04F0
F010
9000
9000
9100
9100
F100
0200
0230
0400
0400
ENDCHAR
STARTCHAR 543B
ENCODING 21563
SWIDTH 960 0
DWIDTH 16 0
BBX 12 12 2 0
BITMAP
0200
0400
F1F0
9010
9110
9110
9210
9490
F490
0110
0110
0030
ENDCHAR
STARTCHAR 543C
ENCODING 21564
SWIDTH 900 0
DWIDTH 15 0
BBX 13 12 1 0
BITMAP
0720
0120
0120
F220
9220
9220
93A0
9E20
F220
0220
0228
0638
ENDCHAR
STARTCHAR 543E
ENCODING 21566
SWIDTH 900 0
DWIDTH 15 0
BBX 11 15 2 -1
BITMAP
7FC0
0000
0800
3F80
1080
1080
1080
0000
FFE0
0000
3F80
2080
2080
2080
3F80
ENDCHAR
STARTCHAR 5440
ENCODING 21568
SWIDTH 900 0
DWIDTH 15 0
BBX 13 13 1 0
BITMAP
07F0
0000
0020
F020
9220
9220
93F8
9020
F120
0220
0220
0460
0C00
ENDCHAR
STARTCHAR 5443
ENCODING 21571
SWIDTH 900 0
DWIDTH 15 0
BBX 13 13 1 0
BITMAP
0FF0
0000
0400
F400
95F0
9410
9490
9490
F480
0880
0880
0880
00F8
ENDCHAR
STARTCHAR 5446
ENCODING 21574
SWIDTH 900 0
DWIDTH 15 0
BBX 11 15 2 -1
BITMAP
3F00
2100
2100
2100
3F00
0000
0400
0400
FFE0
0400
0400
44C0
8420
0400
0400
ENDCHAR
STARTCHAR 5448
ENCODING 21576
SWIDTH 900 0
DWIDTH 15 0
BBX 11 14 2 0
BITMAP
3F80
2080
2080
2080
2080
3F80
0000
7FC0
0000
0400
3F00
0400
0400
FFE0
ENDCHAR
STARTCHAR 544A
ENCODING 21578
SWIDTH 960 0
DWIDTH 16 0
BBX 12 15 2 -1
BITMAP
0400
0400
4400
5F80
8400
0400
0000
FFF0
0000
0000
3F80
2080
2080
2080
3F80
ENDCHAR
STARTCHAR 544B
ENCODING 21579
SWIDTH 900 0
DWIDTH 15 0
BBX 12 13 1 0
BITMAP
0080
0080
F080
93F0
9080
9080
97F0
9100
F100
0120
0210
0200
0400
ENDCHAR
STARTCHAR 544E
ENCODING 21582
SWIDTH 900 0
DWIDTH 15 0
BBX 13 13 1 -1
BITMAP
03F0
0210
F210
9210
93F0
9200
9200
94C0
F460
0418
0400
0800
0800
ENDCHAR
STARTCHAR 5450
ENCODING 21584
SWIDTH 900 0
DWIDTH 15 0
BBX 13 13 1 -1
BITMAP
0080
0080
0080
F5F8
9488
9508
9548
9508
9508
F408
0408
0408
0418
ENDCHAR
STARTCHAR 5452
ENCODING 21586
SWIDTH 960 0
DWIDTH 16 0
BBX 14 13 1 -2
BITMAP
03F0
0000
F100
9100
9100
97F8
9200
9240
F240
0240
0248
047C
0400
ENDCHAR
STARTCHAR 5453
ENCODING 21587
SWIDTH 900 0
DWIDTH 15 0
BBX 13 13 1 1
BITMAP
0240
0FF0
0240
F240
9000
97E0
9020
9040
9080
F180
0100
0210
03F8
ENDCHAR
STARTCHAR 5454
ENCODING 21588
SWIDTH 900 0
DWIDTH 15 0
BBX 13 12 1 0
BITMAP
0080
0080
F080
9080
97F8
9100
9100
9120
F118
0200
0240
0200
ENDCHAR
STARTCHAR 5455
ENCODING 21589
SWIDTH 900 0
DWIDTH 15 0
BBX 12 12 1 0
BITMAP
07F0
0000
F400
9420
9520
94C0
9460
9480
F500
0400
0400
07F0
ENDCHAR
STARTCHAR 5456
ENCODING 21590
SWIDTH 900 0
DWIDTH 15 0
BBX 13 13 1 -1
BITMAP
03F8
0000
F400
9440
9440
95F8
9448
F488
0488
0888
0898
0100
0100
ENDCHAR
STARTCHAR 5457
ENCODING 21591
SWIDTH 900 0
DWIDTH 15 0
BBX 13 13 1 -2
BITMAP
03F0
0210
F210
9290
9290
9290
9290
9080
F100
0100
0170
0208
0400
ENDCHAR
STARTCHAR 5458
ENCODING 21592
SWIDTH 900 0
DWIDTH 15 0
BBX 10 15 2 -2
BITMAP
3F00
2100
2100
3F00
0000
0000
7FC0
4040
4440
4840
4840
1000
21C0
4000
8000
ENDCHAR
STARTCHAR 5459
ENCODING 21593
SWIDTH 840 0
DWIDTH 14 0
BBX 10 15 2 -2
BITMAP
3F00
2100
2100
2100
3F00
0000
0400
FFC0
8840
8840
9340
9040
8040
8040
80C0
ENDCHAR
STARTCHAR 545B
ENCODING 21595
SWIDTH 960 0
DWIDTH 16 0
BBX 14 14 1 -1
BITMAP
0080
0080
0100
0230
F40C
9000
93E0
9020
9220
F220
0220
0200
0208
03F8
ENDCHAR
STARTCHAR 545C
ENCODING 21596
SWIDTH 840 0
DWIDTH 14 0
BBX 12 15 1 0
BITMAP
0080
0000
0000
03E0
F220
9220
9220
9260
9200
93F0
F010
0010
07D0
0010
0030
ENDCHAR
STARTCHAR 5462
ENCODING 21602
SWIDTH 900 0
DWIDTH 15 0
BBX 13 13 1 -1
BITMAP
05F0
0410
0410
F5F0
9400
9400
9480
9490
F4E0
0880
0880
0898
08F8
ENDCHAR
STARTCHAR 5464
ENCODING 21604
SWIDTH 900 0
DWIDTH 15 0
BBX 12 13 1 0
BITMAP
0080
0100
0100
F230
9480
9080
9000
93E0
F020
0060
0040
0100
00C0
ENDCHAR
STARTCHAR 5466
ENCODING 21606
SWIDTH 900 0
DWIDTH 15 0
BBX 13 14 1 -1
BITMAP
0020
0420
0420
E920
AFF8
AA28
A228
A448
A448
E948
0E48
0898
0080
0080
ENDCHAR
STARTCHAR 5468
ENCODING 21608
SWIDTH 900 0
DWIDTH 15 0
BBX 11 14 2 -2
BITMAP
5FE0
4020
4420
4F20
4420
4420
5FA0
4020
4F20
8920
8920
8F20
8060
8000
ENDCHAR
STARTCHAR 546F
ENCODING 21615
SWIDTH 840 0
DWIDTH 14 0
BBX 12 12 1 0
BITMAP
07E0
0000
F0B0
92A0
9080
9FF0
9080
9080
F080
0080
0080
0080
ENDCHAR
STARTCHAR 5471
ENCODING 21617
SWIDTH 900 0
DWIDTH 15 0
BBX 13 12 1 0
BITMAP
03C0
0000
F400
94A0
9520
9520
9510
9510
F910
0950
09C8
0900
ENDCHAR
STARTCHAR 5472
ENCODING 21618
SWIDTH 900 0
DWIDTH 15 0
BBX 13 13 1 0
BITMAP
0020
0120
0120
F120
9528
95B0
9520
9520
9520
F520
0120
03A8
0438
ENDCHAR
STARTCHAR 5473
ENCODING 21619
SWIDTH 900 0
DWIDTH 15 0
BBX 12 14 1 -1
BITMAP
0080
0080
03F0
F080
9080
9080
97F0
9080
F080
02B0
0480
0080
0080
0080
ENDCHAR
STARTCHAR 5475
ENCODING 21621
SWIDTH 900 0
DWIDTH 15 0
BBX 13 12 1 -1
BITMAP
07F8
0000
F020
97A0
94A0
94A0
94A0
F7A0
0020
0020
0020
0020
ENDCHAR
STARTCHAR 5476
ENCODING 21622
SWIDTH 960 0
DWIDTH 16 0
BBX 14 13 1 0
BITMAP
0200
0600
0478
FF88
9488
9510
9D70
9930
973C
F320
06E0
0C40
0080
ENDCHAR
STARTCHAR 5477
ENCODING 21623
SWIDTH 960 0
DWIDTH 16 0
BBX 12 13 2 0
BITMAP
07F0
0490
F7D0
9490
9490
9490
97F0
9080
F080
0080
0080
0080
0080
ENDCHAR
STARTCHAR 5478
ENCODING 21624
SWIDTH 900 0
DWIDTH 15 0
BBX 12 12 1 0
BITMAP
07F0
0080
F180
9100
9200
94B0
9080
9080
F080
0080
0000
03F0
ENDCHAR
STARTCHAR 547B
ENCODING 21627
SWIDTH 900 0
DWIDTH 15 0
BBX 13 14 1 -1
BITMAP
0040
0040
0040
F7F8
9448
9448
95E8
9448
F448
07F8
0040
0040
0040
0040
ENDCHAR
STARTCHAR 547C
ENCODING 21628
SWIDTH 900 0
DWIDTH 15 0
BBX 13 12 1 1
BITMAP
03E0
0000
0080
F080
9080
9080
97F8
9080
F080
0080
0080
0180
ENDCHAR
STARTCHAR 547D
ENCODING 21629
SWIDTH 900 0
DWIDTH 15 0
BBX 10 14 3 0
BITMAP
0800
1000
2380
C040
1E00
0000
05C0
F440
9440
9440
F4C0
0400
0400
0400
ENDCHAR
STARTCHAR 5480
ENCODING 21632
SWIDTH 900 0
DWIDTH 15 0
BBX 13 12 1 0
BITMAP
03E0
0220
F220
93E0
9220
9220
9220
93E0
F220
0220
0220
0FF8
ENDCHAR
STARTCHAR 5482
ENCODING 21634
SWIDTH 840 0
DWIDTH 14 0
BBX 12 13 1 0
BITMAP
07F0
0000
0440
F440
95F0
9550
9550
9550
F550
0440
0440
0400
07F0
ENDCHAR
STARTCHAR 5484
ENCODING 21636
SWIDTH 900 0
DWIDTH 15 0
BBX 13 14 1 0
BITMAP
0080
0080
0490
F490
9490
97F0
9080
9080
9080
F488
0488
0488
0408
07F8
ENDCHAR
STARTCHAR 5486
ENCODING 21638
SWIDTH 900 0
DWIDTH 15 0
BBX 13 14 1 1
BITMAP
0400
0400
09F0
F010
9010
95D0
9450
9450
95D0
F430
0400
0400
0408
07F8
ENDCHAR
STARTCHAR 548B
ENCODING 21643
SWIDTH 900 0
DWIDTH 15 0
BBX 13 13 1 0
BITMAP
0200
0200
04F8
F400
9100
9100
9170
9100
F170
0100
0100
0100
0100
ENDCHAR
STARTCHAR 548C
ENCODING 21644
SWIDTH 900 0
DWIDTH 15 0
BBX 13 12 1 1
BITMAP
7800
0000
11F8
1108
FD08
1108
1108
5508
9108
11F8
1000
1000
ENDCHAR
STARTCHAR 548E
ENCODING 21646
SWIDTH 900 0
DWIDTH 15 0
BBX 13 16 1 -1
BITMAP
0040
2040
6040
4E50
0448
2440
1840
1C00
37F8
C000
1FE0
1020
1020
1020
1020
1FE0
ENDCHAR
STARTCHAR 548F
ENCODING 21647
SWIDTH 900 0
DWIDTH 15 0
BBX 13 14 1 1
BITMAP
0080
0080
0000
0780
F080
9080
9090
9E90
9280
F4B8
0480
0080
0080
0180
ENDCHAR
STARTCHAR 5490
ENCODING 21648
SWIDTH 900 0
DWIDTH 15 0
BBX 13 12 1 -1
BITMAP
0220
0620
0C20
F020
91F8
9420
9420
95A0
F420
0420
0420
0460
ENDCHAR
STARTCHAR 5492
ENCODING 21650
SWIDTH 900 0
DWIDTH 15 0
BBX 11 14 2 -1
BITMAP
F3C0
9240
9240
9240
F3C0
0000
2E00
2200
2200
2200
4240
43E0
4000
8000
ENDCHAR
STARTCHAR 5494
ENCODING 21652
SWIDTH 900 0
DWIDTH 15 0
BBX 13 14 1 0
BITMAP
0100
0100
0170
F100
9100
9000
97F8
9100
9100
F130
0110
0100
0100
0100
ENDCHAR
STARTCHAR 5495
ENCODING 21653
SWIDTH 900 0
DWIDTH 15 0
BBX 12 13 1 0
BITMAP
0080
0080
0080
F7F0
9080
9080
9000
93E0
9220
F220
0220
0220
03E0
ENDCHAR
STARTCHAR 5496
ENCODING 21654
SWIDTH 900 0
DWIDTH 15 0
BBX 13 13 1 0
BITMAP
0400
0400
0400
0400
FF00
9538
9528
9528
9528
F928
0938
0B00
0800
ENDCHAR
STARTCHAR 5499
ENCODING 21657
SWIDTH 960 0
DWIDTH 16 0
BBX 13 14 1 0
BITMAP
0100
0100
0120
0100
F100
97F8
9200
9240
9270
F2C0
0448
0478
0400
0400
ENDCHAR
STARTCHAR 549A
ENCODING 21658
SWIDTH 900 0
DWIDTH 15 0
BBX 13 14 1 0
BITMAP
0100
0100
02F0
F020
9020
90C0
90B0
9308
9400
F040
0020
0000
0180
0060
ENDCHAR
STARTCHAR 549B
ENCODING 21659
SWIDTH 900 0
DWIDTH 15 0
BBX 13 15 1 -1
BITMAP
0080
0080
0000
05F8
0408
F408
9000
93E0
9000
9040
F040
0040
0040
0040
00C0
ENDCHAR
STARTCHAR 549D
ENCODING 21661
SWIDTH 900 0
DWIDTH 15 0
BBX 13 13 1 1
BITMAP
0110
0210
0220
F420
9740
90F8
9118
9210
9620
F7A0
0070
0000
0FF8
ENDCHAR
STARTCHAR 54A3
ENCODING 21667
SWIDTH 960 0
DWIDTH 16 0
BBX 14 13 1 -1
BITMAP
0080
0080
0090
F280
9080
9000
97F8
9000
9140
F140
0240
0248
047C
ENDCHAR
STARTCHAR 54A4
ENCODING 21668
SWIDTH 900 0
DWIDTH 15 0
BBX 13 14 1 0
BITMAP
0080
0080
05F8
0408
F408
93E0
9000
9080
9080
91F8
F680
0080
0088
00F8
ENDCHAR
STARTCHAR 54A6
ENCODING 21670
SWIDTH 900 0
DWIDTH 15 0
BBX 12 14 1 -1
BITMAP
0080
07F0
0080
F080
97F0
9090
97F0
9500
97F0
F110
0130
0200
0230
0400
ENDCHAR
STARTCHAR 54A7
ENCODING 21671
SWIDTH 900 0
DWIDTH 15 0
BBX 13 14 1 -1
BITMAP
0008
0008
0F88
0208
F628
95A8
90A8
9128
9528
F328
0108
0208
0208
0418
ENDCHAR
STARTCHAR 54A8
ENCODING 21672
SWIDTH 900 0
DWIDTH 15 0
BBX 9 14 3 0
BITMAP
0800
9380
0080
0400
0400
8900
1180
2000
0000
7F00
4100
4100
4100
7F00
ENDCHAR
STARTCHAR 54A9
ENCODING 21673
SWIDTH 900 0
DWIDTH 15 0
BBX 13 13 1 1
BITMAP
0160
0000
07F0
F000
9080
9080
91E0
9080
F7F8
0080
0080
0080
0080
ENDCHAR
STARTCHAR 54AA
ENCODING 21674
SWIDTH 900 0
DWIDTH 15 0
BBX 13 15 1 -1
BITMAP
0080
0080
0080
0690
F0A0
9080
97F8
9080
9080
9090
F298
0480
0080
0080
0080
ENDCHAR
STARTCHAR 54AB
ENCODING 21675
SWIDTH 840 0
DWIDTH 14 0
BBX 12 14 1 -2
BITMAP
5C00
45F0
4510
4510
4510
5DF0
4000
4000
5110
5210
8800
8C00
83F0
8000
ENDCHAR
STARTCHAR 54AC
ENCODING 21676
SWIDTH 840 0
DWIDTH 14 0
BBX 12 14 1 -2
BITMAP
0080
0080
07F0
F000
9300
9630
9000
9020
9340
F1C0
00C0
0120
0210
0400
ENDCHAR
STARTCHAR 54AD
ENCODING 21677
SWIDTH 900 0
DWIDTH 15 0
BBX 13 13 1 0
BITMAP
0080
0080
07F8
F080
9000
93E0
9000
9000
93F0
F210
0210
0210
03F0
ENDCHAR
STARTCHAR 54AF
ENCODING 21679
SWIDTH 900 0
DWIDTH 15 0
BBX 13 14 1 0
BITMAP
0200
0200
04F0
0430
F020
91C0
91E0
9318
9000
9000
F3F0
0210
0210
03F0
ENDCHAR
STARTCHAR 54B1
ENCODING 21681
SWIDTH 960 0
DWIDTH 16 0
BBX 12 13 2 1
BITMAP
0080
0100
0000
F3F0
9210
9210
93D0
9210
9210
F3D0
0210
0210
03F0
ENDCHAR
STARTCHAR 54B3
ENCODING 21683
SWIDTH 900 0
DWIDTH 15 0
BBX 12 15 1 -2
BITMAP
0080
0080
0FF0
0000
F200
9240
9450
9290
90A0
9120
F240
0480
0100
0230
0400
ENDCHAR
STARTCHAR 54B4
ENCODING 21684
SWIDTH 960 0
DWIDTH 16 0
BBX 13 14 1 -2
BITMAP
0100
0100
0300
F7F8
9200
9240
9640
9458
9740
F880
0880
00B8
0080
0100
ENDCHAR
STARTCHAR 54B8
ENCODING 21688
SWIDTH 900 0
DWIDTH 15 0
BBX 12 15 2 0
BITMAP
00A0
00A0
0080
7FE0
0080
4080
5E80
4080
40A0
5E60
93C0
9240
9E40
8030
0010
ENDCHAR
STARTCHAR 54BB
ENCODING 21691
SWIDTH 900 0
DWIDTH 15 0
BBX 14 12 0 0
BITMAP
0120
0220
F420
98FC
9020
9420
9428
95A0
F420
0420
0420
0420
ENDCHAR
STARTCHAR 54BD
ENCODING 21693
SWIDTH 900 0
DWIDTH 15 0
BBX 13 12 1 0
BITMAP
07F8
0408
F448
94C8
9488
97E8
9488
9528
F508
0608
0408
07F8
ENDCHAR
STARTCHAR 54BF
ENCODING 21695
SWIDTH 960 0
DWIDTH 16 0
BBX 14 13 1 -2
BITMAP
03F0
0410
0C10
E850
A1FC
A450
A5F0
A480
E480
0480
0580
0500
0100
ENDCHAR
STARTCHAR 54C0
ENCODING 21696
SWIDTH 900 0
DWIDTH 15 0
BBX 11 16 2 -2
BITMAP
0400
0400
0000
FFE0
0000
1F80
1080
1080
1F80
0000
3080
6000
9000
10C0
1020
1800
ENDCHAR
STARTCHAR 54C1
ENCODING 21697
SWIDTH 900 0
DWIDTH 15 0
BBX 11 14 2 0
BITMAP
3F00
2100
2100
2100
2100
3F00
0000
0000
FBE0
8A20
8A20
8A20
8A20
FBE0
ENDCHAR
STARTCHAR 54C2
ENCODING 21698
SWIDTH 900 0
DWIDTH 15 0
BBX 13 13 1 0
BITMAP
07F8
0100
0100
F140
97F8
9548
9548
9648
9668
F608
0408
0408
07F8
ENDCHAR
STARTCHAR 54C4
ENCODING 21700
SWIDTH 900 0
DWIDTH 15 0
BBX 13 13 1 0
BITMAP
0020
0120
0120
F7F0
9120
9120
9000
97F8
9000
F000
0000
0110
0600
ENDCHAR
STARTCHAR 54C6
ENCODING 21702
SWIDTH 900 0
DWIDTH 15 0
BBX 12 14 2 -1
BITMAP
0100
0300
02E0
0420
F340
90C0
9180
9200
9100
F2F0
0430
0020
0040
0180
ENDCHAR
STARTCHAR 54C7
ENCODING 21703
SWIDTH 900 0
DWIDTH 15 0
BBX 12 13 1 0
BITMAP
0080
0080
03E0
F080
9080
97F0
9000
9080
9080
F7E0
0080
0080
07F0
ENDCHAR
STARTCHAR 54C8
ENCODING 21704
SWIDTH 900 0
DWIDTH 15 0
BBX 12 13 1 1
BITMAP
0080
0100
0140
F230
9400
91E0
9000
9000
F3E0
0220
0220
0220
03E0
ENDCHAR
STARTCHAR 54C9
ENCODING 21705
SWIDTH 960 0
DWIDTH 16 0
BBX 12 15 2 -2
BITMAP
0080
1080
7CA0
10A0
1080
1080
FFF0
0080
0080
0080
7CA0
44C0
4440
7C40
0030
ENDCHAR
STARTCHAR 54CC
ENCODING 21708
SWIDTH 900 0
DWIDTH 15 0
BBX 13 13 1 -1
BITMAP
0060
0380
0400
F460
9580
9400
9500
9510
9500
F560
0910
0908
0980
ENDCHAR
STARTCHAR 54CD
ENCODING 21709
SWIDTH 900 0
DWIDTH 15 0
BBX 13 14 1 -1
BITMAP
0080
0000
0000
05F8
F408
9408
95E8
9528
9528
9528
F5E8
0408
0408
0418
ENDCHAR
STARTCHAR 54CE
ENCODING 21710
SWIDTH 840 0
DWIDTH 14 0
BBX 12 12 1 -1
BITMAP
0240
0FF0
F240
9240
9000
9040
9240
9180
F0C0
0120
0200
0400
ENDCHAR
STARTCHAR 54CF
ENCODING 21711
SWIDTH 900 0
DWIDTH 15 0
BBX 13 14 1 -1
BITMAP
03F0
0210
0210
F3D0
9210
9210
93F0
9200
9210
F220
0200
0260
0218
0200
ENDCHAR
STARTCHAR 54D0
ENCODING 21712
SWIDTH 900 0
DWIDTH 15 0
BBX 13 13 1 0
BITMAP
07F8
0000
0400
F5F0
9400
9420
94F8
9420
9420
F5F8
0400
0400
07F8
ENDCHAR
STARTCHAR 54D1
ENCODING 21713
SWIDTH 900 0
DWIDTH 15 0
BBX 13 11 1 1
BITMAP
07F0
0000
F140
9140
9940
9550
9140
F140
0140
0140
0FF8
ENDCHAR
STARTCHAR 54D2
ENCODING 21714
SWIDTH 900 0
DWIDTH 15 0
BBX 13 13 1 -1
BITMAP
0620
0620
0020
F020
97F8
9240
9240
9270
9288
F300
0200
0400
0CF8
ENDCHAR
STARTCHAR 54D3
ENCODING 21715
SWIDTH 900 0
DWIDTH 15 0
BBX 13 15 1 -2
BITMAP
0100
0090
03E0
0040
F060
91A0
9010
9000
97F8
9000
F020
0220
0228
0238
0400
ENDCHAR
STARTCHAR 54D4
ENCODING 21716
SWIDTH 900 0
DWIDTH 15 0
BBX 13 14 1 0
BITMAP
0040
0458
05C0
F440
9440
9748
9078
9080
9080
F7F8
0080
0080
0080
0080
ENDCHAR
STARTCHAR 54D5
ENCODING 21717
SWIDTH 900 0
DWIDTH 15 0
BBX 13 15 1 -1
BITMAP
0080
0488
0488
07F8
F000
9000
9200
95F8
9018
F310
0020
0060
00C0
0100
0200
ENDCHAR
STARTCHAR 54D7
ENCODING 21719
SWIDTH 840 0
DWIDTH 14 0
BBX 13 14 1 1
BITMAP
0240
0640
0C70
F2C0
9240
9278
9200
9280
9080
F7F0
0080
0080
0080
0080
ENDCHAR
STARTCHAR 54D9
ENCODING 21721
SWIDTH 900 0
DWIDTH 15 0
BBX 13 13 1 1
BITMAP
0080
0100
0220
F418
91E0
9000
9000
97F0
F000
0100
0120
0210
03C0
ENDCHAR
STARTCHAR 54DA
ENCODING 21722
SWIDTH 900 0
DWIDTH 15 0
BBX 13 14 1 -1
BITMAP
00F0
0010
0210
F210
9218
9400
9440
9040
97F8
F040
0040
0248
0440
0040
ENDCHAR
STARTCHAR 54DC
ENCODING 21724
SWIDTH 900 0
DWIDTH 15 0
BBX 13 15 1 -1
BITMAP
0080
0080
07F8
0000
F020
91C0
90C0
9130
9200
F020
0220
0220
0220
0220
0420
ENDCHAR
STARTCHAR 54DD
ENCODING 21725
SWIDTH 900 0
DWIDTH 15 0
BBX 13 12 1 1
BITMAP
0080
05F0
F490
9510
9100
9218
9660
9560
F130
0110
0100
0180
ENDCHAR
STARTCHAR 54DE
ENCODING 21726
SWIDTH 900 0
DWIDTH 15 0
BBX 13 15 1 -1
BITMAP
0100
0220
0230
0390
F700
9240
9240
95F0
9440
F040
07F8
0040
0040
0040
0040
ENDCHAR
STARTCHAR 54DF
ENCODING 21727
SWIDTH 900 0
DWIDTH 15 0
BBX 13 12 1 0
BITMAP
0240
0240
0480
F818
9D08
9208
9648
9408
FE08
0008
0718
0800
ENDCHAR
STARTCHAR 54E5
ENCODING 21733
SWIDTH 900 0
DWIDTH 15 0
BBX 11 15 2 -2
BITMAP
7FE0
0000
3C80
2480
2480
3C80
0000
FFE0
0000
3C80
2480
2480
3C80
0080
0180
ENDCHAR
STARTCHAR 54E6
ENCODING 21734
SWIDTH 900 0
DWIDTH 15 0
BBX 13 13 1 1
BITMAP
0740
0050
0050
F240
97F0
9240
9358
9670
F660
0220
0220
0238
0018
ENDCHAR
STARTCHAR 54E7
ENCODING 21735
SWIDTH 900 0
DWIDTH 15 0
BBX 13 15 1 -2
BITMAP
0080
0080
03F0
0080
F080
97F8
9000
9120
9120
9120
F628
0220
0220
02E0
0400
ENDCHAR
STARTCHAR 54E8
ENCODING 21736
SWIDTH 900 0
DWIDTH 15 0
BBX 13 15 1 -1
BITMAP
0040
0058
0440
0040
F3F0
9210
9210
92F0
9210
F2F0
0210
0210
0210
0210
0010
ENDCHAR
STARTCHAR 54E9
ENCODING 21737
SWIDTH 900 0
DWIDTH 15 0
BBX 13 13 1 0
BITMAP
03F0
0250
0250
F3F0
9250
93F0
9040
9040
93F0
F040
0040
0000
07F8
ENDCHAR
STARTCHAR 54EA
ENCODING 21738
SWIDTH 900 0
DWIDTH 15 0
BBX 13 14 1 -2
BITMAP
0780
0080
04D8
E4C8
A4D0
AED0
A4D8
A4C8
EEC8
08C8
08C8
09C0
0840
1840
ENDCHAR
STARTCHAR 54ED
ENCODING 21741
SWIDTH 900 0
DWIDTH 15 0
BBX 11 14 2 -2
BITMAP
79E0
4920
4920
4920
79E0
0480
0480
0800
FFE0
0800
1000
10E0
2000
4000
ENDCHAR
STARTCHAR 54EE
ENCODING 21742
SWIDTH 900 0
DWIDTH 15 0
BBX 13 15 1 -2
BITMAP
0080
0080
03E0
00A0
F060
97F8
9080
9100
93E0
9020
F040
0FF8
0040
0040
00C0
ENDCHAR
STARTCHAR 54F2
ENCODING 21746
SWIDTH 900 0
DWIDTH 15 0
BBX 11 15 2 -1
BITMAP
2040
25C0
F400
2400
35E0
E880
2880
E880
0880
7F80
4080
4080
4080
4080
7F80
ENDCHAR
STARTCHAR 54F3
ENCODING 21747
SWIDTH 960 0
DWIDTH 16 0
BBX 14 13 1 0
BITMAP
0200
027C
0240
FF40
9240
9240
927C
9E48
F288
0288
0288
0608
0008
ENDCHAR
STARTCHAR 54FA
ENCODING 21754
SWIDTH 900 0
DWIDTH 15 0
BBX 13 14 1 -1
BITMAP
0080
0098
0080
07F8
F080
95F8
9488
95E8
9488
F488
05E8
0488
0488
0498
ENDCHAR
STARTCHAR 54FC
ENCODING 21756
SWIDTH 900 0
DWIDTH 15 0
BBX 13 15 1 -2
BITMAP
0080
0080
07F8
0000
0000
F3E0
9220
93E0
9000
93E0
F060
0080
0080
0080
0180
ENDCHAR
STARTCHAR 54FD
ENCODING 21757
SWIDTH 900 0
DWIDTH 15 0
BBX 13 14 1 -2
BITMAP
07F8
0080
0080
03F0
F290
9290
93D0
9290
93F0
F100
0300
01C0
0238
0200
ENDCHAR
STARTCHAR 54FF
ENCODING 21759
SWIDTH 960 0
DWIDTH 16 0
BBX 12 15 2 -1
BITMAP
2000
F9E0
2920
2920
7920
49E0
4000
FFF0
0000
0040
3C40
2440
3C40
0040
00C0
ENDCHAR
STARTCHAR 5501
ENCODING 21761
SWIDTH 900 0
DWIDTH 15 0
BBX 13 14 1 0
BITMAP
0080
0080
07F8
0000
F3F0
9000
9000
93F0
9000
F3F0
0210
0210
0210
03F0
ENDCHAR
STARTCHAR 5506
ENCODING 21766
SWIDTH 900 0
DWIDTH 15 0
BBX 13 14 1 -1
BITMAP
0100
0100
0220
F390
9000
9200
9020
9010
9100
F2E0
0020
00C0
00B0
0108
ENDCHAR
STARTCHAR 5507
ENCODING 21767
SWIDTH 840 0
DWIDTH 14 0
BBX 10 15 2 -1
BITMAP
7FC0
0000
4F00
4000
5FC0
4000
4840
4880
8C40
8000
8FC0
8840
8840
0840
0FC0
ENDCHAR
STARTCHAR 5509
ENCODING 21769
SWIDTH 840 0
DWIDTH 14 0
BBX 12 14 1 -2
BITMAP
0100
0100
0210
F380
9000
9200
92F0
9000
9040
F7F0
0080
0120
0110
0200
ENDCHAR
STARTCHAR 550F
ENCODING 21775
SWIDTH 900 0
DWIDTH 15 0
BBX 13 14 1 -1
BITMAP
0020
0140
00C0
0130
F680
97F8
9100
9240
9440
F1F8
0148
0148
0158
0040
ENDCHAR
STARTCHAR 5510
ENCODING 21776
SWIDTH 960 0
DWIDTH 16 0
BBX 12 15 2 -1
BITMAP
0200
0200
7FE0
0000
4FC0
4240
4240
5FF0
4240
4FC0
8200
8FC0
8840
0840
0FC0
ENDCHAR
STARTCHAR 5511
ENCODING 21777
SWIDTH 900 0
DWIDTH 15 0
BBX 13 13 1 0
BITMAP
0080
00A0
02A0
F2A0
97A8
94C0
9080
9080
93F0
F080
0080
0000
07F8
ENDCHAR
STARTCHAR 5514
ENCODING 21780
SWIDTH 900 0
DWIDTH 15 0
BBX 13 14 1 -1
BITMAP
07F0
0000
0100
F7E0
9120
9220
97F8
9000
9000
F3F0
0210
0210
0210
03F0
ENDCHAR
STARTCHAR 551B
ENCODING 21787
SWIDTH 960 0
DWIDTH 16 0
BBX 13 15 1 -2
BITMAP
0080
0080
03F0
0080
01E0
F080
9000
97F8
9100
92E0
F020
0160
00E0
0198
0300
ENDCHAR
STARTCHAR 5520
ENCODING 21792
SWIDTH 900 0
DWIDTH 15 0
BBX 13 14 1 -2
BITMAP
0120
07F8
0120
F000
95F8
9408
9508
9100
9100
F7F0
0110
0210
0210
0400
ENDCHAR
STARTCHAR 5522
ENCODING 21794
SWIDTH 900 0
DWIDTH 15 0
BBX 13 15 1 -2
BITMAP
0080
0080
0490
0080
F080
97F0
9410
9490
9490
9490
F490
0100
0100
0238
0400
ENDCHAR
STARTCHAR 5523
ENCODING 21795
SWIDTH 900 0
DWIDTH 15 0
BBX 13 14 1 1
BITMAP
0080
0000
07F0
0410
F5D0
9410
9410
97F0
9100
F1F8
0F00
0100
0108
01F8
ENDCHAR
STARTCHAR 5524
ENCODING 21796
SWIDTH 900 0
DWIDTH 15 0
BBX 13 15 1 -1
BITMAP
0200
04C0
0840
F000
93F0
9210
9290
9290
9080
FFF8
0100
0100
0138
0200
0200
ENDCHAR
STARTCHAR 5527
ENCODING 21799
SWIDTH 960 0
DWIDTH 16 0
BBX 14 12 1 0
BITMAP
0B80
08BC
FB84
98A4
98A4
9BA4
9824
F82C
0920
08A0
0F20
0C20
ENDCHAR
STARTCHAR 552A
ENCODING 21802
SWIDTH 900 0
DWIDTH 15 0
BBX 13 15 1 -1
BITMAP
0080
0080
07F0
0100
F3E0
9100
97F0
9200
9498
9488
F7E0
0080
07F0
0080
0080
ENDCHAR
STARTCHAR 552C
ENCODING 21804
SWIDTH 900 0
DWIDTH 15 0
BBX 12 14 1 -1
BITMAP
0080
00F0
0080
07F0
F010
9480
95E0
9480
94F0
F400
04E0
0520
0920
0930
ENDCHAR
STARTCHAR 552E
ENCODING 21806
SWIDTH 960 0
DWIDTH 16 0
BBX 12 15 2 -1
BITMAP
0080
3080
C7F0
0080
23E0
2080
23E0
2080
27F0
0000
1FC0
1040
1040
1040
1FC0
ENDCHAR
STARTCHAR 552F
ENCODING 21807
SWIDTH 900 0
DWIDTH 15 0
BBX 13 12 1 0
BITMAP
0020
0120
06F8
F400
9020
9278
9220
9220
F278
0220
0220
02F8
ENDCHAR
STARTCHAR 5530
ENCODING 21808
SWIDTH 960 0
DWIDTH 16 0
BBX 14 14 1 -1
BITMAP
0004
0BC4
0844
0844
FBD4
9814
9894
9BF4
9AB4
FAA4
0AE4
1284
1084
108C
ENDCHAR
STARTCHAR 5531
ENCODING 21809
SWIDTH 840 0
DWIDTH 14 0
BBX 12 12 1 0
BITMAP
03F0
03D0
F210
93F0
9000
9000
97F0
F410
05D0
0410
0410
07F0
ENDCHAR
STARTCHAR 5533
ENCODING 21811
SWIDTH 960 0
DWIDTH 16 0
BBX 14 15 1 -2
BITMAP
0040
0040
05F8
0408
F408
95F8
9400
9420
9420
9420
F5FC
0840
0840
088C
0880
ENDCHAR
STARTCHAR 5537
ENCODING 21815
SWIDTH 900 0
DWIDTH 15 0
BBX 13 15 1 -2
BITMAP
0080
0080
0FF8
0120
F210
9380
9000
93F0
9210
93D0
F210
03D0
0210
0210
0230
ENDCHAR
STARTCHAR 553C
ENCODING 21820
SWIDTH 900 0
DWIDTH 15 0
BBX 13 16 1 -1
BITMAP
0080
0080
0000
07F0
0000
F220
9000
97F8
9000
9100
F7F8
0220
0340
00F0
0308
0400
ENDCHAR
STARTCHAR 553E
ENCODING 21822
SWIDTH 900 0
DWIDTH 15 0
BBX 13 13 1 1
BITMAP
01E0
0000
0080
F7F8
9290
9290
9FF8
9290
F080
07F8
0080
0080
03F0
ENDCHAR
STARTCHAR 553F
ENCODING 21823
SWIDTH 900 0
DWIDTH 15 0
BBX 13 13 1 1
BITMAP
0200
05F0
F110
9250
9090
9090
9130
9000
F000
0080
0A10
1328
01E0
ENDCHAR
STARTCHAR 5541
ENCODING 21825
SWIDTH 900 0
DWIDTH 15 0
BBX 13 12 1 -1
BITMAP
05F8
0488
F488
95E8
9408
95E8
9408
95E8
F528
05E8
0408
0818
ENDCHAR
STARTCHAR 5543
ENCODING 21827
SWIDTH 900 0
DWIDTH 15 0
BBX 13 15 1 -2
BITMAP
0040
0240
0278
0240
F000
9FF8
9000
93F0
9210
92D0
F210
02D0
0210
0210
0230
ENDCHAR
STARTCHAR 5544
ENCODING 21828
SWIDTH 900 0
DWIDTH 15 0
BBX 13 12 1 0
BITMAP
07F0
0080
F080
9650
9060
9240
9340
9660
F050
0158
0240
00C0
ENDCHAR
STARTCHAR 5546
ENCODING 21830
SWIDTH 900 0
DWIDTH 15 0
BBX 11 15 2 -2
BITMAP
0400
0400
FFE0
0000
1180
0000
BFE0
8020
9120
A020
9F20
9120
9120
9F20
8060
ENDCHAR
STARTCHAR 5549
ENCODING 21833
SWIDTH 900 0
DWIDTH 15 0
BBX 14 13 1 0
BITMAP
0020
0220
0220
E220
AF78
A220
A320
A22C
AA60
E220
0220
0220
0020
ENDCHAR
STARTCHAR 554A
ENCODING 21834
SWIDTH 960 0
DWIDTH 16 0
BBX 14 12 1 -1
BITMAP
0FFC
0900
EA08
AAE8
AAA8
AFA8
A9A8
E9E8
0908
0B08
0808
0818
ENDCHAR
STARTCHAR 5550
ENCODING 21840
SWIDTH 900 0
DWIDTH 15 0
BBX 13 16 1 -1
BITMAP
0040
0040
0000
07F8
0000
F000
9210
9320
9428
9040
F040
0040
07F8
0040
0040
0040
ENDCHAR
STARTCHAR 5555
ENCODING 21845
SWIDTH 900 0
DWIDTH 15 0
BBX 13 13 1 1
BITMAP
0200
0200
04F8
F008
9208
95C8
9408
9108
97E8
F108
0548
07C8
0018
ENDCHAR
STARTCHAR 5556
ENCODING 21846
SWIDTH 900 0
DWIDTH 15 0
BBX 12 13 1 1
BITMAP
0040
0090
02A0
F100
9120
9210
9000
9080
F290
00A0
0100
0230
0400
ENDCHAR
STARTCHAR 555C
ENCODING 21852
SWIDTH 960 0
DWIDTH 16 0
BBX 14 12 1 0
BITMAP
0778
0508
F230
93B8
9440
9000
9778
F110
0270
0338
0424
0840
ENDCHAR
STARTCHAR 5561
ENCODING 21857
SWIDTH 900 0
DWIDTH 15 0
BBX 13 15 1 -1
BITMAP
0020
0120
0120
0138
F720
9120
9120
9738
9120
F120
0F38
0120
0120
0120
0100
ENDCHAR
STARTCHAR 5564
ENCODING 21860
SWIDTH 900 0
DWIDTH 15 0
BBX 13 15 1 0
BITMAP
0080
0000
03F0
0210
F250
93F0
9250
93F0
9180
F220
0020
0020
07F8
0020
0020
ENDCHAR
STARTCHAR 5565
ENCODING 21861
SWIDTH 900 0
DWIDTH 15 0
BBX 13 15 1 -1
BITMAP
0080
0100
0100
0220
F418
91C0
9000
9080
97F0
9080
F080
03E0
0220
0220
03E0
ENDCHAR
STARTCHAR 5566
ENCODING 21862
SWIDTH 960 0
DWIDTH 16 0
BBX 14 13 1 1
BITMAP
0220
0220
0200
F2FC
9F00
9200
9208
9758
9E10
F200
0200
02FC
0600
ENDCHAR
STARTCHAR 5567
ENCODING 21863
SWIDTH 900 0
DWIDTH 15 0
BBX 13 15 1 -2
BITMAP
0080
0080
03F0
0080
F1E0
9080
97F8
9000
93E0
F2A0
02A0
02A0
0100
0170
0600
ENDCHAR
STARTCHAR 556A
ENCODING 21866
SWIDTH 900 0
DWIDTH 15 0
BBX 13 13 1 1
BITMAP
0210
0220
0200
FF78
9248
9248
9248
9778
9248
F248
0248
0278
0600
ENDCHAR
STARTCHAR 556B
ENCODING 21867
SWIDTH 960 0
DWIDTH 16 0
BBX 14 15 1 0
BITMAP
0080
0080
0080
03E0
F090
9020
97FC
9180
9600
91F0
F110
01D0
0110
0110
01F0
ENDCHAR
STARTCHAR 556C
ENCODING 21868
SWIDTH 960 0
DWIDTH 16 0
BBX 12 16 2 -2
BITMAP
0200
0200
3FC0
0200
2240
0200
0000
FFF0
0000
3FC0
2F40
2940
2940
2F40
2040
3FC0
ENDCHAR
STARTCHAR 556D
ENCODING 21869
SWIDTH 960 0
DWIDTH 16 0
BBX 14 13 1 1
BITMAP
0010
0410
0FF8
F410
9A7C
9FA0
9220
9238
F308
0E10
0210
0260
0210
ENDCHAR
STARTCHAR 556E
ENCODING 21870
SWIDTH 900 0
DWIDTH 15 0
BBX 13 14 1 0
BITMAP
0040
0040
0258
0240
F240
9000
97F8
9000
9080
F488
04A8
0508
0408
07F8
ENDCHAR
STARTCHAR 5570
ENCODING 21872
SWIDTH 900 0
DWIDTH 15 0
BBX 13 15 1 -2
BITMAP
07F8
0548
0548
F7F8
9000
9300
9200
92F8
9418
F110
0120
0060
00C0
0180
0200
ENDCHAR
STARTCHAR 5575
ENCODING 21877
SWIDTH 900 0
DWIDTH 15 0
BBX 13 14 1 -1
BITMAP
0020
0020
05F8
F028
9128
9120
9100
9178
9108
F170
0630
0828
0040
0180
ENDCHAR
STARTCHAR 5576
ENCODING 21878
SWIDTH 840 0
DWIDTH 14 0
BBX 12 14 1 0
BITMAP
0080
0080
05F0
0410
F410
9000
97F0
9040
9040
F270
0640
0440
0D00
08F0
ENDCHAR
STARTCHAR 5577
ENCODING 21879
SWIDTH 960 0
DWIDTH 16 0
BBX 14 14 1 0
BITMAP
0200
0200
0FDC
08C4
F8C8
9EC8
98C8
98CC
9FC4
9844
F844
09CC
0E40
0040
ENDCHAR
STARTCHAR 5578
ENCODING 21880
SWIDTH 900 0
DWIDTH 15 0
BBX 13 14 1 -1
BITMAP
0080
07F0
0090
FFF8
9090
9090
97F0
9080
F888
08A8
0A88
0888
1088
0088
ENDCHAR
STARTCHAR 557B
ENCODING 21883
SWIDTH 900 0
DWIDTH 15 0
BBX 11 16 2 -1
BITMAP
0400
0400
0000
3FC0
1100
BFE0
8420
8420
3F80
2480
2580
0000
3F80
2080
2080
3F80
ENDCHAR
STARTCHAR 557C
ENCODING 21884
SWIDTH 900 0
DWIDTH 15 0
BBX 13 15 1 -1
BITMAP
0080
0080
07F8
0020
F120
95F8
9408
9448
9040
F3F0
0250
0250
0250
0040
0040
ENDCHAR
STARTCHAR 557E
ENCODING 21886
SWIDTH 840 0
DWIDTH 14 0
BBX 14 13 0 -1
BITMAP
0100
0610
0210
F210
9210
9254
9F10
9220
F2E0
0220
0220
0244
0240
ENDCHAR
STARTCHAR 5580
ENCODING 21888
SWIDTH 900 0
DWIDTH 15 0
BBX 13 15 1 0
BITMAP
0080
0080
0000
0BF8
FA08
92F0
9420
91E0
90E0
9318
FC00
03F0
0210
0210
03F0
ENDCHAR
STARTCHAR 5581
ENCODING 21889
SWIDTH 900 0
DWIDTH 15 0
BBX 13 13 1 -1
BITMAP
03F0
0290
03D0
F290
93F0
9080
9080
95F8
F488
04A8
0588
0508
0418
ENDCHAR
STARTCHAR 5582
ENCODING 21890
SWIDTH 900 0
DWIDTH 15 0
BBX 13 14 1 -1
BITMAP
07F0
0410
0490
05D0
F490
97F0
9000
97F8
9000
F210
0200
0260
0210
0300
ENDCHAR
STARTCHAR 5583
ENCODING 21891
SWIDTH 900 0
DWIDTH 15 0
BBX 13 14 1 -1
BITMAP
0080
0080
0FF8
0080
F000
97F8
9428
9508
95E8
F488
07E8
0488
0488
0418
ENDCHAR
STARTCHAR 5584
ENCODING 21892
SWIDTH 960 0
DWIDTH 16 0
BBX 12 15 2 -1
BITMAP
1100
7FC0
0400
3F00
0400
7FE0
0400
2480
0400
FFF0
1F80
1080
1080
1080
1F80
ENDCHAR
STARTCHAR 5586
ENCODING 21894
SWIDTH 900 0
DWIDTH 15 0
BBX 13 12 1 0
BITMAP
1040
11F8
FC40
1040
01F0
F800
0000
79F0
4910
4910
4910
79F0
ENDCHAR
STARTCHAR 5587
ENCODING 21895
SWIDTH 900 0
DWIDTH 15 0
BBX 13 15 1 -1
BITMAP
0200
0208
0F88
0208
F208
97A8
96A8
96A8
97A8
F228
0288
0A48
1A08
0218
0200
ENDCHAR
STARTCHAR 5588
ENCODING 21896
SWIDTH 900 0
DWIDTH 15 0
BBX 13 14 1 1
BITMAP
0440
0440
0750
0440
F440
9678
9080
9100
9000
F3F0
0210
02D0
0210
03F0
ENDCHAR
STARTCHAR 5589
ENCODING 21897
SWIDTH 900 0
DWIDTH 15 0
BBX 14 14 0 -2
BITMAP
0078
0208
0608
0400
F8FC
9000
94B8
9480
9420
F5FC
0440
0448
044C
0080
ENDCHAR
STARTCHAR 558A
ENCODING 21898
SWIDTH 900 0
DWIDTH 15 0
BBX 14 13 1 -1
BITMAP
0028
0028
0020
F7F8
9020
9420
95E0
9428
97B0
F6B0
0690
0B9C
080C
ENDCHAR
STARTCHAR 558B
ENCODING 21899
SWIDTH 900 0
DWIDTH 15 0
BBX 13 15 1 -1
BITMAP
0290
0290
07F8
0290
F2F0
9200
93F8
9000
9040
F7F8
0040
0258
0440
0040
0040
ENDCHAR
STARTCHAR 558F
ENCODING 21903
SWIDTH 900 0
DWIDTH 15 0
BBX 13 15 1 -1
BITMAP
0120
0120
07F8
0120
F000
9000
9100
97F8
9200
9200
F5F0
0110
0110
0110
01F0
ENDCHAR
STARTCHAR 5591
ENCODING 21905
SWIDTH 900 0
DWIDTH 15 0
BBX 13 14 1 0
BITMAP
0080
0080
07F0
0000
F300
9040
9000
97F8
9000
F3E0
0220
02E0
0220
03E0
ENDCHAR
STARTCHAR 5594
ENCODING 21908
SWIDTH 900 0
DWIDTH 15 0
BBX 13 14 1 -1
BITMAP
05F0
0410
0410
F5F0
9400
95F8
94A0
9510
99D0
F840
09F0
0840
0000
03F8
ENDCHAR
STARTCHAR 5598
ENCODING 21912
SWIDTH 900 0
DWIDTH 15 0
BBX 13 13 1 0
BITMAP
0080
0290
0290
F3F0
9000
97F8
9080
9000
F7F8
0548
0548
0548
0418
ENDCHAR
STARTCHAR 5599
ENCODING 21913
SWIDTH 900 0
DWIDTH 15 0
BBX 12 15 1 -1
BITMAP
0100
0100
02F0
03A0
F020
9020
97F0
9080
96D0
9040
F640
0050
0650
0040
0080
ENDCHAR
STARTCHAR 559C
ENCODING 21916
SWIDTH 960 0
DWIDTH 16 0
BBX 12 15 2 0
BITMAP
0200
FFE0
0200
3F80
0000
1F80
1080
1F80
0080
1080
FFF0
0000
1F80
1080
1F80
ENDCHAR
STARTCHAR 559D
ENCODING 21917
SWIDTH 900 0
DWIDTH 15 0
BBX 13 14 1 -2
BITMAP
03F0
02D0
0210
F210
93F0
9000
9600
95F8
9808
F088
0528
0408
0788
0018
ENDCHAR
STARTCHAR 559F
ENCODING 21919
SWIDTH 840 0
DWIDTH 14 0
BBX 12 15 1 -2
BITMAP
07F0
0410
0490
05D0
F490
97F0
9000
95F0
9410
F4D0
0410
04D0
0410
0410
0430
ENDCHAR
STARTCHAR 55A7
ENCODING 21927
SWIDTH 840 0
DWIDTH 14 0
BBX 12 14 1 0
BITMAP
0080
0080
07F0
0410
F410
93E0
9000
93E0
9220
F3E0
0220
03E0
0000
07F0
ENDCHAR
STARTCHAR 55B1
ENCODING 21937
SWIDTH 900 0
DWIDTH 15 0
BBX 13 12 1 0
BITMAP
03F8
0400
F5F0
9550
95F0
95F0
9440
9440
F9F0
0840
0800
03F8
ENDCHAR
STARTCHAR 55B3
ENCODING 21939
SWIDTH 900 0
DWIDTH 15 0
BBX 13 14 1 0
BITMAP
0080
0080
07F0
0080
F698
9480
93F0
9210
92D0
F210
0210
03F0
0000
07F0
ENDCHAR
STARTCHAR 55B5
ENCODING 21941
SWIDTH 900 0
DWIDTH 15 0
BBX 13 13 1 0
BITMAP
0120
07F8
0120
F000
9000
97F0
9410
9490
9490
F5F0
0490
0410
07F0
ENDCHAR
STARTCHAR 55B7
ENCODING 21943
SWIDTH 840 0
DWIDTH 14 0
BBX 12 14 1 -2
BITMAP
0080
07E0
01A0
F120
9FF0
9120
9000
93E0
9220
F2A0
02A0
0100
0320
0400
ENDCHAR
STARTCHAR 55B9
ENCODING 21945
SWIDTH 900 0
DWIDTH 15 0
BBX 13 14 1 1
BITMAP
0080
0080
07F8
F230
9688
95E0
9080
97F8
9000
F080
03E0
0080
0080
0FF8
ENDCHAR
STARTCHAR 55BB
ENCODING 21947
SWIDTH 960 0
DWIDTH 16 0
BBX 14 14 1 -1
BITMAP
0040
0080
0180
0130
F60C
90E0
9000
9588
9488
95A8
F4A8
0588
0488
0498
ENDCHAR
STARTCHAR 55BD
ENCODING 21949
SWIDTH 900 0
DWIDTH 15 0
BBX 13 14 1 -2
BITMAP
02A0
0080
07F8
F080
92B8
9480
9000
9100
97F8
F220
0360
00C0
01B8
0200
ENDCHAR
STARTCHAR 55BE
ENCODING 21950
SWIDTH 960 0
DWIDTH 16 0
BBX 12 15 2 0
BITMAP
2440
0000
BFE0
8020
8220
2200
4F80
4200
0000
FFF0
0000
1F80
1080
1080
1F80
ENDCHAR
STARTCHAR 55C4
ENCODING 21956
SWIDTH 900 0
DWIDTH 15 0
BBX 13 16 1 -1
BITMAP
0FF8
0000
0080
03F0
F210
92D0
92D0
9210
93F0
9200
F7F0
0830
01A0
0060
0198
0600
ENDCHAR
STARTCHAR 55C5
ENCODING 21957
SWIDTH 900 0
DWIDTH 15 0
BBX 13 16 1 -2
BITMAP
0080
0000
07F0
0410
F5D0
9410
95D0
97F0
9000
9090
F090
0FF8
0300
0238
0400
0800
ENDCHAR
STARTCHAR 55C9
ENCODING 21961
SWIDTH 900 0
DWIDTH 15 0
BBX 13 15 1 -2
BITMAP
0080
03F0
0080
01E0
F080
97F8
9100
9220
9340
9090
F110
01C0
0258
0240
00C0
ENDCHAR
STARTCHAR 55CC
ENCODING 21964
SWIDTH 960 0
DWIDTH 16 0
BBX 14 14 1 0
BITMAP
0110
0020
0000
07F8
F000
9110
9200
9000
93F8
F208
02A8
02A8
02A8
07FC
ENDCHAR
STARTCHAR 55CD
ENCODING 21965
SWIDTH 960 0
DWIDTH 16 0
BBX 14 12 1 0
BITMAP
015C
0044
FFC4
9044
9274
9AC4
9AF4
9FC4
F444
0444
088C
0800
ENDCHAR
STARTCHAR 55D1
ENCODING 21969
SWIDTH 900 0
DWIDTH 15 0
BBX 13 15 1 0
BITMAP
0080
0080
03E0
0080
F7F0
9100
9140
9220
9390
9000
F7F0
0410
0550
0550
0FF8
ENDCHAR
STARTCHAR 55D2
ENCODING 21970
SWIDTH 900 0
DWIDTH 15 0
BBX 13 14 1 0
BITMAP
0120
0120
07F8
0000
F000
9080
9130
9208
95E0
F000
03F0
0210
0210
03F0
ENDCHAR
STARTCHAR 55D3
ENCODING 21971
SWIDTH 960 0
DWIDTH 16 0
BBX 13 14 1 -1
BITMAP
03F0
01E0
07B0
F000
97F8
9508
9378
96E0
9080
F080
07F8
0080
0C98
0080
ENDCHAR
STARTCHAR 55D4
ENCODING 21972
SWIDTH 900 0
DWIDTH 15 0
BBX 13 16 1 -1
BITMAP
0080
0080
07F0
0080
03E0
F220
93A0
9220
93A0
9220
F3A0
0220
0FF8
0000
0130
0200
ENDCHAR
STARTCHAR 55D6
ENCODING 21974
SWIDTH 840 0
DWIDTH 14 0
BBX 12 16 1 -2
BITMAP
0080
0280
04F0
0490
F7F0
9490
97F0
9080
93E0
9020
F020
0340
00C0
01B0
0200
0400
ENDCHAR
STARTCHAR 55DC
ENCODING 21980
SWIDTH 900 0
DWIDTH 15 0
BBX 13 15 1 -1
BITMAP
0080
03F8
00B0
0060
F7F8
9300
9460
9110
91F8
9000
F3F0
0210
02D0
0210
03F0
ENDCHAR
STARTCHAR 55DD
ENCODING 21981
SWIDTH 840 0
DWIDTH 14 0
BBX 12 14 1 -1
BITMAP
07F0
0000
0000
03E0
F220
93E0
9000
97F0
9430
F550
07F0
0410
0490
04B0
ENDCHAR
STARTCHAR 55DF
ENCODING 21983
SWIDTH 900 0
DWIDTH 15 0
BBX 13 14 1 1
BITMAP
0260
0000
07F0
F100
9100
97C0
9200
9FF8
9200
F5E0
0400
0880
0080
03F8
ENDCHAR
STARTCHAR 55E1
ENCODING 21985
SWIDTH 900 0
DWIDTH 15 0
BBX 13 14 1 0
BITMAP
0020
0210
0C08
0100
F320
9390
9000
9F78
9108
F528
0108
0D68
0108
0318
ENDCHAR
STARTCHAR 55E3
ENCODING 21987
SWIDTH 960 0
DWIDTH 16 0
BBX 14 13 1 -1
BITMAP
7C00
45FC
4404
7DF4
0004
0004
BEE4
AAA4
FAA4
AAE4
AA04
8204
860C
ENDCHAR
STARTCHAR 55E4
ENCODING 21988
SWIDTH 900 0
DWIDTH 15 0
BBX 13 15 1 -2
BITMAP
0080
0490
0490
07F0
F000
9FF8
9000
9080
97F0
9490
F490
07F0
0090
0008
07C8
ENDCHAR
STARTCHAR 55E5
ENCODING 21989
SWIDTH 900 0
DWIDTH 15 0
BBX 13 15 1 -1
BITMAP
0080
0000
03F0
0210
F2D0
9210
93F0
9000
9FF8
9300
F698
0880
03E0
0080
0080
ENDCHAR
STARTCHAR 55E6
ENCODING 21990
SWIDTH 840 0
DWIDTH 14 0
BBX 12 15 1 -2
BITMAP
0080
07E0
0080
0FF0
F810
9A10
9440
9780
9120
F620
0780
0080
0490
0880
0180
ENDCHAR
STARTCHAR 55E8
ENCODING 21992
SWIDTH 960 0
DWIDTH 16 0
BBX 14 14 1 0
BITMAP
0100
0978
0000
E1F0
A150
A950
A910
A3FC
E150
0550
0DF8
0010
0010
0030
ENDCHAR
STARTCHAR 55EA
ENCODING 21994
SWIDTH 900 0
DWIDTH 15 0
BBX 13 14 1 0
BITMAP
0080
07E0
0100
F3E0
9300
97F0
9200
94D8
9500
F080
07F0
0080
0090
0480
ENDCHAR
STARTCHAR 55EB
ENCODING 21995
SWIDTH 900 0
DWIDTH 15 0
BBX 12 14 1 -1
BITMAP
0FF0
0220
03A0
F3A0
9220
9FF0
9020
9F70
F210
06D0
0260
0530
0840
0080
ENDCHAR
STARTCHAR 55EC
ENCODING 21996
SWIDTH 960 0
DWIDTH 16 0
BBX 14 15 1 -1
BITMAP
0220
0220
0FF8
0000
F200
94FC
9C00
9010
94F0
94B0
F4B0
04F0
0410
0410
0400
ENDCHAR
STARTCHAR 55EF
ENCODING 21999
SWIDTH 900 0
DWIDTH 15 0
BBX 13 14 1 -2
BITMAP
07F0
0410
0490
0490
F7D0
9510
9450
97F0
9000
F000
0080
0608
0B20
01F0
ENDCHAR
STARTCHAR 55F2
ENCODING 22002
SWIDTH 900 0
DWIDTH 15 0
BBX 13 14 1 -1
BITMAP
0618
0140
00C0
F330
90E0
9260
9140
9080
9100
F0F0
0110
00A0
0040
0080
ENDCHAR
STARTCHAR 55F3
ENCODING 22003
SWIDTH 900 0
DWIDTH 15 0
BBX 13 15 1 -2
BITMAP
03F0
0090
0210
F400
95F8
9508
9100
9FF8
9200
F3F0
0410
05E0
0070
0188
0200
ENDCHAR
STARTCHAR 55F5
ENCODING 22005
SWIDTH 960 0
DWIDTH 16 0
BBX 14 14 1 -1
BITMAP
00F0
0410
04D0
0060
E178
AD08
A528
A578
A578
E528
0528
0518
0600
19FC
ENDCHAR
STARTCHAR 55F7
ENCODING 22007
SWIDTH 900 0
DWIDTH 15 0
BBX 14 14 1 -2
BITMAP
0200
0200
0FA0
0220
F7DC
9240
9F80
9010
9410
97B0
F890
08A8
08A4
09C0
ENDCHAR
STARTCHAR 55FD
ENCODING 22013
SWIDTH 960 0
DWIDTH 16 0
BBX 14 15 1 -2
BITMAP
0200
0210
0FB0
0220
F24C
9F84
9A80
9A80
9F90
F210
0390
0AA0
122C
0220
0240
ENDCHAR
STARTCHAR 55FE
ENCODING 22014
SWIDTH 960 0
DWIDTH 16 0
BBX 14 14 1 -2
BITMAP
0020
0440
045C
EF00
A000
A840
A878
AF00
A920
E97C
0920
1338
1044
0040
ENDCHAR
STARTCHAR 5600
ENCODING 22016
SWIDTH 900 0
DWIDTH 15 0
BBX 13 15 1 -2
BITMAP
0080
0080
07F8
0000
F160
9000
97F8
9488
95E8
F488
05C8
0548
05C8
0408
0418
ENDCHAR
STARTCHAR 5601
ENCODING 22017
SWIDTH 900 0
DWIDTH 15 0
BBX 14 13 1 -1
BITMAP
0028
0028
0020
F7F8
9020
9520
95A0
9528
97F8
F570
0B10
095C
0308
ENDCHAR
STARTCHAR 5608
ENCODING 22024
SWIDTH 900 0
DWIDTH 15 0
BBX 13 15 1 -1
BITMAP
0140
0FF8
0140
07F8
F548
97E8
9548
97F8
9000
97F0
F410
05D0
0410
0410
07F0
ENDCHAR
STARTCHAR 5609
ENCODING 22025
SWIDTH 960 0
DWIDTH 16 0
BBX 12 16 2 -2
BITMAP
0200
0200
FFE0
3F80
0000
0000
1F80
1080
1F80
0080
1080
FFF0
21E0
7D20
4520
4DE0
ENDCHAR
STARTCHAR 560C
ENCODING 22028
SWIDTH 900 0
DWIDTH 15 0
BBX 13 15 1 -2
BITMAP
07F0
0000
0140
07F0
F550
9550
97F0
9000
93E0
9000
F7F0
0080
0298
0480
0180
ENDCHAR
STARTCHAR 560E
ENCODING 22030
SWIDTH 900 0
DWIDTH 15 0
BBX 13 15 1 -1
BITMAP
0FF8
0000
07F0
0410
F590
9590
9410
97F0
9170
F130
0FC0
00F0
00E0
0330
0010
ENDCHAR
STARTCHAR 560F
ENCODING 22031
SWIDTH 900 0
DWIDTH 15 0
BBX 13 14 1 -1
BITMAP
0038
2588
2488
FC88
25B8
2400
2400
75B8
5408
55B0
5430
7438
0428
0040
ENDCHAR
STARTCHAR 5618
ENCODING 22040
SWIDTH 900 0
DWIDTH 15 0
BBX 13 14 1 -1
BITMAP
0080
00B0
0080
07F8
F488
94E0
9490
94F0
9480
F4A0
05A8
04A0
0800
09F8
ENDCHAR
STARTCHAR 561B
ENCODING 22043
SWIDTH 900 0
DWIDTH 15 0
BBX 13 15 1 -1
BITMAP
0080
0080
0FF0
0000
F910
9910
9978
9F90
9910
9998
FD50
0910
1110
0110
0010
ENDCHAR
STARTCHAR 561E
ENCODING 22046
SWIDTH 960 0
DWIDTH 16 0
BBX 14 15 1 -1
BITMAP
0900
0920
0FA0
0920
EF20
A07C
A224
AFA4
AAA4
AFA4
E224
0244
0FDC
024C
0240
ENDCHAR
STARTCHAR 561F
ENCODING 22047
SWIDTH 960 0
DWIDTH 16 0
BBX 14 13 1 0
BITMAP
0200
0F3C
02A4
E3AC
AFA8
A228
AC24
A024
A7A4
E4A4
07AC
04A0
07A0
ENDCHAR
STARTCHAR 5623
ENCODING 22051
SWIDTH 960 0
DWIDTH 16 0
BBX 14 14 1 -1
BITMAP
0488
0408
07F8
F000
905C
9BC4
98DC
9BC4
98C4
FBDC
08C4
08C4
08CC
0840
ENDCHAR
STARTCHAR 5624
ENCODING 22052
SWIDTH 900 0
DWIDTH 15 0
BBX 13 15 1 -1
BITMAP
07F8
04C8
04D8
04D8
F690
92A8
9440
9080
9080
FFF8
0120
01C0
00F0
0108
0E00
ENDCHAR
STARTCHAR 5627
ENCODING 22055
SWIDTH 960 0
DWIDTH 16 0
BBX 14 14 1 0
BITMAP
0080
0080
07F8
0488
F498
9520
9548
9194
97F0
F000
0080
0290
0290
03F0
ENDCHAR
STARTCHAR 562C
ENCODING 22060
SWIDTH 960 0
DWIDTH 16 0
BBX 13 14 1 -1
BITMAP
03E0
02E0
0220
F3E0
9FF8
9000
9480
96F0
9490
F6F0
00A8
07A0
00C0
0080
ENDCHAR
STARTCHAR 562D
ENCODING 22061
SWIDTH 900 0
DWIDTH 15 0
BBX 14 14 1 -1
BITMAP
0200
0F80
0230
0060
FF40
9000
9F0C
9930
9F00
F000
0100
0C0C
0030
0F00
ENDCHAR
STARTCHAR 5631
ENCODING 22065
SWIDTH 900 0
DWIDTH 15 0
BBX 13 15 1 -2
BITMAP
07F0
07F0
0400
F460
9580
9440
95F0
9550
95F0
F440
07F8
0A48
0BD8
0218
0200
ENDCHAR
STARTCHAR 5632
ENCODING 22066
SWIDTH 960 0
DWIDTH 16 0
BBX 14 13 1 0
BITMAP
0200
025C
0FC4
F244
9F5C
9944
9F44
9F5C
9244
FFC4
0244
024C
0240
ENDCHAR
STARTCHAR 5634
ENCODING 22068
SWIDTH 900 0
DWIDTH 15 0
BBX 13 16 1 -1
BITMAP
0200
0248
06D0
0648
03F8
F600
92E0
9440
9000
95F8
F488
05E8
0488
05E8
0898
0800
ENDCHAR
STARTCHAR 5636
ENCODING 22070
SWIDTH 960 0
DWIDTH 16 0
BBX 14 13 1 -1
BITMAP
0900
0900
1FC8
E940
AB40
A940
A95C
AB48
E948
0048
1FC8
0048
09C8
ENDCHAR
STARTCHAR 5639
ENCODING 22073
SWIDTH 960 0
DWIDTH 16 0
BBX 14 14 1 -1
BITMAP
0080
07F8
0510
F200
9418
93F0
93D0
9210
93F0
F000
0080
048C
0080
0180
ENDCHAR
STARTCHAR 563B
ENCODING 22075
SWIDTH 900 0
DWIDTH 15 0
BBX 13 15 1 -1
BITMAP
0080
07F8
0080
03F0
F000
93E0
9220
93E0
9220
F000
07F8
03E0
0220
0220
03E0
ENDCHAR
STARTCHAR 563F
ENCODING 22079
SWIDTH 900 0
DWIDTH 15 0
BBX 13 15 1 -1
BITMAP
07F0
0410
0690
0490
F490
97F0
9080
97E0
9080
F000
0FF8
0000
0000
0950
0100
ENDCHAR
STARTCHAR 564C
ENCODING 22092
SWIDTH 900 0
DWIDTH 15 0
BBX 13 15 1 0
BITMAP
0220
0000
07F8
0408
F6A8
9488
9488
97F8
9000
93F0
F210
0210
03D0
0210
03F0
ENDCHAR
STARTCHAR 564D
ENCODING 22093
SWIDTH 900 0
DWIDTH 15 0
BBX 13 13 1 -1
BITMAP
0020
0DF8
F020
9420
94F0
9420
94F0
9420
F5F8
0000
0008
0A20
0100
ENDCHAR
STARTCHAR 564E
ENCODING 22094
SWIDTH 900 0
DWIDTH 15 0
BBX 13 14 1 0
BITMAP
0080
07F8
0080
03E0
F000
9BF8
9808
99E8
93E0
F220
03E0
0200
0000
0FF8
ENDCHAR
STARTCHAR 5654
ENCODING 22100
SWIDTH 960 0
DWIDTH 16 0
BBX 13 14 1 0
BITMAP
0040
0050
0740
0128
F510
92D0
9408
91E0
9120
F1E0
0000
0320
0000
07F8
ENDCHAR
STARTCHAR 5657
ENCODING 22103
SWIDTH 900 0
DWIDTH 15 0
BBX 13 14 1 -2
BITMAP
0140
0558
0000
07F8
F000
9220
9000
97F8
9080
93E0
F100
0FF8
0200
0238
ENDCHAR
STARTCHAR 5658
ENCODING 22104
SWIDTH 960 0
DWIDTH 16 0
BBX 14 13 1 -2
BITMAP
07FC
0000
F450
9410
97C0
948C
96C4
9AD0
FBD0
0910
0920
0324
0240
ENDCHAR
STARTCHAR 5659
ENCODING 22105
SWIDTH 900 0
DWIDTH 15 0
BBX 13 16 1 -2
BITMAP
0080
0100
06B8
0C00
F1E0
9080
9390
9290
93F0
9080
F7F8
0508
0528
0598
0408
0418
ENDCHAR
STARTCHAR 565C
ENCODING 22108
SWIDTH 900 0
DWIDTH 15 0
BBX 13 15 1 0
BITMAP
0400
04C0
0840
07F0
F410
95D0
9490
97F0
9000
9FF8
67F0
0410
05D0
0410
07F0
ENDCHAR
STARTCHAR 5662
ENCODING 22114
SWIDTH 900 0
DWIDTH 15 0
BBX 13 14 1 -1
BITMAP
00C0
07F8
0408
F568
95E8
9468
9548
9448
9040
F7F8
0180
0100
0218
0400
ENDCHAR
STARTCHAR 5664
ENCODING 22116
SWIDTH 960 0
DWIDTH 16 0
BBX 14 14 1 -1
BITMAP
0200
0210
0FFC
0310
FA5C
9210
9010
93E0
9000
F7F0
0000
0480
0C88
0180
ENDCHAR
STARTCHAR 5668
ENCODING 22120
SWIDTH 900 0
DWIDTH 15 0
BBX 11 15 2 -1
BITMAP
FBE0
8A20
8A20
FBE0
0480
0800
FFE0
1000
2380
4040
0000
FBE0
8A20
8A20
FBE0
ENDCHAR
STARTCHAR 5669
ENCODING 22121
SWIDTH 960 0
DWIDTH 16 0
BBX 12 15 2 -1
BITMAP
FFF0
0000
0400
75E0
5520
75E0
0400
7FC0
0400
75E0
5520
5520
75E0
0000
FFF0
ENDCHAR
STARTCHAR 566A
ENCODING 22122
SWIDTH 900 0
DWIDTH 15 0
BBX 13 15 1 -1
BITMAP
03E0
0220
0220
03E0
F000
9F78
9948
9F78
9080
9080
FFF8
0080
04B0
0888
0080
ENDCHAR
STARTCHAR 566B
ENCODING 22123
SWIDTH 900 0
DWIDTH 15 0
BBX 13 15 1 -1
BITMAP
0080
0080
03F0
0020
F140
97F8
9000
93E0
92E0
9220
F3E0
0080
0408
0920
00E0
ENDCHAR
STARTCHAR 566C
ENCODING 22124
SWIDTH 900 0
DWIDTH 15 0
BBX 13 13 1 1
BITMAP
0420
0758
FB18
9000
97F8
9000
9090
9490
F6B8
08A8
00C0
0080
0FF8
ENDCHAR
STARTCHAR 5671
ENCODING 22129
SWIDTH 900 0
DWIDTH 15 0
BBX 13 15 1 -2
BITMAP
0080
00B0
0000
0FF0
F490
95E0
9480
94F0
95F0
9400
F9D8
0840
0A50
0348
00C0
ENDCHAR
STARTCHAR 5676
ENCODING 22134
SWIDTH 900 0
DWIDTH 15 0
BBX 13 15 1 -1
BITMAP
0220
07F8
0220
07F0
F410
95D0
9410
97F0
9400
F5F8
0888
0508
0428
0788
0018
ENDCHAR
STARTCHAR 567B
ENCODING 22139
SWIDTH 900 0
DWIDTH 15 0
BBX 13 15 1 -1
BITMAP
0080
0080
07F8
0408
F140
97F8
97F0
9140
97F8
9000
F698
0480
03E0
0080
07F8
ENDCHAR
STARTCHAR 567C
ENCODING 22140
SWIDTH 960 0
DWIDTH 16 0
BBX 14 15 1 -1
BITMAP
0010
0010
0B80
08F8
E880
A8A8
AB80
A87C
A800
EF90
14F8
1490
1490
0790
0010
ENDCHAR
STARTCHAR 5685
ENCODING 22149
SWIDTH 900 0
DWIDTH 15 0
BBX 13 14 1 -1
BITMAP
03F0
0000
0080
FBF8
9AA8
9080
92A0
9FF8
9000
F080
07F8
0408
0548
0578
ENDCHAR
STARTCHAR 5686
ENCODING 22150
SWIDTH 900 0
DWIDTH 15 0
BBX 13 15 1 -1
BITMAP
0220
0FF8
02A0
03F0
F000
91E0
9120
91E0
9000
F7F0
05D0
0550
05D0
0410
0410
ENDCHAR
STARTCHAR 568E
ENCODING 22158
SWIDTH 900 0
DWIDTH 15 0
BBX 13 16 1 -1
BITMAP
0080
0080
0000
07F8
03F0
F3F0
9000
95F8
9408
91E0
F690
0080
0680
0090
0690
0080
ENDCHAR
STARTCHAR 568F
ENCODING 22159
SWIDTH 900 0
DWIDTH 15 0
BBX 13 16 1 -2
BITMAP
0080
0080
07F0
0800
0BF8
FBE8
9220
93E0
92A0
93E0
9000
FFF8
0088
04B0
0A80
01F8
ENDCHAR
STARTCHAR 5693
ENCODING 22163
SWIDTH 900 0
DWIDTH 15 0
BBX 14 15 1 -2
BITMAP
0080
0080
07F8
0408
F640
9758
9128
9A30
93D8
F00C
07F8
0000
0480
0C8C
0180
ENDCHAR
STARTCHAR 56A3
ENCODING 22179
SWIDTH 900 0
DWIDTH 15 0
BBX 11 16 2 -1
BITMAP
7BC0
4A40
4A40
7BC0
0000
FFE0
0400
3F80
2080
2480
0800
3180
7BC0
4A40
4A40
7BC0
ENDCHAR
STARTCHAR 56AF
ENCODING 22191
SWIDTH 900 0
DWIDTH 15 0
BBX 13 14 1 0
BITMAP
03F0
0000
05F8
0448
F578
9040
9170
9220
94F8
F020
0278
0220
0278
02F8
ENDCHAR
STARTCHAR 56B7
ENCODING 22199
SWIDTH 900 0
DWIDTH 15 0
BBX 13 15 1 -2
BITMAP
0080
0080
0FF8
07F8
F4C8
97F8
9020
97F8
9120
97F0
F120
0FF8
0208
0D30
0188
ENDCHAR
STARTCHAR 56BC
ENCODING 22204
SWIDTH 960 0
DWIDTH 16 0
BBX 14 15 1 -1
BITMAP
03E0
0090
0290
07F8
F548
97F8
9000
9788
9488
F7BC
0788
0428
0508
04B8
0418
ENDCHAR
STARTCHAR 56CA
ENCODING 22218
SWIDTH 840 0
DWIDTH 14 0
BBX 12 17 1 -3
BITMAP
0400
7FE0
0400
3F80
3F80
7FE0
4020
7BE0
3BC0
7FE0
0900
3F80
0900
FFF0
2860
4980
08E0
ENDCHAR
STARTCHAR 56D4
ENCODING 22228
SWIDTH 960 0
DWIDTH 16 0
BBX 14 15 1 0
BITMAP
07FC
0040
03F8
03F8
F5FC
97FC
92C8
9178
93F8
9120
F3F8
07FC
0200
0530
018C
ENDCHAR
STARTCHAR 56D7
ENCODING 22231
SWIDTH 900 0
DWIDTH 15 0
BBX 11 15 2 -1
BITMAP
FFE0
8020
8020
8020
8020
8020
8020
8020
8020
8020
8020
8020
8020
8020
FFE0
ENDCHAR
STARTCHAR 56DA
ENCODING 22234
SWIDTH 840 0
DWIDTH 14 0
BBX 10 12 2 0
BITMAP
FFC0
8040
8440
8C40
8840
8840
9840
9340
A040
C040
8040
FFC0
ENDCHAR
STARTCHAR 56DB
ENCODING 22235
SWIDTH 840 0
DWIDTH 14 0
BBX 10 12 2 0
BITMAP
FFC0
9040
9040
9240
9240
9240
9240
A3C0
A040
A040
8040
FFC0
ENDCHAR
STARTCHAR 56DD
ENCODING 22237
SWIDTH 840 0
DWIDTH 14 0
BBX 10 12 2 0
BITMAP
FFC0
BE40
8240
8240
8440
BFC0
8440
8440
8440
9C40
8040
FFC0
ENDCHAR
STARTCHAR 56DE
ENCODING 22238
SWIDTH 960 0
DWIDTH 16 0
BBX 10 13 3 0
BITMAP
FFC0
8040
8040
8040
9E40
9240
9240
9240
9E40
8040
8040
8040
FFC0
ENDCHAR
STARTCHAR 56DF
ENCODING 22239
SWIDTH 900 0
DWIDTH 15 0
BBX 11 15 2 0
BITMAP
0800
0000
FFE0
8020
8020
8120
8120
9A20
8E20
8520
8820
9020
8020
8020
FFE0
ENDCHAR
STARTCHAR 56E0
ENCODING 22240
SWIDTH 840 0
DWIDTH 14 0
BBX 10 12 2 0
BITMAP
FFC0
8040
8440
8440
8440
BF40
8840
8840
9340
9040
A040
FFC0
ENDCHAR
STARTCHAR 56E1
ENCODING 22241
SWIDTH 840 0
DWIDTH 14 0
BBX 10 12 2 0
BITMAP
FFC0
8040
8840
BFC0
9240
9240
8C40
8B40
90C0
A040
8040
FFC0
ENDCHAR
STARTCHAR 56E2
ENCODING 22242
SWIDTH 840 0
DWIDTH 14 0
BBX 10 12 2 0
BITMAP
FFC0
8240
8240
BF40
8240
8240
9A40
B240
8240
8640
8040
FFC0
ENDCHAR
STARTCHAR 56E4
ENCODING 22244
SWIDTH 840 0
DWIDTH 14 0
BBX 10 12 2 0
BITMAP
FFC0
8440
BFC0
8440
8440
A540
A540
BF40
8440
84C0
87C0
FFC0
ENDCHAR
STARTCHAR 56E7
ENCODING 22247
SWIDTH 840 0
DWIDTH 14 0
BBX 10 12 2 0
BITMAP
FFC0
8040
8040
9340
A040
8040
9F40
9140
9140
9140
9140
FFC0
ENDCHAR
STARTCHAR 56EB
ENCODING 22251
SWIDTH 840 0
DWIDTH 14 0
BBX 10 12 2 0
BITMAP
FFC0
8040
9040
9FC0
A0C0
88C0
94C0
84C0
88C0
83C0
81C0
FFC0
ENDCHAR
STARTCHAR 56ED
ENCODING 22253
SWIDTH 840 0
DWIDTH 14 0
BBX 10 12 2 0
BITMAP
FFC0
9E40
8040
8040
8040
BFC0
8A40
9240
93C0
93C0
A040
FFC0
ENDCHAR
STARTCHAR 56F0
ENCODING 22256
SWIDTH 840 0
DWIDTH 14 0
BBX 10 12 2 0
BITMAP
FFC0
8440
8440
BF40
8440
8440
8540
A440
8440
8040
8040
FFC0
ENDCHAR
STARTCHAR 56F1
ENCODING 22257
SWIDTH 900 0
DWIDTH 15 0
BBX 11 15 2 0
BITMAP
1000
0000
FFE0
8020
9020
9020
A720
8120
8220
8E20
8F20
B020
8020
8020
FFE0
ENDCHAR
STARTCHAR 56F4
ENCODING 22260
SWIDTH 840 0
DWIDTH 14 0
BBX 10 12 2 0
BITMAP
FFC0
8840
BF40
8840
9E40
8840
BF40
8940
8B40
8840
8840
FFC0
ENDCHAR
STARTCHAR 56F5
ENCODING 22261
SWIDTH 840 0
DWIDTH 14 0
BBX 10 12 2 0
BITMAP
FFC0
8040
8840
9040
A340
9040
9640
9040
9140
9F40
8040
FFC0
ENDCHAR
STARTCHAR 56F9
ENCODING 22265
SWIDTH 840 0
DWIDTH 14 0
BBX 10 12 2 0
BITMAP
FFC0
8440
8840
B540
8440
8040
9E40
8240
8240
9840
8440
FFC0
ENDCHAR
STARTCHAR 56FA
ENCODING 22266
SWIDTH 840 0
DWIDTH 14 0
BBX 10 12 2 0
BITMAP
FFC0
8440
8440
BFC0
8440
8440
9E40
9240
9240
9E40
8040
FFC0
ENDCHAR
STARTCHAR 56FD
ENCODING 22269
SWIDTH 840 0
DWIDTH 14 0
BBX 10 12 2 0
BITMAP
FFC0
8040
BF40
8440
8440
9F40
8440
8540
8040
BFC0
8040
FFC0
ENDCHAR
STARTCHAR 56FE
ENCODING 22270
SWIDTH 840 0
DWIDTH 14 0
BBX 10 12 2 0
BITMAP
FFC0
9040
AE40
A240
9C40
8E40
B040
C840
8040
9840
8440
FFC0
ENDCHAR
STARTCHAR 56FF
ENCODING 22271
SWIDTH 840 0
DWIDTH 14 0
BBX 10 12 2 0
BITMAP
FFC0
8840
BFC0
9040
9040
AF40
8D40
8940
8D40
8B40
8840
FFC0
ENDCHAR
STARTCHAR 5703
ENCODING 22275
SWIDTH 900 0
DWIDTH 15 0
BBX 11 14 2 -1
BITMAP
FFE0
85A0
84A0
BFE0
8420
AFA0
A4A0
AEA0
A4A0
AEA0
A4A0
A5A0
8020
FFE0
ENDCHAR
STARTCHAR 5704
ENCODING 22276
SWIDTH 900 0
DWIDTH 15 0
BBX 11 15 2 -1
BITMAP
FFE0
8020
BF20
8020
9F20
8920
8920
BFA0
8020
9F20
9120
9120
9F20
8020
FFE0
ENDCHAR
STARTCHAR 5706
ENCODING 22278
SWIDTH 900 0
DWIDTH 15 0
BBX 11 14 2 -1
BITMAP
FFE0
9F20
9120
9120
9F20
8020
9FA0
90A0
94A0
94A0
8820
9320
90A0
FFE0
ENDCHAR
STARTCHAR 5708
ENCODING 22280
SWIDTH 900 0
DWIDTH 15 0
BBX 11 14 2 -1
BITMAP
FFE0
8020
92A0
9F20
8420
BFE0
91A0
AF20
8120
8B20
88A0
8FA0
8020
FFE0
ENDCHAR
STARTCHAR 5709
ENCODING 22281
SWIDTH 900 0
DWIDTH 15 0
BBX 11 14 2 -1
BITMAP
FFE0
8420
9F20
8420
BFE0
8020
9220
8020
9F20
8420
BFE0
8420
8420
FFE0
ENDCHAR
STARTCHAR 570A
ENCODING 22282
SWIDTH 900 0
DWIDTH 15 0
BBX 11 14 2 -1
BITMAP
FFE0
8420
9FA0
8420
9E20
BFA0
8020
9F20
9120
9D20
9720
9120
9320
FFE0
ENDCHAR
STARTCHAR 570B
ENCODING 22283
SWIDTH 960 0
DWIDTH 16 0
BBX 12 14 2 -1
BITMAP
FFF0
8110
8150
8110
BFD0
8110
BD10
A550
BD90
8290
BC90
B090
8050
FFF0
ENDCHAR
STARTCHAR 5716
ENCODING 22294
SWIDTH 900 0
DWIDTH 15 0
BBX 11 15 2 -1
BITMAP
FFE0
8020
8F20
8920
8F20
8420
BFA0
9FA0
90A0
96A0
96A0
96A0
9FA0
8020
FFE0
ENDCHAR
STARTCHAR 571C
ENCODING 22300
SWIDTH 900 0
DWIDTH 15 0
BBX 11 14 2 -1
BITMAP
FFE0
BFA0
AAA0
AAA0
BFA0
BFA0
9F20
9120
9F20
8020
A120
9120
98A0
FFE0
ENDCHAR
STARTCHAR 571F
ENCODING 22303
SWIDTH 900 0
DWIDTH 15 0
BBX 11 13 2 0
BITMAP
0200
0200
0200
0200
0200
3FC0
0200
0200
0200
0200
0200
0000
FFE0
ENDCHAR
STARTCHAR 5723
ENCODING 22307
SWIDTH 900 0
DWIDTH 15 0
BBX 11 13 2 0
BITMAP
7F00
0100
0200
1C00
0E00
31C0
C400
0400
3F00
0400
0400
0400
FFE0
ENDCHAR
STARTCHAR 5728
ENCODING 22312
SWIDTH 900 0
DWIDTH 15 0
BBX 11 15 2 0
BITMAP
0800
0800
1000
FFE0
2000
2100
4100
8100
27C0
2100
2100
2100
2000
2FE0
2000
ENDCHAR
STARTCHAR 5729
ENCODING 22313
SWIDTH 900 0
DWIDTH 15 0
BBX 13 12 1 -1
BITMAP
21F8
2000
2020
7820
2020
23F8
2020
0820
7020
8020
0020
0060
ENDCHAR
STARTCHAR 572A
ENCODING 22314
SWIDTH 960 0
DWIDTH 16 0
BBX 14 14 1 1
BITMAP
0100
0100
2200
227C
7800
2000
23F0
2010
2020
0840
70C0
8080
0108
01FC
ENDCHAR
STARTCHAR 572C
ENCODING 22316
SWIDTH 900 0
DWIDTH 15 0
BBX 13 13 1 -1
BITMAP
03F0
4000
4000
4000
F7F8
4000
4200
43F0
3010
C010
0010
0010
0030
ENDCHAR
ENDFONT
